<?xml version="1.0" encoding="UTF-8" standalone="no"?>
<!-- Generator: Adobe Illustrator 18.1.1, SVG Export Plug-In . SVG Version: 6.00 Build 0)  -->

<svg
   xmlns:dc="http://purl.org/dc/elements/1.1/"
   xmlns:cc="http://creativecommons.org/ns#"
   xmlns:rdf="http://www.w3.org/1999/02/22-rdf-syntax-ns#"
   xmlns:svg="http://www.w3.org/2000/svg"
   xmlns="http://www.w3.org/2000/svg"
   xmlns:sodipodi="http://sodipodi.sourceforge.net/DTD/sodipodi-0.dtd"
   xmlns:inkscape="http://www.inkscape.org/namespaces/inkscape"
   version="1.1"
   id="Layer_1"
   x="0px"
   y="0px"
   width="32px"
   height="32px"
   viewBox="0 0 32 32"
   enable-background="new 0 0 32 32"
   xml:space="preserve"
   sodipodi:docname="icons-youtube.svg"
   inkscape:version="0.92.2 5c3e80d, 2017-08-06"><metadata
     id="metadata9"><rdf:RDF><cc:Work
         rdf:about=""><dc:format>image/svg+xml</dc:format><dc:type
           rdf:resource="http://purl.org/dc/dcmitype/StillImage" /><dc:title></dc:title></cc:Work></rdf:RDF></metadata><defs
     id="defs7" /><sodipodi:namedview
     pagecolor="#ffffff"
     bordercolor="#666666"
     borderopacity="1"
     objecttolerance="10"
     gridtolerance="10"
     guidetolerance="10"
     inkscape:pageopacity="0"
     inkscape:pageshadow="2"
     inkscape:window-width="1114"
     inkscape:window-height="708"
     id="namedview5"
     showgrid="false"
     inkscape:zoom="8"
     inkscape:cx="2.8287823"
     inkscape:cy="7.2242989"
     inkscape:window-x="147"
     inkscape:window-y="45"
     inkscape:window-maximized="0"
     inkscape:current-layer="Layer_1" /><path
     inkscape:connector-curvature="0"
     d="M 31.358929,7.952184 C 31.032143,6.478641 29.942857,5.3451456 28.526786,5.0050971 26.021429,4.325 16,4.325 16,4.325 c 0,0 -10.0214286,0 -12.5267857,0.6800971 C 2.1660714,5.3451456 1.0767857,6.478641 0.6410714,7.952184 -0.0125,10.559223 -0.0125,16 -0.0125,16 c 0,0 0,5.440777 0.6546607,8.047816 0.3256964,1.473543 1.4149822,2.607038 2.8310536,2.947087 C 5.9785714,27.675 16,27.675 16,27.675 c 0,0 10.021429,0 12.526786,-0.680097 1.416071,-0.340049 2.505357,-1.473544 2.832143,-2.948221 C 32.0125,21.440777 32.0125,16 32.0125,16 c 0,0 0,-5.440777 -0.653571,-8.047816 z M 11.80625,20.987379 V 11.012621 L 20.19375,16 Z"
     id="path11"
     style="stroke-width:1.11117053" /></svg>