<?xml version="1.0" encoding="utf-8"?>
<!-- Generator: Adobe Illustrator 16.0.0, SVG Export Plug-In . SVG Version: 6.00 Build 0)  -->
<!DOCTYPE svg PUBLIC "-//W3C//DTD SVG 1.1//EN" "http://www.w3.org/Graphics/SVG/1.1/DTD/svg11.dtd">
<svg version="1.1" id="Layer_1" xmlns="http://www.w3.org/2000/svg" xmlns:xlink="http://www.w3.org/1999/xlink" x="0px" y="0px"
	 width="32px" height="32px" viewBox="0 0 32 32" enable-background="new 0 0 32 32" xml:space="preserve">
<path d="M30.1,8.9c-0.3-1.3-1.3-2.3-2.6-2.6C25.2,5.7,16,5.7,16,5.7s-9.2,0-11.5,0.6C3.3,6.6,2.3,7.6,1.9,8.9
	C1.3,11.2,1.3,16,1.3,16s0,4.8,0.601,7.1C2.2,24.4,3.2,25.4,4.5,25.7C6.8,26.3,16,26.3,16,26.3s9.2,0,11.5-0.6
	c1.3-0.3,2.3-1.3,2.6-2.601C30.7,20.8,30.7,16,30.7,16S30.7,11.2,30.1,8.9z M12.15,20.4v-8.8l7.7,4.4L12.15,20.4z"/>
</svg>
