<?xml version="1.0" encoding="utf-8"?>
<!-- Generator: Adobe Illustrator 16.0.0, SVG Export Plug-In . SVG Version: 6.00 Build 0)  -->
<!DOCTYPE svg PUBLIC "-//W3C//DTD SVG 1.1//EN" "http://www.w3.org/Graphics/SVG/1.1/DTD/svg11.dtd">
<svg version="1.1" id="Layer_1" xmlns:figma="http://www.figma.com/figma/ns"
	 xmlns="http://www.w3.org/2000/svg" xmlns:xlink="http://www.w3.org/1999/xlink" x="0px" y="0px" width="5442.5px" height="1440px"
	 viewBox="0 0 5442.5 1440" enable-background="new 0 0 5442.5 1440" xml:space="preserve">
<title>Logo</title>
<g>
	<path d="M4920.736,255.235c22.413,0,41.53-17.359,41.53-38.234c0-20.874-19.117-38.233-41.53-38.233
		c-23.29,0-41.528,17.359-41.528,38.233C4879.427,237.876,4897.665,255.235,4920.736,255.235L4920.736,255.235z"/>
	<path d="M4833.065,348.84c22.412,0,41.527-16.48,41.527-38.234c0-20.874-19.115-38.231-41.527-38.231
		c-23.293,0-41.53,17.357-41.53,38.231C4791.535,332.36,4809.772,348.84,4833.065,348.84L4833.065,348.84z"/>
	<path d="M5108.169,128.45c23.289,0,42.186-16.479,42.186-38.234c0-20.875-19.115-38.232-42.186-38.232
		c-22.414,0-41.531,17.357-41.531,38.232C5066.638,111.971,5085.755,128.45,5108.169,128.45L5108.169,128.45z"/>
	<path d="M5171.89,218.759c22.412,0,41.529-17.357,41.529-38.232c0-21.754-19.117-39.114-41.529-39.114
		c-23.293,0-41.529,17.359-41.529,39.114C5130.36,201.401,5148.597,218.759,5171.89,218.759L5171.89,218.759z"/>
	<path d="M5224.187,378.943c23.07,0,42.188-17.359,42.188-38.234c0-21.752-19.117-38.231-42.188-38.231
		c-22.414,0-41.531,16.479-41.531,38.231C5182.876,361.365,5201.772,378.943,5224.187,378.943L5224.187,378.943z"/>
	<path d="M5142.228,451.895c23.289,0,41.527-17.36,41.527-38.234c0-20.874-18.238-38.234-41.527-38.234
		c-23.293,0-41.531,17.36-41.531,38.234C5100.696,434.316,5118.935,451.895,5142.228,451.895L5142.228,451.895z"/>
	<path d="M4707.598,543.083c23.071,0,41.53-17.36,41.53-38.234c0-21.754-18.238-38.893-41.53-38.893
		c-22.411-0.219-41.528,17.138-41.528,38.674C4666.51,525.723,4685.405,543.083,4707.598,543.083L4707.598,543.083z"/>
	<path d="M4912.608,422.01c23.071,0,41.527-17.357,41.527-38.232c0-21.754-18.237-39.114-41.527-39.114
		c-22.414,0-41.53,17.359-41.53,39.114C4871.078,404.431,4889.974,422.01,4912.608,422.01L4912.608,422.01z"/>
	<path fill="#CC0033" d="M5051.038,231.284c22.41,0,41.527-17.36,41.527-38.893c0-20.875-19.117-38.232-41.527-38.232
		c-23.293,0-42.188,17.357-42.188,38.232C5008.628,213.924,5027.745,231.284,5051.038,231.284L5051.038,231.284z"/>
	<path d="M4752.643,449.257c22.413,0,41.53-17.359,41.53-38.234s-19.117-38.232-41.53-38.232c-23.291,0-42.187,17.357-42.187,38.232
		C4710.235,431.897,4729.352,449.257,4752.643,449.257L4752.643,449.257z"/>
	<path d="M5268.79,506.606c22.414,0,41.531-17.357,41.531-39.112c0-20.874-19.117-38.234-41.531-38.234
		c-23.289,0-42.188,17.36-42.188,38.234C5226.823,489.027,5245.72,506.606,5268.79,506.606L5268.79,506.606z"/>
	<path d="M5114.761,329.943c23.291,0,41.527-17.359,41.527-38.233c0-21.754-18.236-38.234-41.527-38.234
		c-23.293,0-41.531,16.48-41.531,38.234C5073.229,312.365,5091.468,329.943,5114.761,329.943L5114.761,329.943z"/>
	<path d="M4982.922,339.832c23.29,0,41.528-16.48,41.528-38.234c0-20.875-18.238-38.234-41.528-38.234
		c-22.413,0-41.53,17.36-41.53,38.234C4941.61,323.352,4960.728,339.832,4982.922,339.832L4982.922,339.832z"/>
	<path d="M4978.965,149.983c23.293,0,41.53-16.479,41.53-38.234c0-20.875-18.237-38.232-41.53-38.232
		c-23.29,0-41.528,17.357-41.528,38.232C4937.216,133.504,4955.456,149.983,4978.965,149.983L4978.965,149.983z"/>
	<path d="M5278.679,287.534c23.291,0,41.529-17.357,41.529-38.891c0-20.875-18.238-38.234-41.529-38.234
		c-22.414,0-41.529,17.36-41.529,38.234C5237.37,270.396,5256.487,287.534,5278.679,287.534L5278.679,287.534z"/>
	<path d="M4706.938,335.875c23.293,0,42.189-17.357,42.189-38.232c0-21.754-19.117-39.111-42.189-39.111
		c-22.412,0-41.527,17.357-41.527,39.111C4665.63,318.296,4684.747,335.875,4706.938,335.875L4706.938,335.875z"/>
	<path d="M5334.271,402.015c23.293,0,41.529-16.479,41.529-38.233c0-20.875-18.236-38.232-41.529-38.232
		c-23.291,0-41.529,17.357-41.529,38.232C5292.962,385.535,5311.198,402.015,5334.271,402.015L5334.271,402.015z"/>
	<path d="M4804.719,229.526c23.293,0,41.53-17.359,41.53-38.234c0-21.752-18.237-38.231-41.53-38.231
		c-23.071,0-41.528,16.479-41.528,38.231C4763.19,212.167,4781.647,229.526,4804.719,229.526L4804.719,229.526z"/>
	<path d="M4828.89,1379.816c51.418,3.296,68.775,0.878,112.721-11.646c39.992,38.891,37.354,9.889,43.947,2.636
		c33.18,7.253,39.99,19.775,91.188,14.063c-12.523-26.587-58.887-13.402-52.955-101.956c3.297-48.12,17.361-91.188,17.361-141.727
		c9.887-120.412-46.365-185.891,9.887-265.213c78.004-92.068,72.949-115.14,127.662-199.736c9.889-14.941-15.6,0-15.6-4.176
		c5.713-31.64,32.299-111.183,6.592-122.828c-14.062-5.714-4.834,81.301-19.775,107.01c-11.646,21.752-17.359,2.635-18.238,10.765
		c-6.594,67.239-87.014,199.736-145.682,217.973c-27.467,8.35,87.014,272.686-43.068,417.049
		c-19.115,21.754-50.539,43.946-78.664,58.229L4828.89,1379.816z"/>
	<path d="M4971.495,648.332c9.889-45.703-21.754-145.899-23.293-180.619c-1.535-35.595,5.715,4.835,37.355-8.349
		c19.775-9.229,15.602-83.058,49.879-93.826c19.117-5.712-33.838,147.441-38.893,227.861c-1.537,33.84,8.352,257.965,7.252,259.723
		c-30.762,33.839-26.588-25.709-27.466-46.362l-3.296-88.772c-1.539-32.301-43.068-53.834-68.777-70.533
		c-33.838-20.875-48.12-38.234-72.072-60.426c-14.94-14.063-25.708-15.602-20.873-24.831c16.479-30.762-37.355-48.341-24.83-58.229
		c13.402-10.766,30.763,29.005,33.838-31.64c3.295-60.426,14.941,62.183,18.236,77.124
		C4851.961,600.212,4963.805,683.271,4971.495,648.332L4971.495,648.332z"/>
</g>
</svg>
