<?xml version="1.0" encoding="utf-8"?>
<!-- Generator: Adobe Illustrator 16.0.0, SVG Export Plug-In . SVG Version: 6.00 Build 0)  -->
<!DOCTYPE svg PUBLIC "-//W3C//DTD SVG 1.1//EN" "http://www.w3.org/Graphics/SVG/1.1/DTD/svg11.dtd">
<svg version="1.1" id="Layer_1" xmlns:figma="http://www.figma.com/figma/ns"
	 xmlns="http://www.w3.org/2000/svg" xmlns:xlink="http://www.w3.org/1999/xlink" x="0px" y="0px" width="3401.6px" height="1120px"
	 viewBox="0 0 3401.6 1120" enable-background="new 0 0 3401.6 1120" xml:space="preserve">
<rect x="0" fill="#FFFFFF" width="3401.6" height="1120"/>
<title>Logo</title>
<g>
	<g>
		<path d="M642.39,856.258c-41.128,0-60.142-29.393-60.142-61.017v-120.77h-25.123v-33.757h25.123v-66.643h44.137v66.643h42.391
			v33.757h-42.391v118.636c0,16.006,7.76,25.513,24.251,25.513h18.14v37.638H642.39L642.39,856.258z"/>
		<path d="M756.178,759.35c0,37.64,19.886,61.502,55.777,61.502c24.637,0,37.637-6.888,53.253-22.506l28.131,26.385
			c-22.505,22.506-43.652,34.146-82.163,34.146c-54.903,0-98.651-29.005-98.651-112.525c0-71.007,36.764-112.137,93.026-112.137
			c58.881,0,93.027,43.266,93.027,105.638v19.497H756.178L756.178,759.35z M848.817,698.723
			c-6.889-16.49-22.505-27.743-43.265-27.743c-20.757,0-36.763,11.253-43.652,27.743c-4.365,9.993-5.237,16.49-5.626,29.879h98.653
			C854.443,715.117,853.084,708.715,848.817,698.723z"/>
		<path d="M1090.647,856.258v-133.77c0-34.144-19.5-48.889-44.137-48.889c-24.639,0-45.398,15.133-45.398,48.889v133.77h-44.137
			V636.834h43.264v22.117c15.132-16.491,36.376-24.638,58.396-24.638c22.503,0,41.128,7.372,54.029,19.886
			c16.879,16.49,22.021,37.248,22.021,61.889v140.17H1090.647L1090.647,856.258z"/>
		<path d="M1235.085,759.35c0,37.64,19.886,61.502,55.777,61.502c24.639,0,37.639-6.888,53.255-22.506l28.131,26.385
			c-22.505,22.506-43.651,34.146-82.162,34.146c-54.904,0-98.653-29.005-98.653-112.525c0-71.007,36.765-112.138,93.027-112.138
			c58.881,0,93.027,43.265,93.027,105.638v19.498H1235.085L1235.085,759.35z M1327.723,698.723
			c-6.887-16.49-22.503-27.743-43.263-27.743c-20.76,0-36.765,11.253-43.652,27.743c-4.365,9.993-5.239,16.49-5.626,29.879h98.651
			C1333.351,715.117,1331.993,708.715,1327.723,698.723z"/>
		<path d="M1702.742,856.258v-133.77c0-34.144-19.5-48.889-44.137-48.889c-23.766,0-45.397,15.133-45.397,46.756v135.902h-44.137
			v-133.77c0-34.144-19.5-48.889-44.137-48.889c-24.639,0-45.399,15.133-45.399,48.889v133.77h-44.137V636.834h43.266v22.117
			c14.743-16.006,36.376-24.638,58.395-24.638c27.26,0,48.405,10.864,62.276,32.011c17.752-21.631,39.772-32.011,68.776-32.011
			c22.503,0,42.389,7.372,55.389,19.886c16.879,16.49,23.379,37.248,23.379,61.889v140.17H1702.742L1702.742,856.258z"/>
		<path d="M1961.452,832.88c-14.26,14.743-35.892,25.997-65.771,25.997c-29.878,0-51.024-11.254-65.284-25.997
			c-20.759-21.634-25.996-49.376-25.996-86.528c0-36.765,5.236-64.508,25.996-86.139c14.26-14.745,35.504-25.999,65.284-25.999
			c29.879,0,51.511,11.254,65.771,25.999c20.757,21.631,25.996,49.373,25.996,86.139
			C1987.448,783.504,1982.21,811.247,1961.452,832.88z M1928.178,686.111c-8.245-8.244-19.497-12.512-32.397-12.512
			c-12.999,0-23.767,4.365-32.012,12.512c-13.389,13.389-15.134,36.377-15.134,60.143c0,23.767,1.747,46.757,15.134,60.143
			c8.245,8.246,19.013,13,32.012,13c12.996,0,24.25-4.754,32.397-13c13.388-13.386,15.134-36.376,15.134-60.143
			C1943.312,722.488,1941.566,699.596,1928.178,686.111z"/>
		<path d="M2118.114,858.877c-35.892,0-66.157-6.015-92.154-31.625l29.004-29.003c17.752,18.14,41.518,22.893,63.15,22.893
			c26.869,0,48.017-9.507,48.017-30.265c0-14.744-8.245-24.252-29.393-25.998l-35.019-3.006
			c-41.13-3.494-64.896-22.117-64.896-60.628c0-42.876,36.765-67.127,82.648-67.127c32.883,0,61.014,6.888,81.288,24.64
			l-27.646,28.131c-13.87-11.641-33.271-16.006-54.03-16.006c-26.385,0-39.771,11.641-39.771,28.131
			c0,12.998,6.888,22.893,30.265,25.123l34.632,3.009c41.128,3.491,65.282,22.893,65.282,61.888
			C2209.394,835.014,2170.399,858.877,2118.114,858.877z"/>
	</g>
	<g>
		<path d="M620.079,1046.191c-22.503,0-38.703-15.423-38.703-37.638v-74.499h11.834v73.625c0,16.879,10.572,27.938,26.868,27.938
			c16.2,0,26.969-11.06,26.969-27.938v-73.625h11.833v74.499C658.98,1030.768,642.586,1046.191,620.079,1046.191z"/>
		<path d="M906.436,1045.318l-25.317-49.375h-26.676v49.375h-11.834V934.055h42.585c19.401,0,32.981,11.737,32.981,30.943
			c0,16.298-9.799,26.869-24.251,29.879l26.383,50.441H906.436L906.436,1045.318z M884.125,944.725h-29.683v40.742h29.683
			c12.999,0,22.214-6.693,22.214-20.274S897.124,944.725,884.125,944.725z"/>
		<path d="M1135.269,1046.191c-22.505,0-38.705-15.423-38.705-37.638v-74.499h11.834v73.625c0,16.879,10.574,27.938,26.87,27.938
			c16.297,0,27.063-11.06,27.063-27.938v-73.625h11.834v74.499C1174.167,1030.768,1157.774,1046.191,1135.269,1046.191z"/>
		<path d="M1422.11,1033.387c-7.76,8.439-18.239,12.805-29.685,12.805c-10.961,0-20.952-4.074-28.422-11.543
			c-10.476-10.478-10.476-21.439-10.476-45.01s0-34.534,10.476-45.01c7.47-7.47,17.363-11.543,28.422-11.543
			c21.244,0,35.601,13.773,38.9,33.273h-11.835c-3.104-14.066-13.095-22.7-26.967-22.7c-7.374,0-14.358,3.009-19.208,7.954
			c-6.982,7.18-7.76,14.648-7.76,37.929c0,23.282,0.778,30.944,7.76,38.124c4.85,5.043,11.834,7.857,19.208,7.857
			c8.147,0,15.907-3.299,21.048-9.506c4.559-5.434,6.208-11.545,6.208-20.178V997.4h-27.355v-10.476h39.19v17.653
			C1431.616,1017.479,1428.997,1026.111,1422.11,1033.387z"/>
		<path d="M1649.487,1046.191c-22.505,0-38.704-15.423-38.704-37.638v-74.499h11.834v73.625c0,16.879,10.574,27.938,26.87,27.938
			c16.2,0,27.064-11.06,27.064-27.938v-73.625h11.833v74.499C1688.386,1030.768,1671.991,1046.191,1649.487,1046.191z"/>
		<path d="M1936.813,1045.318l-8.925-25.125h-48.599l-8.925,25.125h-12.61l40.937-111.264h9.99l40.742,111.264H1936.813z
			 M1903.831,951.127l-20.953,58.786h41.518L1903.831,951.127z"/>
		<path d="M2150.61,999.338v45.98h-11.834v-45.98l-33.079-65.283h12.803l26.191,53.254l25.901-53.254h12.802L2150.61,999.338z"/>
	</g>
	<g>
		<path fill="#CC0033" d="M2283.894,1046.094v-437.1h279.272v59.561h-212.924v127.754h181.689v58.979h-181.689v131.44h212.924
			v59.562h-279.272V1046.094z"/>
		<path fill="#CC0033" d="M2659.396,1046.094v-437.1h66.254v377.637h210.499v59.559h-276.753V1046.094z"/>
		<path fill="#CC0033" d="M3268.774,1046.094l-30.071-87.788h-172.475l-30.07,87.788h-70.618l160.153-437.196h53.352
			l160.155,437.196H3268.774z M3154.019,707.842l-68.098,194.008h134.351L3154.019,707.842z"/>
	</g>
	<g>
		<path fill="#D7003F" d="M320.658,172.306c0-13.401,10.858-24.258,24.258-24.258c13.399,0,24.258,10.856,24.258,24.258
			s-10.859,24.257-24.258,24.257C331.516,196.562,320.658,185.707,320.658,172.306z"/>
		<path d="M450.773,380.79c-1.197,6.929,1.784,33.271-1.197,48.723c-2.96,15.452-12.28,37.221-16.646,43.959
			c-4.347,6.738-8.313-7.117-9.508-3.568c-1.196,3.568,5.749,11.295,2.372,24.959c-3.361,13.667-14.462,40.2-22.587,57.038
			c-8.124,16.833-17.044,31.696-26.157,43.978c-9.11,12.26-20.802,22.168-28.527,29.706c-7.743,7.515-12.697,12.466-17.842,15.446
			c-5.161,2.963-9.3,2.792-13.076,2.373c-3.796-0.416-7.841-5.465-9.624-4.879c-1.783,0.609-2.087-7.418-1.083,8.449
			c1.007,15.849,4.159,57.813,7.137,86.74c2.961,28.908,9.701,59.809,10.706,86.744c0.987,26.934-1.593,56.447-4.763,74.858
			c-3.17,18.411-8.315,23.575-14.275,35.645c-5.941,12.093-13.077,25.946-21.39,36.841c-8.333,10.895-18.241,19.607-28.547,28.51
			c-10.306,8.922-24.372,19.021-33.292,24.959c-8.921,5.943-15.259,8.314-20.215,10.705c-4.954,2.373-9.509,3.549-9.509,3.549
			c-2.183,0.607-6.737-0.586-3.567,0c3.168,0.607,13.685,3.57,22.606,3.57c8.901,0,22.757-2.393,30.898-3.57
			c8.145-1.156,17.938-3.432,17.938-3.432c4.556-1.198,5.466-5.262,9.414-3.687c3.948,1.558,10.116,9.891,14.275,13.061
			c4.157,3.169,10.704,5.943,10.704,5.943c2.166,1.192,0.779,2.39,2.373,1.192c1.576-1.192,5.353-4.953,7.136-8.311
			c1.786-3.381-0.395-11.692,3.571-11.886c3.947-0.206,12.468,7.915,20.212,10.688c7.726,2.77,18.431,5.163,26.156,5.943
			c7.725,0.798,16-0.837,20.212-1.179c4.195-0.361,4.973-0.968,4.973-0.968c0.608-0.986,1.803-2.772-1.403-4.972
			c-3.209-2.225-12.698-3.971-17.842-8.334c-5.163-4.349-9.512-11.484-13.078-17.822c-3.57-6.341-7.327-8.312-8.333-20.198
			c-0.986-11.88,0.608-32.073,2.391-51.095c1.785-19.018,6.74-44.562,8.315-62.979c1.593-18.41,1.783-30.502,1.194-47.525
			c-0.606-17.045-2.768-36.652-4.764-54.665c-1.971-18.033-4.745-38.226-7.135-53.469c-2.373-15.259-11.692-23.386-7.118-38.036
			c4.557-14.654,22.378-32.667,34.47-49.902c12.09-17.234,28.337-36.439,38.055-53.468c9.699-17.046,14.654-36.045,20.214-48.724
			c5.542-12.679,9.3-19.814,13.078-27.333c3.759-7.534,6.929-14.254,9.509-17.821c2.582-3.57,5.942-3.57,5.942-3.57
			c1.594-1.195,4.764-2.58,3.567-3.568c-1.194-0.988-10.705-2.373-10.705-2.373c-2.373-0.987-5.352,3.967-3.569-3.567
			c1.785-7.517,11.294-29.706,14.274-41.588c2.979-11.881,3.569-22.377,3.569-29.706c0-7.324-3.569-14.253-3.569-14.253
			C455.725,384.945,451.948,373.861,450.773,380.79z"/>
		<path d="M338.368,259.843c-2.41,2.603-8.028,15.641-11.389,23.31c-3.359,7.686-6.206,16.248-8.789,22.796
			c-2.581,6.565-4.401,12.772-6.719,16.569c-2.336,3.817-4.404,5.107-7.25,6.226c-2.848,1.12-7.061,0.95-9.831,0.513
			c-2.751-0.436-4.992-2.505-6.72-3.112c-1.725-0.588-1.633-1.025-3.623-0.514c-1.976,0.514-8.183-0.682-8.277,3.626
			c-0.076,4.327,5.599,13.991,7.763,22.283c2.162,8.277,3.625,14.236,5.163,27.447c1.556,13.211,3.284,36.348,4.158,51.798
			c0.854,15.451,2.087,33.406,1.025,40.923c-1.064,7.496-4.878,3.718-7.385,4.157c-2.505,0.419-3.244-0.53-7.61-1.576
			c-4.386-1.043-10.951-0.341-18.621-4.669c-7.685-4.308-19.396-13.799-27.425-21.219c-8.012-7.44-14.655-16.153-20.69-23.31
			c-6.036-7.173-12.241-12.527-15.506-19.681c-3.285-7.177-2.599-16.06-4.138-23.311c-1.558-7.249-3.797-12.868-5.182-20.213
			c-1.385-7.327-1.972-18.811-3.094-23.82c-1.139-5.012-2.848-7.859-3.625-6.207c-0.778,1.631-1.046,10.61-1.046,16.056
			c0,5.429,1.12,12.851,1.046,16.571c-0.097,3.699-0.608,4.574-1.556,5.694c-0.95,1.12-1.974,1.12-4.138,1.043
			c-2.165-0.094-6.644-0.265-8.79-1.555c-2.164-1.311-2.847-5.012-4.137-6.229c-1.29-1.193-2.677-1.461-3.625-1.022
			c-0.95,0.416-2.506,1.898-2.069,3.625c0.438,1.728,1.119,3.529,4.65,6.718c3.532,3.208,12.678,8.979,16.55,12.434
			c3.891,3.455,6.036,5.788,6.738,8.292c0.684,2.507-0.874,4.916-2.6,6.74c-1.727,1.801-8.274,1.119-7.763,4.137
			c0.532,3.018,3.966,6.984,10.877,13.989c6.889,6.985,21.542,20.365,30.52,27.957c8.958,7.611,14.217,11.485,23.271,17.614
			c9.053,6.13,22.244,12.167,31.032,19.172c8.791,6.983,17.597,18.125,21.734,22.795c4.119,4.648,2.43,3.169,3.019,5.143
			c0.607,1.993-0.096-8.18,0.607,6.757c0.703,14.938,0.892,67.041,3.605,82.869c2.716,15.849,9.569,13.06,12.681,12.204
			c3.093-0.87,6.244,3.645,5.94-17.369c-0.285-21.03-6.455-82.109-7.745-108.774c-1.308-26.669-0.607-36.008,0-51.287
			c0.59-15.278,0.949-23.991,3.607-40.391c2.676-16.398,8.543-40.751,12.412-58.025c3.893-17.253,8.2-33.994,10.876-45.572
			c2.677-11.559,4.556-19.075,5.165-23.821C342.07,262.881,340.779,257.263,338.368,259.843z"/>
		<path d="M75.808,396.201c0-10.381,8.467-18.789,18.906-18.789c10.44,0,18.903,8.408,18.903,18.789
			c0,10.383-8.463,18.79-18.903,18.79C84.275,414.991,75.808,406.584,75.808,396.201z"/>
		<path d="M62.6,248.266c0-10.44,8.463-18.903,18.901-18.903c10.44,0,18.907,8.463,18.907,18.903s-8.467,18.906-18.907,18.906
			C71.063,267.173,62.6,258.706,62.6,248.266z"/>
		<path d="M526.106,292.34c0-10.383,8.466-18.792,18.905-18.792s18.904,8.408,18.904,18.792c0,10.382-8.466,18.79-18.904,18.79
			S526.106,302.722,526.106,292.34z"/>
		<path d="M390.811,324.456c0-10.384,8.409-18.792,18.792-18.792s18.792,8.408,18.792,18.792c0,10.382-8.409,18.792-18.792,18.792
			S390.811,334.838,390.811,324.456z"/>
		<circle cx="473.72" cy="281.749" r="18.905"/>
		<path d="M476.679,367.503c0-13.401,10.801-24.256,24.144-24.256c13.344,0,24.145,10.854,24.145,24.256
			c0,13.402-10.801,24.256-24.145,24.256C487.481,391.759,476.679,380.904,476.679,367.503z"/>
		<path d="M484.653,217.404c0-13.401,10.8-24.256,24.143-24.256c13.344,0,24.144,10.855,24.144,24.256s-10.8,24.256-24.144,24.256
			C495.453,241.66,484.653,230.805,484.653,217.404z"/>
		<path d="M131.84,172.306c0-13.401,10.856-24.258,24.258-24.258c13.4,0,24.256,10.856,24.256,24.258s-10.856,24.257-24.256,24.257
			C142.697,196.562,131.84,185.707,131.84,172.306z"/>
		<path d="M79.908,323.999c0-13.4,10.801-24.257,24.145-24.257c13.342,0,24.144,10.857,24.144,24.257
			c0,13.402-10.801,24.256-24.144,24.256C90.709,348.255,79.908,337.401,79.908,323.999z"/>
		<path d="M214.063,308.625c0-10.44,8.468-18.907,18.907-18.907c10.439,0,18.902,8.467,18.902,18.907
			c0,10.44-8.464,18.903-18.902,18.903S214.063,319.066,214.063,308.625z"/>
		<path d="M265.994,244.053c0-11.884,9.643-21.523,21.525-21.523c11.882,0,21.523,9.64,21.523,21.523
			c0,11.883-9.641,21.523-21.523,21.523C275.638,265.576,265.994,255.936,265.994,244.053z"/>
		<path d="M354.368,241.548c0-11.883,9.643-21.525,21.525-21.525c11.882,0,21.524,9.642,21.524,21.525
			c0,11.881-9.642,21.524-21.524,21.524C364.01,263.072,354.368,253.43,354.368,241.548z"/>
		<path d="M130.929,258.516c0-15.603,12.64-28.245,28.241-28.245c15.603,0,28.246,12.642,28.246,28.245
			c0,15.601-12.642,28.243-28.246,28.243C143.57,286.759,130.929,274.117,130.929,258.516z"/>
		<path d="M211.559,184.947c0-15.603,12.639-28.245,28.243-28.245c15.602,0,28.244,12.642,28.244,28.245
			c0,15.601-12.642,28.241-28.244,28.241C224.198,213.188,211.559,200.549,211.559,184.947z"/>
		<path d="M404.249,179.709c0-15.603,12.642-28.245,28.244-28.245c15.603,0,28.245,12.642,28.245,28.245
			c0,15.601-12.642,28.242-28.245,28.242C416.89,207.951,404.249,195.31,404.249,179.709z"/>
		<path d="M356.418,80.628c0-15.601,12.641-28.243,28.245-28.243c15.601,0,28.243,12.642,28.243,28.243
			c0,15.603-12.642,28.245-28.243,28.245C369.059,108.873,356.418,96.231,356.418,80.628z"/>
		<path d="M255.972,101.585c0-15.602,12.642-28.244,28.245-28.244c15.602,0,28.242,12.642,28.242,28.244
			c0,15.601-12.64,28.242-28.242,28.242C268.615,129.826,255.972,117.186,255.972,101.585z"/>
	</g>
</g>
</svg>
