<?xml version="1.0" encoding="utf-8"?>
<!-- Generator: Adobe Illustrator 16.0.0, SVG Export Plug-In . SVG Version: 6.00 Build 0)  -->
<!DOCTYPE svg PUBLIC "-//W3C//DTD SVG 1.1//EN" "http://www.w3.org/Graphics/SVG/1.1/DTD/svg11.dtd">
<svg version="1.1" id="Layer_1" xmlns:figma="http://www.figma.com/figma/ns"
	 xmlns="http://www.w3.org/2000/svg" xmlns:xlink="http://www.w3.org/1999/xlink" x="0px" y="0px" width="3401.6px" height="1120px"
	 viewBox="0 0 3401.6 1120" enable-background="new 0 0 3401.6 1120" xml:space="preserve">
<rect x="0" fill="#FFFFFF" width="3401.6" height="1120"/>
<title>Logo</title>
<g>
	<path d="M606.699,869c-42.399,0-62-30.3-62-62.9V681.6H518.8v-34.8h25.899v-68.7h45.5v68.7h43.7v34.8h-43.7V803.9
		c0,16.5,8,26.3,25,26.3h18.7V869H606.699L606.699,869z"/>
	<path d="M724,769.1c0,38.801,20.5,63.4,57.5,63.4c25.399,0,38.8-7.1,54.899-23.2l29,27.2c-23.2,23.2-45,35.2-84.7,35.2
		C724.1,871.7,679,841.8,679,755.7C679,682.5,716.9,640.1,774.9,640.1c60.7,0,95.9,44.601,95.9,108.9v20.1H724L724,769.1z
		 M819.5,706.6c-7.101-17-23.2-28.6-44.601-28.6c-21.399,0-37.899,11.6-45,28.6c-4.5,10.301-5.399,17-5.8,30.801h101.7
		C825.3,723.5,823.9,716.9,819.5,706.6z"/>
	<path d="M1068.8,869V731.1c0-35.199-20.101-50.399-45.5-50.399c-25.4,0-46.8,15.6-46.8,50.399V869H931V642.8h44.6v22.8
		c15.6-17,37.5-25.399,60.2-25.399c23.199,0,42.399,7.6,55.699,20.5c17.4,17,22.7,38.399,22.7,63.8V869H1068.8L1068.8,869z"/>
	<path d="M1217.699,769.1c0,38.801,20.5,63.4,57.5,63.4c25.4,0,38.801-7.1,54.9-23.2l29,27.2c-23.2,23.2-45,35.2-84.7,35.2
		c-56.6,0-101.7-29.9-101.7-116c0-73.2,37.9-115.601,95.9-115.601c60.7,0,95.9,44.601,95.9,108.9v20.1H1217.699L1217.699,769.1z
		 M1313.199,706.6c-7.1-17-23.199-28.6-44.6-28.6s-37.9,11.6-45,28.6c-4.5,10.301-5.4,17-5.8,30.801h101.699
		C1319,723.5,1317.6,716.9,1313.199,706.6z"/>
	<path d="M1699.8,869V731.1c0-35.199-20.101-50.399-45.5-50.399c-24.5,0-46.8,15.6-46.8,48.2V869H1562V731.1
		c0-35.199-20.101-50.399-45.5-50.399c-25.4,0-46.801,15.6-46.801,50.399V869h-45.5V642.8h44.601v22.8
		c15.199-16.5,37.5-25.399,60.199-25.399c28.101,0,49.9,11.2,64.2,33c18.3-22.3,41-33,70.9-33c23.199,0,43.699,7.6,57.1,20.5
		c17.4,17,24.1,38.399,24.1,63.8V869H1699.8L1699.8,869z"/>
	<path d="M1966.5,844.9c-14.7,15.199-37,26.8-67.801,26.8c-30.8,0-52.6-11.601-67.3-26.8c-21.4-22.301-26.8-50.9-26.8-89.2
		c0-37.9,5.399-66.5,26.8-88.8c14.7-15.2,36.6-26.801,67.3-26.801c30.801,0,53.101,11.601,67.801,26.801
		c21.399,22.3,26.8,50.899,26.8,88.8C1993.3,794,1987.9,822.6,1966.5,844.9z M1932.199,693.6c-8.5-8.5-20.1-12.899-33.399-12.899
		c-13.4,0-24.5,4.5-33,12.899c-13.801,13.801-15.601,37.5-15.601,62s1.801,48.2,15.601,62c8.5,8.5,19.6,13.4,33,13.4
		c13.399,0,25-4.9,33.399-13.4c13.801-13.8,15.601-37.5,15.601-62S1946,707.5,1932.199,693.6z"/>
	<path d="M2128,871.7c-37,0-68.2-6.2-95-32.601L2062.9,809.2c18.3,18.7,42.8,23.6,65.101,23.6c27.699,0,49.5-9.8,49.5-31.2
		c0-15.199-8.5-25-30.301-26.8l-36.1-3.1c-42.4-3.601-66.9-22.8-66.9-62.5c0-44.2,37.9-69.2,85.2-69.2
		c33.899,0,62.899,7.1,83.8,25.4l-28.5,29c-14.3-12-34.3-16.5-55.699-16.5c-27.2,0-41,12-41,29c0,13.399,7.1,23.6,31.199,25.899
		l35.7,3.101c42.399,3.6,67.3,23.6,67.3,63.8C2222.1,847.1,2181.9,871.7,2128,871.7z"/>
</g>
<g>
	<path d="M583.699,1064.8c-23.199,0-39.899-15.899-39.899-38.8v-76.8H556v75.899c0,17.4,10.899,28.801,27.699,28.801
		c16.7,0,27.801-11.4,27.801-28.801V949.2h12.199v76.8C623.8,1048.9,606.9,1064.8,583.699,1064.8z"/>
	<path d="M878.9,1063.9l-26.1-50.9h-27.5v50.9h-12.2V949.2H857c20,0,34,12.1,34,31.899c0,16.801-10.101,27.7-25,30.801l27.199,52
		H878.9L878.9,1063.9z M855.9,960.2h-30.6v42h30.6c13.4,0,22.9-6.9,22.9-20.9S869.3,960.2,855.9,960.2z"/>
	<path d="M1114.8,1064.8c-23.2,0-39.9-15.899-39.9-38.8v-76.8h12.2v75.899c0,17.4,10.9,28.801,27.7,28.801
		s27.899-11.4,27.899-28.801V949.2h12.2v76.8C1154.9,1048.9,1138,1064.8,1114.8,1064.8z"/>
	<path d="M1410.5,1051.6c-8,8.7-18.801,13.2-30.601,13.2c-11.3,0-21.6-4.2-29.3-11.899c-10.8-10.801-10.8-22.101-10.8-46.4
		s0-35.6,10.8-46.4c7.7-7.7,17.9-11.899,29.3-11.899c21.9,0,36.7,14.199,40.101,34.3h-12.2c-3.2-14.5-13.5-23.4-27.8-23.4
		c-7.601,0-14.801,3.101-19.801,8.2c-7.199,7.4-8,15.1-8,39.1s0.801,31.9,8,39.301c5,5.199,12.2,8.1,19.801,8.1
		c8.399,0,16.399-3.4,21.699-9.8c4.7-5.601,6.4-11.9,6.4-20.8v-8.7h-28.2v-10.8h40.4v18.199
		C1420.3,1035.2,1417.6,1044.1,1410.5,1051.6z"/>
	<path d="M1644.9,1064.8c-23.2,0-39.899-15.899-39.899-38.8v-76.8h12.199v75.899c0,17.4,10.9,28.801,27.7,28.801
		c16.7,0,27.9-11.4,27.9-28.801V949.2h12.199v76.8C1685,1048.9,1668.1,1064.8,1644.9,1064.8z"/>
	<path d="M1941.1,1063.9l-9.2-25.9h-50.1l-9.2,25.9h-13l42.2-114.7h10.3l42,114.7H1941.1z M1907.1,966.8l-21.6,60.601h42.8
		L1907.1,966.8z"/>
	<path d="M2161.5,1016.5v47.4h-12.2v-47.4l-34.101-67.3h13.2l27,54.899l26.7-54.899h13.199L2161.5,1016.5z"/>
</g>
<g>
	<path fill="#CC0033" d="M2298.9,1064.7V614.1h287.899v61.4h-219.5v131.7H2554.6V868h-187.301v135.5h219.5v61.4H2298.9V1064.7z"/>
	<path fill="#CC0033" d="M2686,1064.7V614.1h68.3V1003.4h217v61.399H2686V1064.7z"/>
	<path fill="#CC0033" d="M3314.199,1064.7l-31-90.5h-177.8l-31,90.5h-72.8l165.1-450.7h55l165.101,450.7H3314.199z M3195.9,716
		l-70.2,200h138.5L3195.9,716z"/>
</g>
<g>
	<path fill-rule="evenodd" clip-rule="evenodd" fill="#D7003F" d="M275.03,163.924c0-13.815,11.193-25.007,25.007-25.007
		c13.813,0,25.007,11.192,25.007,25.007c0,13.815-11.194,25.006-25.007,25.006C286.223,188.93,275.03,177.739,275.03,163.924z"/>
	<path fill-rule="evenodd" clip-rule="evenodd" d="M409.163,378.847c-1.235,7.143,1.838,34.299-1.235,50.228
		c-3.052,15.929-12.659,38.37-17.159,45.317c-4.481,6.946-8.57-7.337-9.802-3.678c-1.233,3.678,5.927,11.643,2.446,25.729
		c-3.465,14.089-14.91,41.442-23.286,58.8c-8.375,17.354-17.57,32.675-26.964,45.337c-9.392,12.638-21.445,22.853-29.409,30.623
		c-7.981,7.746-13.089,12.852-18.392,15.924c-5.321,3.055-9.587,2.878-13.48,2.446c-3.914-0.428-8.083-5.633-9.921-5.029
		c-1.838,0.627-2.151-7.647-1.116,8.71c1.038,16.338,4.287,59.599,7.357,89.419c3.053,29.801,10,61.655,11.037,89.423
		c1.017,27.765-1.643,58.191-4.911,77.171c-3.268,18.979-8.572,24.303-14.715,36.745c-6.125,12.466-13.481,26.748-22.051,37.979
		c-8.59,11.231-18.805,20.212-29.429,29.39c-10.624,9.197-25.124,19.608-34.32,25.73c-9.197,6.126-15.731,8.572-20.839,11.036
		c-5.108,2.446-9.803,3.658-9.803,3.658c-2.25,0.627-6.945-0.604-3.678,0c3.267,0.627,14.108,3.68,23.305,3.68
		c9.176,0,23.46-2.465,31.853-3.68c8.396-1.192,18.491-3.538,18.491-3.538c4.697-1.235,5.635-5.424,9.705-3.8
		c4.07,1.605,10.429,10.196,14.716,13.464c4.285,3.267,11.034,6.127,11.034,6.127c2.232,1.229,0.803,2.464,2.446,1.229
		c1.625-1.229,5.519-5.105,7.357-8.567c1.84-3.485-0.408-12.054,3.681-12.253c4.07-0.213,12.854,8.16,20.837,11.018
		c7.965,2.855,19,5.323,26.964,6.127c7.964,0.822,16.494-0.864,20.837-1.215c4.324-0.372,5.126-0.998,5.126-0.998
		c0.627-1.017,1.86-2.858-1.446-5.125c-3.309-2.293-13.091-4.093-18.394-8.591c-5.322-4.483-9.805-11.84-13.481-18.374
		c-3.681-6.536-7.554-8.569-8.591-20.821c-1.017-12.248,0.627-33.065,2.465-52.673c1.84-19.605,6.948-45.94,8.572-64.924
		c1.643-18.979,1.838-31.443,1.231-48.993c-0.625-17.572-2.854-37.784-4.911-56.354c-2.033-18.59-4.892-39.406-7.356-55.12
		c-2.446-15.729-12.054-24.107-7.338-39.211c4.697-15.106,23.07-33.676,35.534-51.443c12.464-17.767,29.212-37.566,39.231-55.119
		c9.999-17.573,15.106-37.159,20.839-50.229c5.713-13.07,9.587-20.427,13.481-28.177c3.875-7.766,7.143-14.694,9.803-18.371
		c2.662-3.68,6.126-3.68,6.126-3.68c1.643-1.233,4.911-2.661,3.678-3.679c-1.232-1.019-11.036-2.446-11.036-2.446
		c-2.446-1.018-5.517,4.089-3.679-3.678c1.84-7.749,11.643-30.623,14.715-42.872c3.071-12.248,3.679-23.069,3.679-30.623
		c0-7.551-3.679-14.694-3.679-14.694C414.268,383.131,410.374,371.704,409.163,378.847z"/>
	<path fill-rule="evenodd" clip-rule="evenodd" d="M293.286,254.165c-2.484,2.683-8.276,16.124-11.74,24.03
		c-3.463,7.923-6.397,16.749-9.06,23.5c-2.662,6.768-4.538,13.167-6.927,17.081c-2.408,3.935-4.54,5.265-7.475,6.418
		c-2.935,1.154-7.278,0.979-10.135,0.528c-2.835-0.449-5.146-2.583-6.927-3.208c-1.779-0.606-1.684-1.057-3.735-0.529
		c-2.037,0.529-8.435-0.703-8.533,3.738c-0.078,4.461,5.773,14.423,8.003,22.972c2.229,8.532,3.737,14.675,5.322,28.294
		c1.604,13.619,3.386,37.471,4.286,53.398c0.88,15.928,2.152,34.437,1.057,42.187c-1.097,7.728-5.029,3.833-7.613,4.285
		c-2.583,0.432-3.344-0.547-7.846-1.625c-4.521-1.075-11.289-0.351-19.196-4.813c-7.922-4.442-19.995-14.226-28.272-21.875
		c-8.259-7.67-15.107-16.652-21.329-24.029c-6.222-7.395-12.619-12.914-15.985-20.289c-3.387-7.399-2.679-16.556-4.266-24.031
		c-1.605-7.473-3.914-13.265-5.342-20.837c-1.427-7.553-2.033-19.392-3.189-24.556c-1.174-5.167-2.936-8.102-3.736-6.398
		c-0.803,1.682-1.078,10.938-1.078,16.552c0,5.597,1.154,13.248,1.078,17.083c-0.1,3.814-0.627,4.716-1.605,5.87
		c-0.979,1.154-2.035,1.154-4.265,1.076c-2.232-0.097-6.849-0.273-9.062-1.603c-2.23-1.352-2.935-5.167-4.265-6.421
		c-1.33-1.23-2.759-1.506-3.737-1.054c-0.979,0.429-2.584,1.957-2.133,3.737c0.451,1.781,1.154,3.638,4.794,6.925
		c3.641,3.308,13.07,9.256,17.062,12.818c4.01,3.562,6.221,5.967,6.946,8.548c0.705,2.584-0.9,5.068-2.681,6.948
		c-1.78,1.857-8.529,1.154-8.003,4.265c0.549,3.111,4.089,7.2,11.213,14.421c7.102,7.201,22.208,20.994,31.463,28.821
		c9.235,7.846,14.656,11.839,23.989,18.158c9.333,6.319,22.931,12.543,31.991,19.764c9.062,7.2,18.14,18.686,22.405,23.499
		c4.246,4.792,2.505,3.268,3.111,5.302c0.626,2.055-0.098-8.432,0.626,6.966c0.725,15.399,0.919,69.111,3.717,85.429
		c2.8,16.338,9.864,13.463,13.072,12.58c3.189-0.897,6.437,3.758,6.124-17.904c-0.294-21.681-6.654-84.646-7.984-112.135
		c-1.349-27.493-0.626-37.12,0-52.871c0.608-15.75,0.979-24.732,3.719-41.639c2.759-16.905,8.806-42.01,12.795-59.817
		c4.012-17.786,8.453-35.044,11.212-46.98c2.759-11.916,4.696-19.664,5.324-24.556C297.102,257.297,295.772,251.505,293.286,254.165
		z"/>
	<path fill-rule="evenodd" clip-rule="evenodd" d="M22.616,394.735c0-10.702,8.729-19.37,19.491-19.37
		c10.762,0,19.487,8.668,19.487,19.37c0,10.703-8.725,19.37-19.487,19.37C31.345,414.105,22.616,405.438,22.616,394.735z"/>
	<path fill-rule="evenodd" clip-rule="evenodd" d="M9,242.23c0-10.762,8.725-19.487,19.486-19.487
		c10.762,0,19.491,8.725,19.491,19.487c0,10.762-8.729,19.49-19.491,19.49C17.725,261.721,9,252.992,9,242.23z"/>
	<path fill-rule="evenodd" clip-rule="evenodd" d="M486.823,287.666c0-10.704,8.727-19.372,19.489-19.372
		s19.488,8.668,19.488,19.372c0,10.703-8.727,19.37-19.488,19.37S486.823,298.368,486.823,287.666z"/>
	<path fill-rule="evenodd" clip-rule="evenodd" d="M347.349,320.773c0-10.705,8.669-19.372,19.372-19.372
		s19.372,8.667,19.372,19.372c0,10.703-8.669,19.372-19.372,19.372S347.349,331.476,347.349,320.773z"/>
	<circle fill-rule="evenodd" clip-rule="evenodd" cx="432.819" cy="276.748" r="19.489"/>
	<path fill-rule="evenodd" clip-rule="evenodd" d="M435.87,365.15c0-13.815,11.134-25.005,24.889-25.005
		c13.756,0,24.891,11.189,24.891,25.005s-11.135,25.005-24.891,25.005C447.004,390.155,435.87,378.965,435.87,365.15z"/>
	<path fill-rule="evenodd" clip-rule="evenodd" d="M444.089,210.415c0-13.815,11.134-25.005,24.889-25.005
		c13.756,0,24.89,11.19,24.89,25.005c0,13.815-11.134,25.005-24.89,25.005C455.223,235.42,444.089,224.23,444.089,210.415z"/>
	<path fill-rule="evenodd" clip-rule="evenodd" d="M80.379,163.924c0-13.815,11.192-25.007,25.008-25.007
		c13.813,0,25.005,11.192,25.005,25.007c0,13.815-11.192,25.006-25.005,25.006C91.572,188.93,80.379,177.739,80.379,163.924z"/>
	<path fill-rule="evenodd" clip-rule="evenodd" d="M26.843,320.303c0-13.815,11.135-25.007,24.891-25.007
		c13.754,0,24.889,11.192,24.889,25.007c0,13.815-11.134,25.005-24.889,25.005C37.978,345.308,26.843,334.118,26.843,320.303z"/>
	<path fill-rule="evenodd" clip-rule="evenodd" d="M165.142,304.454c0-10.762,8.729-19.491,19.491-19.491
		s19.486,8.729,19.486,19.491c0,10.763-8.725,19.487-19.486,19.487S165.142,315.217,165.142,304.454z"/>
	<path fill-rule="evenodd" clip-rule="evenodd" d="M218.677,237.887c0-12.251,9.94-22.188,22.19-22.188
		c12.249,0,22.188,9.938,22.188,22.188c0,12.25-9.939,22.188-22.188,22.188C228.618,260.075,218.677,250.137,218.677,237.887z"/>
	<path fill-rule="evenodd" clip-rule="evenodd" d="M309.781,235.305c0-12.25,9.94-22.19,22.19-22.19
		c12.249,0,22.189,9.94,22.189,22.19c0,12.249-9.94,22.189-22.189,22.189C319.72,257.494,309.781,247.554,309.781,235.305z"/>
	<path fill-rule="evenodd" clip-rule="evenodd" d="M79.441,252.797c0-16.085,13.03-29.117,29.113-29.117
		c16.085,0,29.118,13.032,29.118,29.117c0,16.083-13.032,29.115-29.118,29.115C92.471,281.912,79.441,268.88,79.441,252.797z"/>
	<path fill-rule="evenodd" clip-rule="evenodd" d="M162.561,176.956c0-16.085,13.029-29.117,29.115-29.117
		c16.084,0,29.116,13.032,29.116,29.117c0,16.083-13.032,29.113-29.116,29.113C175.59,206.069,162.561,193.04,162.561,176.956z"/>
	<path fill-rule="evenodd" clip-rule="evenodd" d="M361.202,171.556c0-16.085,13.032-29.117,29.116-29.117
		c16.085,0,29.117,13.032,29.117,29.117c0,16.082-13.032,29.114-29.117,29.114C374.234,200.67,361.202,187.638,361.202,171.556z"/>
	<path fill-rule="evenodd" clip-rule="evenodd" d="M311.894,69.415c0-16.083,13.031-29.115,29.117-29.115
		c16.083,0,29.115,13.032,29.115,29.115c0,16.085-13.032,29.117-29.115,29.117C324.925,98.532,311.894,85.5,311.894,69.415z"/>
	<path fill-rule="evenodd" clip-rule="evenodd" d="M208.345,91.019c0-16.084,13.032-29.116,29.117-29.116
		c16.084,0,29.114,13.032,29.114,29.116c0,16.083-13.03,29.114-29.114,29.114C221.378,120.132,208.345,107.102,208.345,91.019z"/>
</g>
</svg>
