<?xml version="1.0" encoding="utf-8"?>
<!-- Generator: Adobe Illustrator 16.0.0, SVG Export Plug-In . SVG Version: 6.00 Build 0)  -->
<!DOCTYPE svg PUBLIC "-//W3C//DTD SVG 1.1//EN" "http://www.w3.org/Graphics/SVG/1.1/DTD/svg11.dtd">
<svg version="1.1" id="Layer_1" xmlns:figma="http://www.figma.com/figma/ns"
	 xmlns="http://www.w3.org/2000/svg" xmlns:xlink="http://www.w3.org/1999/xlink" x="0px" y="0px" width="3433.344px"
	 height="1743.5px" viewBox="0 -303.5 3433.344 1743.5" enable-background="new 0 -303.5 3433.344 1743.5" xml:space="preserve">
<title>Logo</title>
<g>
	<path fill="#D7003F" d="M3047.278,60.978c0-17.962,14.549-32.516,32.515-32.516s32.517,14.554,32.517,32.516
		s-14.551,32.515-32.517,32.515S3047.278,78.94,3047.278,60.978z"/>
	<path d="M3221.683,340.437c-1.604,9.285,2.392,44.602-1.604,65.312c-3.967,20.71-16.459,49.892-22.312,58.925
		c-5.826,9.032-11.146-9.541-12.746-4.783c-1.604,4.783,7.707,15.14,3.183,33.457c-4.504,18.319-19.39,53.889-30.276,76.453
		c-10.892,22.568-22.847,42.489-35.062,58.95c-12.211,16.436-27.881,29.716-38.237,39.818
		c-10.381,10.071-17.021,16.714-23.917,20.709c-6.919,3.971-12.468,3.736-17.531,3.18c-5.088-0.562-10.504-7.326-12.896-6.539
		c-2.394,0.812-2.8-9.945-1.448,11.322c1.348,21.246,5.568,77.497,9.564,116.271c3.967,38.75,13,80.169,14.35,116.272
		c1.324,36.102-2.139,75.666-6.389,100.343c-4.25,24.68-11.143,31.6-19.133,47.781c-7.963,16.207-17.526,34.777-28.672,49.384
		c-11.17,14.604-24.451,26.282-38.267,38.214c-13.815,11.958-32.67,25.494-44.626,33.457c-11.958,7.964-20.455,11.146-27.098,14.352
		c-6.641,3.181-12.746,4.758-12.746,4.758c-2.929,0.812-9.03-0.787-4.783,0c4.248,0.812,18.345,4.783,30.299,4.783
		c11.938,0,30.506-3.205,41.424-4.783c10.912-1.551,24.041-4.604,24.041-4.604c6.105-1.603,7.33-7.049,12.621-4.937
		c5.291,2.087,13.561,13.255,19.133,17.504c5.568,4.248,14.35,7.966,14.35,7.966c2.898,1.603,1.043,3.205,3.182,1.603
		c2.11-1.603,7.176-6.642,9.566-11.144c2.393-4.529-0.536-15.673,4.779-15.929c5.293-0.278,16.717,10.605,27.099,14.322
		c10.354,3.716,24.704,6.923,35.062,7.967c10.354,1.065,21.445-1.121,27.096-1.578c5.623-0.484,6.666-1.299,6.666-1.299
		c0.814-1.322,2.418-3.715-1.881-6.664c-4.301-2.979-17.021-5.319-23.916-11.171c-6.923-5.826-12.746-15.395-17.529-23.893
		c-4.779-8.495-9.818-11.143-11.17-27.069c-1.324-15.928,0.814-42.995,3.209-68.49c2.391-25.492,9.027-59.737,11.142-84.417
		c2.138-24.679,2.394-40.886,1.604-63.707c-0.814-22.847-3.717-49.128-6.388-73.273c-2.647-24.17-6.358-51.238-9.567-71.671
		c-3.181-20.456-15.67-31.346-9.541-50.985c6.106-19.642,29.998-43.784,46.205-66.89c16.207-23.102,37.982-48.85,51.013-71.67
		c13.002-22.849,19.644-48.314,27.099-65.312c7.43-16.994,12.465-26.562,17.527-36.638c5.038-10.1,9.287-19.104,12.745-23.89
		c3.462-4.784,7.966-4.784,7.966-4.784c2.139-1.603,6.387-3.46,4.783-4.783c-1.604-1.321-14.354-3.18-14.354-3.18
		c-3.181-1.323-7.172,5.317-4.78-4.783c2.394-10.074,15.14-39.815,19.133-55.744c3.992-15.927,4.783-29.996,4.783-39.814
		c0-9.82-4.783-19.107-4.783-19.107C3228.323,346.008,3223.261,331.15,3221.683,340.437z"/>
	<path d="M3071.014,178.317c-3.23,3.486-10.766,20.965-15.268,31.244c-4.504,10.303-8.318,21.779-11.78,30.556
		c-3.459,8.803-5.903,17.123-9.006,22.211c-3.129,5.115-5.901,6.844-9.72,8.346c-3.814,1.5-9.465,1.272-13.182,0.688
		c-3.688-0.585-6.689-3.359-9.007-4.173c-2.313-0.789-2.188-1.374-4.858-0.687c-2.645,0.687-10.965-0.916-11.092,4.86
		c-0.103,5.8,7.504,18.751,10.404,29.866c2.9,11.097,4.859,19.082,6.92,36.79c2.087,17.708,4.398,48.726,5.573,69.435
		c1.144,20.71,2.798,44.779,1.371,54.854c-1.421,10.053-6.537,4.986-9.896,5.571c-3.357,0.561-4.354-0.712-10.203-2.112
		c-5.877-1.396-14.684-0.457-24.959-6.259c-10.307-5.772-26.004-18.497-36.766-28.44c-10.734-9.976-19.643-21.652-27.729-31.244
		c-8.096-9.617-16.414-16.792-20.789-26.383c-4.399-9.617-3.485-21.524-5.545-31.243c-2.088-9.722-5.09-17.25-6.945-27.099
		c-1.857-9.817-2.648-25.214-4.148-31.931c-1.523-6.716-3.813-10.532-4.857-8.318c-1.043,2.188-1.396,14.225-1.396,21.524
		c0,7.274,1.504,17.225,1.396,22.211c-0.127,4.96-0.812,6.131-2.087,7.632s-2.646,1.501-5.546,1.399
		c-2.896-0.127-8.902-0.357-11.773-2.086c-2.902-1.757-3.816-6.72-5.549-8.349c-1.731-1.603-3.588-1.959-4.859-1.374
		c-1.271,0.562-3.355,2.544-2.773,4.859c0.584,2.316,1.502,4.732,6.234,9.007c4.73,4.3,16.994,12.034,22.186,16.664
		c5.215,4.632,8.092,7.761,9.031,11.119c0.916,3.354-1.17,6.589-3.482,9.031c-2.314,2.417-11.098,1.502-10.408,5.547
		c0.713,4.045,5.318,9.361,14.578,18.751c9.236,9.36,28.877,27.299,40.91,37.476c12.014,10.202,19.059,15.396,31.193,23.61
		s29.816,16.309,41.602,25.697c11.775,9.359,23.584,24.299,29.129,30.556c5.521,6.232,3.258,4.249,4.045,6.896
		c0.814,2.669-0.127-10.968,0.814,9.059c0.939,20.021,1.193,89.857,4.834,111.081c3.639,21.244,12.82,17.505,16.996,16.356
		c4.146-1.171,8.369,4.887,7.963-23.279c-0.381-28.189-8.648-110.062-10.381-145.811c-1.758-35.747-0.812-48.265,0-68.745
		c0.787-20.479,1.271-32.158,4.832-54.142c3.588-21.981,11.449-54.624,16.643-77.777c5.215-23.125,10.992-45.567,14.578-61.086
		c3.588-15.495,6.104-25.57,6.92-31.931C3075.973,182.388,3074.244,174.857,3071.014,178.317z"/>
	<path d="M2719.073,361.096c0-13.918,11.346-25.188,25.338-25.188s25.342,11.27,25.342,25.188c0,13.916-11.351,25.188-25.342,25.188
		C2730.416,386.284,2719.073,375.012,2719.073,361.096z"/>
	<circle cx="2726.701" cy="162.798" r="25.34"/>
	<path d="M3322.662,221.874c0-13.916,11.35-25.188,25.342-25.188s25.34,11.271,25.34,25.188s-11.349,25.188-25.34,25.188
		C3334.012,247.062,3322.662,235.792,3322.662,221.874z"/>
	<path d="M3141.308,264.923c0-13.916,11.271-25.188,25.188-25.188c13.916,0,25.188,11.271,25.188,25.188
		s-11.271,25.189-25.188,25.189S3141.308,278.84,3141.308,264.923z"/>
	<circle cx="3252.444" cy="207.678" r="25.34"/>
	<path d="M3256.41,322.626c0-17.962,14.479-32.515,32.361-32.515c17.889,0,32.363,14.552,32.363,32.515
		s-14.479,32.515-32.363,32.515C3270.889,355.141,3256.41,340.589,3256.41,322.626z"/>
	<path d="M3267.097,121.428c0-17.962,14.478-32.515,32.362-32.515c17.887,0,32.361,14.552,32.361,32.515
		c0,17.963-14.479,32.515-32.361,32.515C3281.574,153.943,3267.097,139.391,3267.097,121.428z"/>
	<path d="M2794.178,60.978c0-17.962,14.552-32.516,32.514-32.516c17.965,0,32.521,14.554,32.521,32.516
		s-14.556,32.515-32.521,32.515S2794.178,78.94,2794.178,60.978z"/>
	<path d="M2724.564,264.313c0-17.962,14.479-32.516,32.36-32.516c17.888,0,32.365,14.554,32.365,32.516
		c0,17.962-14.479,32.515-32.365,32.515C2739.043,296.828,2724.564,282.275,2724.564,264.313z"/>
	<circle cx="2929.735" cy="243.704" r="25.34"/>
	<path d="M2974.002,157.149c0-15.928,12.924-28.851,28.852-28.851s28.854,12.923,28.854,28.851
		c0,15.928-12.926,28.852-28.854,28.852C2986.928,186.001,2974.002,173.077,2974.002,157.149z"/>
	<path d="M3092.464,153.791c0-15.927,12.925-28.853,28.853-28.853c15.926,0,28.853,12.925,28.853,28.853
		c0,15.926-12.925,28.851-28.853,28.851C3105.389,182.643,3092.464,169.718,3092.464,153.791z"/>
	<path d="M2792.953,176.537c0-20.915,16.943-37.859,37.859-37.859c20.91,0,37.854,16.945,37.854,37.859
		c0,20.913-16.942,37.857-37.854,37.857C2809.897,214.395,2792.953,197.45,2792.953,176.537z"/>
	<path d="M2901.033,77.922c0-20.913,16.944-37.858,37.856-37.858c20.913,0,37.856,16.945,37.856,37.858
		c0,20.914-16.943,37.858-37.856,37.858C2917.978,115.78,2901.033,98.836,2901.033,77.922z"/>
	<path d="M3159.323,70.9c0-20.914,16.944-37.858,37.856-37.858c20.916,0,37.858,16.944,37.858,37.858
		c0,20.913-16.942,37.858-37.858,37.858C3176.267,108.758,3159.323,91.813,3159.323,70.9z"/>
	<path d="M3095.212-61.909c0-20.913,16.942-37.857,37.854-37.857c20.914,0,37.857,16.945,37.857,37.857
		c0,20.914-16.943,37.858-37.857,37.858C3112.155-24.051,3095.212-40.995,3095.212-61.909z"/>
	<path d="M2960.571-33.821c0-20.913,16.942-37.858,37.854-37.858c20.915,0,37.858,16.945,37.858,37.858
		c0,20.915-16.943,37.858-37.858,37.858C2977.513,4.037,2960.571-12.906,2960.571-33.821z"/>
</g>
</svg>
