<?xml version="1.0" encoding="utf-8"?>
<!-- Generator: Adobe Illustrator 16.0.0, SVG Export Plug-In . SVG Version: 6.00 Build 0)  -->
<!DOCTYPE svg PUBLIC "-//W3C//DTD SVG 1.1//EN" "http://www.w3.org/Graphics/SVG/1.1/DTD/svg11.dtd">
<svg version="1.1" id="Layer_1" xmlns:figma="http://www.figma.com/figma/ns"
	 xmlns="http://www.w3.org/2000/svg" xmlns:xlink="http://www.w3.org/1999/xlink" x="0px" y="0px" width="5442.5px" height="1440px"
	 viewBox="0 0 5442.5 1440" enable-background="new 0 0 5442.5 1440" xml:space="preserve">
<rect x="3318" y="382.8" fill="#FFFFFF" width="2048.3" height="674.4"/>
<title>Logo</title>
<g>
	<g>
		<path d="M3683.3,906c-25.5,0-37.3-18.2-37.3-37.9v-74.9h-15.6v-20.9h15.6v-41.4h27.4v41.3h26.3v20.9h-26.3v73.6
			c0,9.9,4.8,15.8,15.1,15.8h11.2V906L3683.3,906L3683.3,906z"/>
		<path d="M3753.9,845.9c0,23.4,12.3,38.2,34.6,38.2c15.3,0,23.4-4.3,33-14l17.5,16.4c-14,14-27.1,21.2-51,21.2
			c-34.1,0-61.2-18-61.2-69.8c0-44.1,22.8-69.6,57.7-69.6c36.5,0,57.7,26.8,57.7,65.6v12.1H3753.9L3753.9,845.9z M3811.4,808.2
			c-4.3-10.2-14-17.2-26.8-17.2s-22.8,7-27.1,17.2c-2.7,6.2-3.3,10.2-3.5,18.5h61.2C3814.9,818.4,3814.1,814.4,3811.4,808.2z"/>
		<path d="M3961.6,906v-83c0-21.2-12.1-30.3-27.4-30.3c-15.3,0-28.2,9.4-28.2,30.3v83h-27.4V769.8h26.8v13.7
			c9.4-10.2,22.6-15.3,36.2-15.3c14,0,25.5,4.6,33.5,12.3c10.5,10.2,13.7,23.1,13.7,38.4v87H3961.6L3961.6,906z"/>
		<path d="M4051.2,845.9c0,23.4,12.3,38.2,34.6,38.2c15.3,0,23.4-4.3,33-14l17.5,16.4c-14,14-27.1,21.2-51,21.2
			c-34.1,0-61.2-18-61.2-69.8c0-44.1,22.8-69.6,57.7-69.6c36.5,0,57.7,26.8,57.7,65.6v12.1H4051.2L4051.2,845.9z M4108.7,808.2
			c-4.3-10.2-14-17.2-26.8-17.2c-12.9,0-22.8,7-27.1,17.2c-2.7,6.2-3.3,10.2-3.5,18.5h61.2C4112.2,818.4,4111.4,814.4,4108.7,808.2z
			"/>
		<path d="M4341.5,906v-83c0-21.2-12.1-30.3-27.4-30.3c-14.7,0-28.2,9.4-28.2,29V906h-27.4v-83c0-21.2-12.1-30.3-27.4-30.3
			c-15.3,0-28.2,9.4-28.2,30.3v83h-27.5V769.8h26.8v13.7c9.2-9.9,22.6-15.3,36.2-15.3c16.9,0,30,6.8,38.6,19.9
			c11-13.4,24.7-19.9,42.7-19.9c14,0,26.3,4.6,34.4,12.3c10.5,10.2,14.5,23.1,14.5,38.4v87H4341.5L4341.5,906z"/>
		<path d="M4502,891.5c-8.8,9.2-22.3,16.1-40.8,16.1c-18.5,0-31.7-7-40.5-16.1c-12.9-13.4-16.1-30.6-16.1-53.7
			c0-22.8,3.3-40,16.1-53.5c8.8-9.2,22-16.1,40.5-16.1c18.5,0,32,7,40.8,16.1c12.9,13.4,16.1,30.6,16.1,53.5
			C4518.2,860.9,4514.9,878.1,4502,891.5z M4481.4,800.4c-5.1-5.1-12.1-7.8-20.1-7.8c-8.1,0-14.7,2.7-19.9,7.8
			c-8.3,8.3-9.4,22.6-9.4,37.3s1.1,29,9.4,37.3c5.1,5.1,11.8,8.1,19.9,8.1s15-2.9,20.1-8.1c8.3-8.3,9.4-22.6,9.4-37.3
			S4489.7,808.8,4481.4,800.4z"/>
		<path d="M4599.3,907.7c-22.3,0-41-3.7-57.2-19.6l18-18c11,11.2,25.8,14.2,39.2,14.2c16.7,0,29.8-5.9,29.8-18.8
			c0-9.2-5.1-15-18.2-16.1l-21.7-1.9c-25.5-2.2-40.3-13.7-40.3-37.6c0-26.6,22.8-41.7,51.3-41.7c20.4,0,37.9,4.3,50.4,15.3
			l-17.1,17.5c-8.6-7.2-20.6-9.9-33.5-9.9c-16.4,0-24.7,7.2-24.7,17.5c0,8.1,4.3,14.2,18.8,15.6l21.5,1.9
			c25.5,2.2,40.5,14.2,40.5,38.4C4656,892.8,4631.8,907.7,4599.3,907.7z"/>
	</g>
	<g>
		<path d="M3669.5,1024c-14,0-24-9.5-24-23.4v-46.3h7.4v45.8c0,10.5,6.6,17.4,16.7,17.4c10.1,0,16.8-6.8,16.8-17.4v-45.8h7.4v46.2
			C3693.6,1014.3,3683.4,1024,3669.5,1024z"/>
		<path d="M3847.2,1023.4l-15.7-30.6h-16.5v30.6h-7.4v-69h26.5c12,0,20.5,7.3,20.5,19.2c0,10.1-6.1,16.7-15.1,18.5l16.4,31.3
			L3847.2,1023.4L3847.2,1023.4z M3833.3,961h-18.5v25.3h18.5c8.1,0,13.8-4.2,13.8-12.6S3841.4,961,3833.3,961z"/>
		<path d="M3989.2,1024c-14,0-24-9.5-24-23.4v-46.3h7.4v45.8c0,10.5,6.6,17.4,16.7,17.4c10.1,0,16.8-6.8,16.8-17.4v-45.8h7.4v46.2
			C4013.4,1014.3,4003.2,1024,3989.2,1024z"/>
		<path d="M4167.3,1016c-4.8,5.3-11.3,7.9-18.5,7.9c-6.8,0-13-2.6-17.6-7.1c-6.5-6.5-6.5-13.3-6.5-27.9c0-14.7,0-21.4,6.5-27.9
			c4.7-4.7,10.8-7.1,17.6-7.1c13.2,0,22.1,8.5,24.1,20.6h-7.4c-1.9-8.8-8.1-14.1-16.8-14.1c-4.6,0-8.9,1.9-11.9,5
			c-4.3,4.4-4.8,9.1-4.8,23.5s0.5,19.2,4.8,23.7c3,3.1,7.4,4.9,11.9,4.9c5,0,9.9-2,13-5.9c2.8-3.3,3.9-7.1,3.9-12.5v-5.3h-17v-6.5
			h24.4V998C4173.2,1006.1,4171.6,1011.5,4167.3,1016z"/>
		<path d="M4308.4,1024c-14,0-24-9.5-24-23.4v-46.3h7.4v45.8c0,10.5,6.6,17.4,16.7,17.4c10.1,0,16.8-6.8,16.8-17.4v-45.8h7.4v46.2
			C4332.5,1014.3,4322.4,1024,4308.4,1024z"/>
		<path d="M4486.8,1023.4l-5.5-15.6h-30.2l-5.5,15.6h-7.8l25.4-69h6.2l25.3,69H4486.8z M4466.3,964.9l-13,36.5h25.8L4466.3,964.9z"
			/>
		<path d="M4619.5,994.9v28.5h-7.4v-28.5l-20.6-40.5h7.9l16.3,33.1l16.1-33.1h7.9L4619.5,994.9z"/>
	</g>
	<g>
		<path fill="#CC0033" d="M4702.2,1023.9V752.6h173.4v37h-132.2v79.3h112.8v36.5h-112.8V987h132.2v37h-173.4V1023.9z"/>
		<path fill="#CC0033" d="M4935.3,1023.9V752.6h41.1V987h130.6v37L4935.3,1023.9L4935.3,1023.9z"/>
		<path fill="#CC0033" d="M5313.6,1023.9l-18.7-54.5h-107.1l-18.7,54.5h-43.8l99.4-271.4h33.1l99.4,271.4H5313.6z M5242.3,813.9
			L5200,934.3h83.4L5242.3,813.9z"/>
	</g>
	<g>
		<path d="M3437.1,508.4c10.2,0,18.9-7.9,18.9-17.4c0-9.5-8.7-17.4-18.9-17.4c-10.6,0-18.9,7.9-18.9,17.4
			C3418.3,500.5,3426.6,508.4,3437.1,508.4L3437.1,508.4z"/>
		<path d="M3397.2,551c10.2,0,18.9-7.5,18.9-17.4c0-9.5-8.7-17.4-18.9-17.4c-10.6,0-18.9,7.9-18.9,17.4
			C3378.3,543.5,3386.6,551,3397.2,551L3397.2,551z"/>
		<path d="M3522.4,450.7c10.6,0,19.2-7.5,19.2-17.4c0-9.5-8.7-17.4-19.2-17.4c-10.2,0-18.9,7.9-18.9,17.4
			C3503.5,443.2,3512.2,450.7,3522.4,450.7L3522.4,450.7z"/>
		<path d="M3551.4,491.8c10.2,0,18.9-7.9,18.9-17.4c0-9.9-8.7-17.8-18.9-17.8c-10.6,0-18.9,7.9-18.9,17.8
			C3532.5,483.9,3540.8,491.8,3551.4,491.8L3551.4,491.8z"/>
		<path d="M3575.2,564.7c10.5,0,19.2-7.9,19.2-17.4c0-9.9-8.7-17.4-19.2-17.4c-10.2,0-18.9,7.5-18.9,17.4
			C3556.4,556.7,3565,564.7,3575.2,564.7L3575.2,564.7z"/>
		<path d="M3537.9,597.9c10.6,0,18.9-7.9,18.9-17.4s-8.3-17.4-18.9-17.4s-18.9,7.9-18.9,17.4C3519,589.9,3527.3,597.9,3537.9,597.9
			L3537.9,597.9z"/>
		<path d="M3340.1,639.4c10.5,0,18.9-7.9,18.9-17.4c0-9.9-8.3-17.7-18.9-17.7c-10.2-0.1-18.9,7.8-18.9,17.6
			C3321.4,631.5,3330,639.4,3340.1,639.4L3340.1,639.4z"/>
		<path d="M3433.4,584.3c10.5,0,18.9-7.9,18.9-17.4c0-9.9-8.3-17.8-18.9-17.8c-10.2,0-18.9,7.9-18.9,17.8
			C3414.5,576.3,3423.1,584.3,3433.4,584.3L3433.4,584.3z"/>
		<path fill="#CC0033" d="M3496.4,497.5c10.2,0,18.9-7.9,18.9-17.7c0-9.5-8.7-17.4-18.9-17.4c-10.6,0-19.2,7.9-19.2,17.4
			C3477.1,489.6,3485.8,497.5,3496.4,497.5L3496.4,497.5z"/>
		<path d="M3360.6,596.7c10.2,0,18.9-7.9,18.9-17.4s-8.7-17.4-18.9-17.4c-10.6,0-19.2,7.9-19.2,17.4
			C3341.3,588.8,3350,596.7,3360.6,596.7L3360.6,596.7z"/>
		<path d="M3595.5,622.8c10.2,0,18.9-7.9,18.9-17.8c0-9.5-8.7-17.4-18.9-17.4c-10.6,0-19.2,7.9-19.2,17.4
			C3576.4,614.8,3585,622.8,3595.5,622.8L3595.5,622.8z"/>
		<path d="M3525.4,542.4c10.6,0,18.9-7.9,18.9-17.4c0-9.9-8.3-17.4-18.9-17.4s-18.9,7.5-18.9,17.4
			C3506.5,534.4,3514.8,542.4,3525.4,542.4L3525.4,542.4z"/>
		<path d="M3465.4,546.9c10.6,0,18.9-7.5,18.9-17.4c0-9.5-8.3-17.4-18.9-17.4c-10.2,0-18.9,7.9-18.9,17.4
			C3446.6,539.4,3455.3,546.9,3465.4,546.9L3465.4,546.9z"/>
		<path d="M3463.6,460.5c10.6,0,18.9-7.5,18.9-17.4c0-9.5-8.3-17.4-18.9-17.4s-18.9,7.9-18.9,17.4
			C3444.6,453,3452.9,460.5,3463.6,460.5L3463.6,460.5z"/>
		<path d="M3600,523.1c10.6,0,18.9-7.9,18.9-17.7c0-9.5-8.3-17.4-18.9-17.4c-10.2,0-18.9,7.9-18.9,17.4
			C3581.2,515.3,3589.9,523.1,3600,523.1L3600,523.1z"/>
		<path d="M3339.8,545.1c10.6,0,19.2-7.9,19.2-17.4c0-9.9-8.7-17.8-19.2-17.8c-10.2,0-18.9,7.9-18.9,17.8
			C3321,537.1,3329.7,545.1,3339.8,545.1L3339.8,545.1z"/>
		<path d="M3625.3,575.2c10.6,0,18.9-7.5,18.9-17.4c0-9.5-8.3-17.4-18.9-17.4s-18.9,7.9-18.9,17.4
			C3606.5,567.7,3614.8,575.2,3625.3,575.2L3625.3,575.2z"/>
		<path d="M3384.3,496.7c10.6,0,18.9-7.9,18.9-17.4c0-9.9-8.3-17.4-18.9-17.4c-10.5,0-18.9,7.5-18.9,17.4
			C3365.4,488.8,3373.8,496.7,3384.3,496.7L3384.3,496.7z"/>
		<path d="M3395.3,1020.2c23.4,1.5,31.3,0.4,51.3-5.3c18.2,17.7,17,4.5,20,1.2c15.1,3.3,18.2,9,41.5,6.4
			c-5.7-12.1-26.8-6.1-24.1-46.4c1.5-21.9,7.9-41.5,7.9-64.5c4.5-54.8-21.1-84.6,4.5-120.7c35.5-41.9,33.2-52.4,58.1-90.9
			c4.5-6.8-7.1,0-7.1-1.9c2.6-14.4,14.7-50.6,3-55.9c-6.4-2.6-2.2,37-9,48.7c-5.3,9.9-7.9,1.2-8.3,4.9c-3,30.6-39.6,90.9-66.3,99.2
			c-12.5,3.8,39.6,124.1-19.6,189.8c-8.7,9.9-23,20-35.8,26.5L3395.3,1020.2z"/>
		<path d="M3460.2,687.3c4.5-20.8-9.9-66.4-10.6-82.2c-0.7-16.2,2.6,2.2,17-3.8c9-4.2,7.1-37.8,22.7-42.7
			c8.7-2.6-15.4,67.1-17.7,103.7c-0.7,15.4,3.8,117.4,3.3,118.2c-14,15.4-12.1-11.7-12.5-21.1l-1.5-40.4
			c-0.7-14.7-19.6-24.5-31.3-32.1c-15.4-9.5-21.9-17.4-32.8-27.5c-6.8-6.4-11.7-7.1-9.5-11.3c7.5-14-17-22-11.3-26.5
			c6.1-4.9,14,13.2,15.4-14.4c1.5-27.5,6.8,28.3,8.3,35.1C3405.8,665.4,3456.7,703.2,3460.2,687.3L3460.2,687.3z"/>
	</g>
</g>
</svg>
