<?xml version="1.0" encoding="utf-8"?>
<!-- Generator: Adobe Illustrator 16.0.0, SVG Export Plug-In . SVG Version: 6.00 Build 0)  -->
<!DOCTYPE svg PUBLIC "-//W3C//DTD SVG 1.1//EN" "http://www.w3.org/Graphics/SVG/1.1/DTD/svg11.dtd">
<svg version="1.1" id="Layer_1" xmlns:figma="http://www.figma.com/figma/ns"
	 xmlns="http://www.w3.org/2000/svg" xmlns:xlink="http://www.w3.org/1999/xlink" x="0px" y="0px" width="3401.6px" height="1120px"
	 viewBox="0 0 3401.6 1120" enable-background="new 0 0 3401.6 1120" xml:space="preserve">
<rect fill="#FFFFFF" width="3401.6" height="1120"/>
<title>Logo</title>
<g>
	<g>
		<path d="M606.7,869c-42.4,0-62-30.3-62-62.9V681.6h-25.9v-34.8h25.9v-68.7h45.5v68.7h43.7v34.8h-43.7v122.3c0,16.5,8,26.3,25,26.3
			h18.7V869H606.7L606.7,869z"/>
		<path d="M724,769.1c0,38.8,20.5,63.4,57.5,63.4c25.4,0,38.8-7.1,54.9-23.2l29,27.2c-23.2,23.2-45,35.2-84.7,35.2
			c-56.6,0-101.7-29.9-101.7-116c0-73.2,37.9-115.6,95.9-115.6c60.7,0,95.9,44.6,95.9,108.9v20.1H724L724,769.1z M819.5,706.6
			c-7.1-17-23.2-28.6-44.6-28.6s-37.9,11.6-45,28.6c-4.5,10.3-5.4,17-5.8,30.8h101.7C825.3,723.5,823.9,716.9,819.5,706.6z"/>
		<path d="M1068.8,869V731.1c0-35.2-20.1-50.4-45.5-50.4s-46.8,15.6-46.8,50.4V869H931V642.8h44.6v22.8c15.6-17,37.5-25.4,60.2-25.4
			c23.2,0,42.4,7.6,55.7,20.5c17.4,17,22.7,38.4,22.7,63.8V869L1068.8,869L1068.8,869z"/>
		<path d="M1217.7,769.1c0,38.8,20.5,63.4,57.5,63.4c25.4,0,38.8-7.1,54.9-23.2l29,27.2c-23.2,23.2-45,35.2-84.7,35.2
			c-56.6,0-101.7-29.9-101.7-116c0-73.2,37.9-115.6,95.9-115.6c60.7,0,95.9,44.6,95.9,108.9v20.1H1217.7L1217.7,769.1z
			 M1313.2,706.6c-7.1-17-23.2-28.6-44.6-28.6c-21.4,0-37.9,11.6-45,28.6c-4.5,10.3-5.4,17-5.8,30.8h101.7
			C1319,723.5,1317.6,716.9,1313.2,706.6z"/>
		<path d="M1699.8,869V731.1c0-35.2-20.1-50.4-45.5-50.4c-24.5,0-46.8,15.6-46.8,48.2V869H1562V731.1c0-35.2-20.1-50.4-45.5-50.4
			c-25.4,0-46.8,15.6-46.8,50.4V869h-45.5V642.8h44.6v22.8c15.2-16.5,37.5-25.4,60.2-25.4c28.1,0,49.9,11.2,64.2,33
			c18.3-22.3,41-33,70.9-33c23.2,0,43.7,7.6,57.1,20.5c17.4,17,24.1,38.4,24.1,63.8V869L1699.8,869L1699.8,869z"/>
		<path d="M1966.5,844.9c-14.7,15.2-37,26.8-67.8,26.8c-30.8,0-52.6-11.6-67.3-26.8c-21.4-22.3-26.8-50.9-26.8-89.2
			c0-37.9,5.4-66.5,26.8-88.8c14.7-15.2,36.6-26.8,67.3-26.8c30.8,0,53.1,11.6,67.8,26.8c21.4,22.3,26.8,50.9,26.8,88.8
			C1993.3,794,1987.9,822.6,1966.5,844.9z M1932.2,693.6c-8.5-8.5-20.1-12.9-33.4-12.9c-13.4,0-24.5,4.5-33,12.9
			c-13.8,13.8-15.6,37.5-15.6,62s1.8,48.2,15.6,62c8.5,8.5,19.6,13.4,33,13.4c13.4,0,25-4.9,33.4-13.4c13.8-13.8,15.6-37.5,15.6-62
			S1946,707.5,1932.2,693.6z"/>
		<path d="M2128,871.7c-37,0-68.2-6.2-95-32.6l29.9-29.9c18.3,18.7,42.8,23.6,65.1,23.6c27.7,0,49.5-9.8,49.5-31.2
			c0-15.2-8.5-25-30.3-26.8l-36.1-3.1c-42.4-3.6-66.9-22.8-66.9-62.5c0-44.2,37.9-69.2,85.2-69.2c33.9,0,62.9,7.1,83.8,25.4
			l-28.5,29c-14.3-12-34.3-16.5-55.7-16.5c-27.2,0-41,12-41,29c0,13.4,7.1,23.6,31.2,25.9l35.7,3.1c42.4,3.6,67.3,23.6,67.3,63.8
			C2222.1,847.1,2181.9,871.7,2128,871.7z"/>
	</g>
	<g>
		<path d="M583.7,1064.8c-23.2,0-39.9-15.9-39.9-38.8v-76.8H556v75.9c0,17.4,10.9,28.8,27.7,28.8c16.7,0,27.8-11.4,27.8-28.8v-75.9
			h12.2v76.8C623.8,1048.9,606.9,1064.8,583.7,1064.8z"/>
		<path d="M878.9,1063.9l-26.1-50.9h-27.5v50.9h-12.2V949.2H857c20,0,34,12.1,34,31.9c0,16.8-10.1,27.7-25,30.8l27.2,52
			L878.9,1063.9L878.9,1063.9z M855.9,960.2h-30.6v42h30.6c13.4,0,22.9-6.9,22.9-20.9S869.3,960.2,855.9,960.2z"/>
		<path d="M1114.8,1064.8c-23.2,0-39.9-15.9-39.9-38.8v-76.8h12.2v75.9c0,17.4,10.9,28.8,27.7,28.8s27.9-11.4,27.9-28.8v-75.9h12.2
			v76.8C1154.9,1048.9,1138,1064.8,1114.8,1064.8z"/>
		<path d="M1410.5,1051.6c-8,8.7-18.8,13.2-30.6,13.2c-11.3,0-21.6-4.2-29.3-11.9c-10.8-10.8-10.8-22.1-10.8-46.4
			c0-24.3,0-35.6,10.8-46.4c7.7-7.7,17.9-11.9,29.3-11.9c21.9,0,36.7,14.2,40.1,34.3h-12.2c-3.2-14.5-13.5-23.4-27.8-23.4
			c-7.6,0-14.8,3.1-19.8,8.2c-7.2,7.4-8,15.1-8,39.1s0.8,31.9,8,39.3c5,5.2,12.2,8.1,19.8,8.1c8.4,0,16.4-3.4,21.7-9.8
			c4.7-5.6,6.4-11.9,6.4-20.8v-8.7h-28.2v-10.8h40.4v18.2C1420.3,1035.2,1417.6,1044.1,1410.5,1051.6z"/>
		<path d="M1644.9,1064.8c-23.2,0-39.9-15.9-39.9-38.8v-76.8h12.2v75.9c0,17.4,10.9,28.8,27.7,28.8c16.7,0,27.9-11.4,27.9-28.8
			v-75.9h12.2v76.8C1685,1048.9,1668.1,1064.8,1644.9,1064.8z"/>
		<path d="M1941.1,1063.9l-9.2-25.9h-50.1l-9.2,25.9h-13l42.2-114.7h10.3l42,114.7H1941.1z M1907.1,966.8l-21.6,60.6h42.8
			L1907.1,966.8z"/>
		<path d="M2161.5,1016.5v47.4h-12.2v-47.4l-34.1-67.3h13.2l27,54.9l26.7-54.9h13.2L2161.5,1016.5z"/>
	</g>
	<g>
		<path fill="#CC0033" d="M2298.9,1064.7V614.1h287.9v61.4h-219.5v131.7h187.3v60.8h-187.3v135.5h219.5v61.4H2298.9L2298.9,1064.7z"
			/>
		<path fill="#CC0033" d="M2686,1064.7V614.1h68.3v389.3h217v61.4H2686z"/>
		<path fill="#CC0033" d="M3314.2,1064.7l-31-90.5h-177.8l-31,90.5h-72.8l165.1-450.7h55l165.1,450.7H3314.2z M3195.9,716l-70.2,200
			h138.5L3195.9,716z"/>
	</g>
	<g>
		<path d="M197.9,208.7c16.9,0,31.3-13.2,31.3-28.8c0-15.7-14.4-28.8-31.3-28.8c-17.5,0-31.3,13.2-31.3,28.8
			C166.6,195.5,180.4,208.7,197.9,208.7L197.9,208.7z"/>
		<path d="M131.5,279.5c16.9,0,31.3-12.5,31.3-28.8c0-15.7-14.4-28.8-31.3-28.8c-17.5,0-31.3,13.1-31.3,28.8
			C100.2,267,114,279.5,131.5,279.5L131.5,279.5z"/>
		<path d="M339.5,112.8c17.5,0,32-12.5,32-28.8c0-15.7-14.4-28.8-32-28.8c-16.9,0-31.3,13.2-31.3,28.8
			C308.2,100.3,322.6,112.8,339.5,112.8L339.5,112.8z"/>
		<path d="M387.7,181.1c16.9,0,31.3-13.2,31.3-28.8c0-16.3-14.4-29.5-31.3-29.5c-17.5,0-31.3,13.2-31.3,29.5
			C356.4,168,370.2,181.1,387.7,181.1L387.7,181.1z"/>
		<path d="M427.2,302.1c17.5,0,32-13.2,32-28.8c0-16.3-14.4-28.8-32-28.8c-16.9,0-31.3,12.5-31.3,28.8
			C395.9,288.9,410.3,302.1,427.2,302.1L427.2,302.1z"/>
		<path d="M365.2,357.2c17.5,0,31.3-13.2,31.3-28.8c0-15.7-13.8-28.8-31.3-28.8c-17.5,0-31.3,13.2-31.3,28.8
			S347.6,357.2,365.2,357.2L365.2,357.2z"/>
		<path d="M36.9,426.2c17.5,0,31.3-13.2,31.3-28.8c0-16.3-13.8-29.4-31.3-29.4C20,367.9,5.6,381,5.6,397.3
			C5.6,413,20,426.2,36.9,426.2L36.9,426.2z"/>
		<path d="M191.7,334.7c17.5,0,31.3-13.2,31.3-28.8c0-16.3-13.8-29.5-31.3-29.5c-16.9,0-31.3,13.2-31.3,29.5
			C160.3,321.5,174.7,334.7,191.7,334.7L191.7,334.7z"/>
		<path fill="#CC0033" d="M296.3,190.5c16.9,0,31.3-13.2,31.3-29.4c0-15.7-14.4-28.8-31.3-28.8c-17.5,0-31.9,13.2-31.9,28.8
			C264.3,177.4,278.7,190.5,296.3,190.5L296.3,190.5z"/>
		<path d="M70.8,355.3c16.9,0,31.3-13.2,31.3-28.8c0-15.7-14.4-28.8-31.3-28.8c-17.5,0-32,13.2-32,28.8
			C38.8,342.2,53.2,355.3,70.8,355.3L70.8,355.3z"/>
		<path d="M461,398.6c16.9,0,31.3-13.2,31.3-29.5c0-15.7-14.4-28.8-31.3-28.8c-17.5,0-31.9,13.1-31.9,28.8
			C429.1,385.4,443.5,398.6,461,398.6L461,398.6z"/>
		<path d="M344.5,265.1c17.5,0,31.3-13.2,31.3-28.8c0-16.3-13.8-28.8-31.3-28.8c-17.5,0-31.3,12.5-31.3,28.8
			C313.2,251.9,327,265.1,344.5,265.1L344.5,265.1z"/>
		<path d="M244.9,272.6c17.5,0,31.3-12.5,31.3-28.8c0-15.7-13.8-28.8-31.3-28.8c-16.9,0-31.3,13.2-31.3,28.8
			C213.6,260.1,228,272.6,244.9,272.6L244.9,272.6z"/>
		<path d="M241.8,129.1c17.5,0,31.3-12.5,31.3-28.8c0-15.7-13.8-28.8-31.3-28.8c-17.5,0-31.3,13.2-31.3,28.8
			C210.4,116.6,224.2,129.1,241.8,129.1L241.8,129.1z"/>
		<path d="M468.5,233.1c17.5,0,31.3-13.2,31.3-29.4c0-15.7-13.8-28.8-31.3-28.8c-16.9,0-31.3,13.2-31.3,28.8
			C437.2,220,451.6,233.1,468.5,233.1L468.5,233.1z"/>
		<path d="M36.3,269.5c17.5,0,32-13.2,32-28.8c0-16.3-14.4-29.5-32-29.5C19.4,211.2,5,224.4,5,240.7C5,256.3,19.4,269.5,36.3,269.5
			L36.3,269.5z"/>
		<path d="M510.5,319.6c17.5,0,31.3-12.5,31.3-28.8c0-15.7-13.8-28.8-31.3-28.8c-17.5,0-31.3,13.1-31.3,28.8
			C479.2,307.1,493,319.6,510.5,319.6L510.5,319.6z"/>
		<path d="M110.2,189.3c17.5,0,31.3-13.2,31.3-28.8c0-16.3-13.8-28.8-31.3-28.8c-17.5,0-31.3,12.5-31.3,28.8
			C78.9,176.1,92.7,189.3,110.2,189.3L110.2,189.3z"/>
		<path d="M128.4,1058.5c38.8,2.5,52,0.6,85.2-8.8c30.1,29.4,28.2,7.5,33.2,1.9c25.1,5.6,30.1,15,68.9,10.6
			c-9.4-20.1-44.5-10-40.1-77.1c2.5-36.3,13.2-68.9,13.2-107.2c7.5-90.9-35.1-140.4,7.5-200.5c58.9-69.6,55.1-87.1,96.5-151
			c7.5-11.3-11.9,0-11.9-3.1c4.4-23.8,24.4-84,5-92.8c-10.7-4.4-3.8,61.4-15,80.9c-8.8,16.3-13.1,1.9-13.8,8.1
			c-5,50.8-65.8,151-110.2,164.8c-20.7,6.3,65.8,206.2-32.6,315.2c-14.4,16.3-38.2,33.2-59.5,43.9L128.4,1058.5z"/>
		<path d="M236.1,505.8c7.5-34.5-16.3-110.3-17.5-136.6c-1.2-26.9,4.4,3.8,28.2-6.3c15-6.9,11.9-62.7,37.6-70.8
			c14.4-4.4-25.7,111.5-29.4,172.3c-1.2,25.7,6.3,194.9,5.6,196.2c-23.2,25.7-20.1-19.4-20.7-35.1l-2.5-67.1
			c-1.2-24.4-32.6-40.7-52-53.3c-25.7-15.7-36.3-28.8-54.5-45.7c-11.3-10.7-19.4-11.9-15.7-18.8c12.5-23.2-28.2-36.4-18.8-43.9
			c10-8.1,23.2,21.9,25.7-23.8s11.3,47,13.8,58.3C145.9,469.4,230.5,532.1,236.1,505.8L236.1,505.8z"/>
	</g>
</g>
</svg>
