<?xml version="1.0" encoding="utf-8"?>
<!-- Generator: Adobe Illustrator 16.0.0, SVG Export Plug-In . SVG Version: 6.00 Build 0)  -->
<!DOCTYPE svg PUBLIC "-//W3C//DTD SVG 1.1//EN" "http://www.w3.org/Graphics/SVG/1.1/DTD/svg11.dtd">
<svg version="1.1" id="Layer_1" xmlns:figma="http://www.figma.com/figma/ns"
	 xmlns="http://www.w3.org/2000/svg" xmlns:xlink="http://www.w3.org/1999/xlink" x="0px" y="0px" width="1120px" height="1120px"
	 viewBox="2281.45 0 1120 1120" enable-background="new 2281.45 0 1120 1120" xml:space="preserve">
<circle fill="#CC0033" cx="2841.45" cy="560" r="538.65"/>
<title>Logo</title>
<g>
	<path fill="#FFFFFF" d="M2846.851,197.818c0-9.779,7.923-17.701,17.7-17.701s17.701,7.922,17.701,17.701s-7.924,17.7-17.701,17.7
		S2846.851,207.597,2846.851,197.818z"/>
	<path fill="#FFFFFF" d="M2941.793,349.947c-0.873,5.056,1.302,24.278-0.873,35.553c-2.16,11.275-8.961,27.159-12.146,32.076
		c-3.172,4.917-6.066-5.193-6.938-2.604c-0.873,2.604,4.195,8.242,1.73,18.212c-2.452,9.972-10.553,29.333-16.481,41.62
		c-5.928,12.283-12.437,23.128-19.087,32.09c-6.647,8.946-15.179,16.176-20.815,21.676c-5.649,5.483-9.265,9.096-13.019,11.271
		c-3.766,2.162-6.786,2.038-9.542,1.731c-2.77-0.303-5.721-3.987-7.021-3.56c-1.301,0.445-1.523-5.413-0.791,6.166
		c0.735,11.564,3.035,42.186,5.208,63.293c2.161,21.095,7.079,43.642,7.812,63.297c0.72,19.652-1.163,41.188-3.476,54.623
		c-2.313,13.435-6.068,17.202-10.417,26.009c-4.335,8.824-9.542,18.934-15.607,26.883c-6.08,7.949-13.311,14.308-20.831,20.803
		c-7.52,6.511-17.783,13.88-24.292,18.213c-6.51,4.337-11.135,6.066-14.751,7.812c-3.615,1.731-6.938,2.589-6.938,2.589
		c-1.593,0.443-4.916-0.427-2.604,0c2.312,0.443,9.986,2.605,16.496,2.605c6.495,0,16.605-1.746,22.546-2.605
		c5.943-0.844,13.089-2.504,13.089-2.504c3.324-0.874,3.988-3.839,6.869-2.689c2.881,1.136,7.382,7.217,10.416,9.529
		c3.033,2.312,7.811,4.337,7.811,4.337c1.58,0.87,0.568,1.744,1.731,0.87c1.15-0.87,3.906-3.614,5.207-6.063
		c1.304-2.468-0.288-8.532,2.606-8.673c2.88-0.15,9.098,5.775,14.749,7.798c5.638,2.021,13.448,3.768,19.086,4.337
		c5.637,0.582,11.675-0.61,14.748-0.86c3.062-0.263,3.629-0.706,3.629-0.706c0.443-0.72,1.315-2.022-1.024-3.627
		c-2.342-1.624-9.266-2.897-13.019-6.082c-3.768-3.173-6.941-8.38-9.543-13.004c-2.605-4.627-5.347-6.066-6.081-14.739
		c-0.72-8.668,0.444-23.403,1.745-37.283c1.302-13.877,4.918-32.517,6.067-45.954c1.163-13.434,1.301-22.257,0.871-34.679
		c-0.442-12.438-2.02-26.745-3.477-39.889c-1.438-13.158-3.462-27.893-5.206-39.016c-1.731-11.134-8.532-17.064-5.194-27.754
		c3.325-10.693,16.329-23.837,25.152-36.414c8.822-12.576,20.677-26.589,27.769-39.015c7.077-12.438,10.692-26.302,14.75-35.553
		c4.044-9.251,6.786-14.458,9.543-19.944c2.742-5.497,5.056-10.401,6.938-13.003c1.884-2.605,4.336-2.605,4.336-2.605
		c1.163-0.873,3.476-1.883,2.604-2.604s-7.812-1.731-7.812-1.731c-1.731-0.72-3.905,2.895-2.604-2.603
		c1.303-5.485,8.241-21.676,10.416-30.347c2.174-8.669,2.604-16.328,2.604-21.676c0-5.344-2.604-10.4-2.604-10.4
		C2945.407,352.979,2942.651,344.891,2941.793,349.947z"/>
	<path fill="#FFFFFF" d="M2859.774,261.693c-1.759,1.899-5.858,11.413-8.311,17.009c-2.451,5.608-4.528,11.856-6.413,16.634
		c-1.884,4.791-3.211,9.32-4.903,12.091c-1.704,2.785-3.213,3.727-5.29,4.542c-2.078,0.817-5.152,0.693-7.174,0.375
		c-2.008-0.318-3.643-1.828-4.903-2.271c-1.259-0.429-1.192-0.748-2.644-0.375c-1.442,0.375-5.971-0.498-6.04,2.646
		c-0.056,3.158,4.086,10.209,5.665,16.26c1.577,6.04,2.645,10.388,3.767,20.028c1.135,9.64,2.396,26.522,3.034,37.796
		c0.622,11.274,1.522,24.376,0.748,29.861c-0.776,5.47-3.561,2.713-5.39,3.033c-1.828,0.306-2.366-0.387-5.553-1.15
		c-3.201-0.761-7.991-0.249-13.588-3.407c-5.607-3.144-14.153-10.069-20.012-15.483c-5.846-5.429-10.693-11.786-15.097-17.009
		c-4.404-5.233-8.933-9.141-11.315-14.36c-2.396-5.237-1.896-11.719-3.019-17.01c-1.137-5.29-2.771-9.39-3.781-14.749
		c-1.011-5.346-1.439-13.726-2.258-17.381c-0.831-3.657-2.078-5.735-2.645-4.529c-0.568,1.19-0.764,7.742-0.764,11.716
		c0,3.962,0.817,9.377,0.764,12.092c-0.071,2.699-0.443,3.337-1.136,4.155c-0.693,0.817-1.44,0.817-3.02,0.761
		c-1.579-0.068-4.848-0.193-6.414-1.134c-1.579-0.957-2.077-3.658-3.019-4.545c-0.941-0.871-1.953-1.066-2.646-0.746
		c-0.693,0.304-1.829,1.385-1.51,2.645c0.319,1.261,0.816,2.575,3.394,4.902c2.577,2.341,9.251,6.552,12.076,9.073
		c2.839,2.521,4.404,4.223,4.917,6.05c0.499,1.829-0.637,3.587-1.897,4.918c-1.26,1.314-6.037,0.816-5.664,3.019
		c0.388,2.202,2.894,5.096,7.937,10.208c5.026,5.097,15.72,14.86,22.271,20.4c6.536,5.554,10.374,8.38,16.979,12.853
		c6.606,4.473,16.231,8.878,22.644,13.99c6.415,5.096,12.841,13.226,15.859,16.633c3.006,3.392,1.773,2.312,2.202,3.753
		c0.443,1.454-0.069-5.969,0.443,4.93c0.513,10.9,0.65,48.919,2.631,60.469c1.981,11.564,6.982,9.529,9.253,8.905
		c2.257-0.635,4.556,2.659,4.335-12.674c-0.209-15.345-4.711-59.914-5.652-79.371c-0.954-19.46-0.442-26.275,0-37.424
		c0.431-11.148,0.693-17.506,2.633-29.473c1.953-11.966,6.233-29.736,9.057-42.34c2.84-12.589,5.983-24.805,7.936-33.253
		c1.954-8.435,3.324-13.919,3.769-17.382C2862.474,263.91,2861.532,259.811,2859.774,261.693z"/>
	<path fill="#FFFFFF" d="M2668.186,361.192c0-7.575,6.179-13.71,13.796-13.71c7.618,0,13.794,6.135,13.794,13.71
		c0,7.576-6.176,13.711-13.794,13.711C2674.365,374.903,2668.186,368.769,2668.186,361.192z"/>
	<path fill="#FFFFFF" d="M2658.548,253.246c0-7.618,6.176-13.793,13.792-13.793c7.618,0,13.797,6.176,13.797,13.793
		s-6.179,13.795-13.797,13.795C2664.724,267.042,2658.548,260.863,2658.548,253.246z"/>
	<path fill="#FFFFFF" d="M2996.763,285.406c0-7.577,6.178-13.712,13.795-13.712c7.618,0,13.795,6.135,13.795,13.712
		c0,7.576-6.178,13.71-13.795,13.71C3002.942,299.117,2996.763,292.981,2996.763,285.406z"/>
	<path fill="#FFFFFF" d="M2898.04,308.84c0-7.577,6.136-13.712,13.712-13.712s13.712,6.135,13.712,13.712
		c0,7.576-6.136,13.712-13.712,13.712S2898.04,316.416,2898.04,308.84z"/>
	<circle fill="#FFFFFF" cx="2958.538" cy="277.678" r="13.795"/>
	<path fill="#FFFFFF" d="M2960.698,340.251c0-9.779,7.881-17.699,17.618-17.699c9.736,0,17.617,7.92,17.617,17.699
		s-7.881,17.699-17.617,17.699C2968.578,357.951,2960.698,350.03,2960.698,340.251z"/>
	<path fill="#FFFFFF" d="M2966.516,230.726c0-9.778,7.88-17.699,17.617-17.699s17.616,7.921,17.616,17.699
		s-7.879,17.699-17.616,17.699S2966.516,240.504,2966.516,230.726z"/>
	<path fill="#FFFFFF" d="M2709.073,197.818c0-9.779,7.921-17.701,17.7-17.701c9.778,0,17.699,7.922,17.699,17.701
		s-7.921,17.7-17.699,17.7S2709.073,207.597,2709.073,197.818z"/>
	<path fill="#FFFFFF" d="M2671.178,308.507c0-9.778,7.881-17.7,17.618-17.7c9.735,0,17.617,7.922,17.617,17.7
		c0,9.779-7.882,17.7-17.617,17.7C2679.059,326.207,2671.178,318.287,2671.178,308.507z"/>
	<path fill="#FFFFFF" d="M2769.07,297.29c0-7.618,6.179-13.796,13.796-13.796s13.793,6.178,13.793,13.796
		s-6.176,13.793-13.793,13.793C2775.249,311.083,2769.07,304.908,2769.07,297.29z"/>
	<path fill="#FFFFFF" d="M2806.963,250.171c0-8.672,7.036-15.705,15.707-15.705c8.67,0,15.704,7.034,15.704,15.705
		s-7.034,15.706-15.704,15.706C2813.999,265.877,2806.963,258.842,2806.963,250.171z"/>
	<path fill="#FFFFFF" d="M2871.448,248.344c0-8.671,7.036-15.706,15.707-15.706c8.67,0,15.705,7.035,15.705,15.706
		c0,8.67-7.035,15.706-15.705,15.706C2878.484,264.05,2871.448,257.014,2871.448,248.344z"/>
	<path fill="#FFFFFF" d="M2708.407,260.725c0-11.385,9.224-20.61,20.607-20.61c11.386,0,20.61,9.225,20.61,20.61
		c0,11.384-9.225,20.608-20.61,20.608C2717.631,281.333,2708.407,272.109,2708.407,260.725z"/>
	<path fill="#FFFFFF" d="M2767.242,207.043c0-11.385,9.223-20.61,20.608-20.61c11.385,0,20.609,9.225,20.609,20.61
		c0,11.384-9.225,20.607-20.609,20.607C2776.465,227.65,2767.242,218.428,2767.242,207.043z"/>
	<path fill="#FFFFFF" d="M2907.846,203.221c0-11.386,9.224-20.61,20.608-20.61c11.386,0,20.61,9.224,20.61,20.61
		c0,11.383-9.225,20.607-20.61,20.607C2917.07,223.828,2907.846,214.604,2907.846,203.221z"/>
	<path fill="#FFFFFF" d="M2872.944,130.923c0-11.384,9.225-20.609,20.61-20.609c11.384,0,20.608,9.225,20.608,20.609
		c0,11.385-9.225,20.609-20.608,20.609C2882.168,151.532,2872.944,142.308,2872.944,130.923z"/>
	<path fill="#FFFFFF" d="M2799.65,146.214c0-11.384,9.225-20.609,20.609-20.609s20.608,9.225,20.608,20.609
		s-9.224,20.608-20.608,20.608C2808.874,166.821,2799.65,157.599,2799.65,146.214z"/>
</g>
<text transform="matrix(1 0 0 1 2610.4192 943.2891)" fill="#FFFFFF" font-family="'DINPro-Black'" font-size="70">TENEMOS ELA</text>
<text transform="matrix(1 0 0 1 2682.6575 1024.7852)" fill="#FFFFFF" font-family="'DINPro-Black'" font-size="70">URUGUAY</text>
</svg>
