<?xml version="1.0" encoding="utf-8"?>
<!-- Generator: Adobe Illustrator 16.0.0, SVG Export Plug-In . SVG Version: 6.00 Build 0)  -->
<!DOCTYPE svg PUBLIC "-//W3C//DTD SVG 1.1//EN" "http://www.w3.org/Graphics/SVG/1.1/DTD/svg11.dtd">
<svg version="1.1" id="Layer_1" xmlns:figma="http://www.figma.com/figma/ns"
	 xmlns="http://www.w3.org/2000/svg" xmlns:xlink="http://www.w3.org/1999/xlink" x="0px" y="0px" width="3401.6px" height="1120px"
	 viewBox="0 0 3401.6 1120" enable-background="new 0 0 3401.6 1120" xml:space="preserve">
<rect fill="#FFFFFF" width="3401.6" height="1120"/>
<title>Logo</title>
<g>
	<g>
		<path d="M645.5,859.4c-41,0-60.1-29.4-60.1-61V677.8h-25.1v-33.7h25.1v-66.6h44.1v66.6h42.3v33.7h-42.3v118.4
			c0,16,7.8,25.5,24.2,25.5h18.1v37.6H645.5L645.5,859.4z"/>
		<path d="M759.1,762.5c0,37.6,19.9,61.4,55.7,61.4c24.6,0,37.6-6.9,53.1-22.5l28.1,26.4C873.6,850.3,852.5,862,814,862
			c-54.9,0-98.5-29-98.5-112.4c0-70.9,36.7-112,92.9-112c58.8,0,92.9,43.2,92.9,105.5v19.5H759.1L759.1,762.5z M851.6,702
			c-6.9-16.4-22.5-27.7-43.2-27.7c-20.7,0-36.7,11.2-43.6,27.7c-4.3,9.9-5.2,16.4-5.6,29.8h98.5C857.2,718.4,855.9,712,851.6,702z"
			/>
		<path d="M1093.1,859.4V725.8c0-34.2-19.4-48.8-44.1-48.8s-45.4,15.1-45.4,48.8v133.6h-44.1V640.2h43.2v22
			c15.1-16.4,36.3-24.6,58.3-24.6c22.5,0,41,7.3,54,19.9c16.9,16.4,22,37.2,22,61.8v140.1L1093.1,859.4L1093.1,859.4z"/>
		<path d="M1237.4,762.5c0,37.6,19.9,61.4,55.7,61.4c24.6,0,37.6-6.9,53.1-22.5l28.1,26.4c-22.5,22.5-43.6,34.2-82.1,34.2
			c-54.9,0-98.5-29-98.5-112.4c0-70.9,36.7-112,92.9-112c58.8,0,92.9,43.2,92.9,105.5v19.5H1237.4L1237.4,762.5z M1329.9,702
			c-6.9-16.4-22.5-27.7-43.2-27.7c-20.7,0-36.7,11.2-43.6,27.7c-4.3,9.9-5.2,16.4-5.6,29.8h98.5C1335.5,718.4,1334.2,712,1329.9,702
			z"/>
		<path d="M1704.5,859.4V725.8c0-34.2-19.4-48.8-44.1-48.8c-23.8,0-45.4,15.1-45.4,46.7v135.7H1571V725.8
			c0-34.2-19.4-48.8-44.1-48.8c-24.6,0-45.4,15.1-45.4,48.8v133.6h-44.1V640.2h43.2v22c14.7-16,36.3-24.6,58.3-24.6
			c27.2,0,48.4,10.8,62.2,32c17.7-21.6,39.7-32,68.7-32c22.5,0,42.3,7.3,55.3,19.9c16.9,16.4,23.3,37.2,23.3,61.8v140.1
			L1704.5,859.4L1704.5,859.4z"/>
		<path d="M1962.9,836c-14.3,14.7-35.9,25.9-65.7,25.9s-51-11.2-65.2-25.9c-20.7-21.6-25.9-49.3-25.9-86.5c0-36.7,5.2-64.4,25.9-86
			c14.3-14.7,35.4-25.9,65.2-25.9c29.8,0,51.4,11.2,65.7,25.9c20.7,21.6,25.9,49.3,25.9,86C1988.8,786.7,1983.6,814.4,1962.9,836z
			 M1929.6,689.5c-8.2-8.2-19.4-12.5-32.4-12.5s-23.8,4.3-32,12.5c-13.4,13.4-15.1,36.3-15.1,60.1s1.7,46.7,15.1,60.1
			c8.2,8.2,19,13,32,13s24.2-4.8,32.4-13c13.4-13.4,15.1-36.3,15.1-60.1S1943,702.9,1929.6,689.5z"/>
		<path d="M2119.3,862c-35.9,0-66.1-6.1-92-31.6l28.9-29c17.7,18.2,41.5,22.9,63.1,22.9c26.8,0,48-9.5,48-30.3
			c0-14.7-8.2-24.2-29.4-25.9l-35-3c-41-3.5-64.8-22-64.8-60.5c0-42.8,36.7-67,82.5-67c32.8,0,60.9,6.9,81.2,24.6l-27.7,28.1
			c-13.8-11.7-33.3-16-54-16c-26.4,0-39.8,11.7-39.8,28.1c0,13,6.9,22.9,30.2,25.1l34.6,3c41,3.5,65.2,22.9,65.2,61.8
			C2210.4,838.2,2171.6,862,2119.3,862z"/>
	</g>
	<g>
		<path d="M623.2,1049.1c-22.5,0-38.7-15.4-38.7-37.6v-74.4h11.9v73.5c0,16.9,10.6,27.9,26.8,27.9c16.2,0,27-11.1,27-27.9v-73.5H662
			v74.4C662,1033.6,645.6,1049.1,623.2,1049.1z"/>
		<path d="M909.2,1048.2l-25.3-49.3h-26.7v49.3h-11.9V937.1H888c19.3,0,32.9,11.7,32.9,30.9c0,16.2-9.8,26.8-24.2,29.8l26.4,50.4
			L909.2,1048.2L909.2,1048.2z M886.9,947.7h-29.6v40.7h29.6c12.9,0,22.1-6.7,22.1-20.3C909.1,954.5,899.9,947.7,886.9,947.7z"/>
		<path d="M1137.7,1049.1c-22.5,0-38.7-15.4-38.7-37.6v-74.4h11.9v73.5c0,16.9,10.6,27.9,26.8,27.9c16.2,0,27-11.1,27-27.9v-73.5
			h11.9v74.4C1176.5,1033.6,1160.1,1049.1,1137.7,1049.1z"/>
		<path d="M1424.2,1036.3c-7.8,8.4-18.2,12.8-29.6,12.8c-10.9,0-20.9-4.1-28.4-11.5c-10.4-10.5-10.4-21.4-10.4-44.9
			c0-23.6,0-34.5,10.4-44.9c7.5-7.5,17.3-11.5,28.4-11.5c21.2,0,35.6,13.7,38.8,33.2h-11.9c-3.1-14-13.1-22.6-27-22.6
			c-7.3,0-14.3,3-19.2,8c-7,7.2-7.8,14.7-7.8,37.9c0,23.2,0.8,30.9,7.8,38.1c4.8,5,11.9,7.8,19.2,7.8c8.1,0,15.9-3.3,21.1-9.5
			c4.5-5.5,6.2-11.5,6.2-20.1v-8.4h-27.3V990h39.1v17.6C1433.7,1020.4,1431,1029,1424.2,1036.3z"/>
		<path d="M1651.3,1049.1c-22.5,0-38.7-15.4-38.7-37.6v-74.4h11.9v73.5c0,16.9,10.6,27.9,26.8,27.9c16.2,0,27-11.1,27-27.9v-73.5
			h11.9v74.4C1690.1,1033.6,1673.7,1049.1,1651.3,1049.1z"/>
		<path d="M1938.2,1048.2l-8.9-25.1h-48.5l-8.9,25.1h-12.6l40.9-111.1h10l40.7,111.1H1938.2z M1905.3,954.1l-20.9,58.7h41.5
			L1905.3,954.1z"/>
		<path d="M2151.7,1002.3v45.9h-11.9v-45.9l-33.1-65.2h12.8l26.2,53.2l25.9-53.2h12.8L2151.7,1002.3z"/>
	</g>
	<g>
		<path fill="#EE0029" d="M2284.8,1049V612.4h278.9v59.5H2351v127.5h181.4v58.9H2351v131.2h212.7v59.5H2284.8L2284.8,1049z"/>
		<path fill="#EE0029" d="M2659.9,1049V612.4h66.2v377.1h210.2v59.5H2659.9z"/>
		<path fill="#EE0029" d="M3268.6,1049l-30-87.7h-172.2l-30,87.7h-70.5l160-436.6h53.3l160,436.6H3268.6z M3153.9,711.1l-68,193.8
			h134.2L3153.9,711.1z"/>
	</g>
	<g>
		<path d="M249.4,219.7c16.4,0,30.3-12.8,30.3-27.9c0-15.2-13.9-27.9-30.3-27.9c-17,0-30.3,12.8-30.3,27.9
			C219.1,206.9,232.4,219.7,249.4,219.7L249.4,219.7z"/>
		<path d="M185.1,288.3c16.4,0,30.3-12.1,30.3-27.9c0-15.2-13.9-27.9-30.3-27.9c-17,0-30.3,12.7-30.3,27.9
			C154.8,276.1,168.1,288.3,185.1,288.3L185.1,288.3z"/>
		<path d="M386.6,126.8c17,0,31-12.1,31-27.9c0-15.2-14-27.9-31-27.9c-16.4,0-30.3,12.7-30.3,27.9
			C356.2,114.6,370.2,126.8,386.6,126.8L386.6,126.8z"/>
		<path d="M433.3,192.9c16.4,0,30.3-12.8,30.3-27.9c0-15.8-14-28.5-30.3-28.5c-17,0-30.3,12.8-30.3,28.5
			C403,180.2,416.3,192.9,433.3,192.9L433.3,192.9z"/>
		<path d="M471.5,310.1c17,0,31-12.7,31-27.9c0-15.8-14-27.9-31-27.9c-16.4,0-30.3,12.1-30.3,27.9
			C441.2,297.4,455.2,310.1,471.5,310.1L471.5,310.1z"/>
		<path d="M411.5,363.5c17,0,30.3-12.7,30.3-27.9c0-15.2-13.3-27.9-30.3-27.9c-17,0-30.3,12.8-30.3,27.9S394.5,363.5,411.5,363.5
			L411.5,363.5z"/>
		<path d="M93.5,430.3c17,0,30.3-12.8,30.3-27.9c0-15.8-13.4-28.5-30.3-28.5c-16.4,0-30.3,12.7-30.3,28.5
			C63.1,417.6,77.1,430.3,93.5,430.3L93.5,430.3z"/>
		<path d="M243.4,341.7c17,0,30.3-12.8,30.3-27.9c0-15.8-13.4-28.5-30.3-28.5c-16.4,0-30.3,12.8-30.3,28.5
			C213,328.9,227,341.7,243.4,341.7L243.4,341.7z"/>
		<path fill="#EE0029" d="M344.7,202c16.4,0,30.3-12.8,30.3-28.5c0-15.2-14-27.9-30.3-27.9c-17,0-30.9,12.8-30.9,27.9
			C313.8,189.3,327.7,202,344.7,202L344.7,202z"/>
		<path d="M126.2,361.7c16.4,0,30.3-12.8,30.3-27.9c0-15.2-14-27.9-30.3-27.9c-17,0-31,12.8-31,27.9
			C95.3,349,109.3,361.7,126.2,361.7L126.2,361.7z"/>
		<path d="M504.3,403.6c16.4,0,30.3-12.8,30.3-28.5c0-15.2-14-27.9-30.3-27.9c-17,0-30.9,12.7-30.9,27.9
			C473.4,390.9,487.3,403.6,504.3,403.6L504.3,403.6z"/>
		<path d="M391.4,274.3c17,0,30.3-12.8,30.3-27.9c0-15.8-13.3-27.9-30.3-27.9c-17,0-30.3,12.1-30.3,27.9
			C361.1,261.5,374.4,274.3,391.4,274.3L391.4,274.3z"/>
		<path d="M295,281.6c17,0,30.3-12.1,30.3-27.9c0-15.2-13.4-27.9-30.3-27.9c-16.4,0-30.3,12.7-30.3,27.9
			C264.6,269.4,278.6,281.6,295,281.6L295,281.6z"/>
		<path d="M291.9,142.5c17,0,30.3-12.1,30.3-27.9c0-15.2-13.4-27.9-30.3-27.9c-17,0-30.3,12.8-30.3,27.9
			C261.6,130.4,274.9,142.5,291.9,142.5L291.9,142.5z"/>
		<path d="M511.6,243.3c17,0,30.3-12.8,30.3-28.5c0-15.2-13.4-27.9-30.3-27.9c-16.4,0-30.3,12.8-30.3,27.9
			C481.3,230.6,495.2,243.3,511.6,243.3L511.6,243.3z"/>
		<path d="M92.9,278.5c17,0,31-12.8,31-27.9c0-15.8-14-28.5-31-28.5c-16.4,0-30.3,12.8-30.3,28.5C62.5,265.8,76.5,278.5,92.9,278.5
			L92.9,278.5z"/>
		<path d="M552.2,327.1c17,0,30.3-12.1,30.3-27.9c0-15.2-13.3-27.9-30.3-27.9c-17,0-30.3,12.7-30.3,27.9
			C521.9,315,535.3,327.1,552.2,327.1L552.2,327.1z"/>
		<path d="M164.5,200.8c17,0,30.3-12.8,30.3-27.9c0-15.8-13.4-27.9-30.3-27.9c-17,0-30.3,12.1-30.3,27.9
			C134.1,188.1,147.5,200.8,164.5,200.8L164.5,200.8z"/>
		<path d="M182.1,1042.9c37.6,2.4,50.4,0.6,82.5-8.5c29.1,28.5,27.3,7.3,32.2,1.8c24.3,5.5,29.1,14.6,66.8,10.3
			c-9.1-19.4-43.1-9.7-38.8-74.7c2.4-35.2,12.7-66.8,12.7-103.8c7.3-88-34-136,7.3-194.3c57-67.4,53.4-84.4,93.5-146.3
			c7.3-10.9-11.5,0-11.5-3c4.3-23.1,23.7-81.4,4.9-89.9c-10.3-4.2-3.6,59.5-14.6,78.3c-8.5,15.8-12.7,1.8-13.4,7.9
			c-4.8,49.2-63.7,146.3-106.8,159.7c-20,6.1,63.7,199.7-31.5,305.4c-14,15.8-37,32.2-57.7,42.5L182.1,1042.9z"/>
		<path d="M286.5,507.4c7.3-33.4-15.8-106.9-17-132.4c-1.2-26.1,4.3,3.7,27.3-6.1c14.6-6.7,11.5-60.7,36.4-68.6
			c14-4.3-24.9,108.1-28.5,167c-1.2,24.9,6.1,188.8,5.5,190c-22.5,24.9-19.4-18.8-20-34l-2.4-65c-1.2-23.7-31.5-39.5-50.4-51.6
			c-24.9-15.2-35.2-27.9-52.8-44.3c-10.9-10.3-18.8-11.5-15.2-18.2c12.1-22.5-27.3-35.2-18.2-42.5c9.7-7.9,22.5,21.3,24.9-23.1
			c2.4-44.3,10.9,45.5,13.4,56.5C199.1,472.2,281,532.9,286.5,507.4L286.5,507.4z"/>
	</g>
</g>
</svg>
