<?xml version="1.0" encoding="utf-8"?>
<!-- Generator: Adobe Illustrator 16.0.0, SVG Export Plug-In . SVG Version: 6.00 Build 0)  -->
<!DOCTYPE svg PUBLIC "-//W3C//DTD SVG 1.1//EN" "http://www.w3.org/Graphics/SVG/1.1/DTD/svg11.dtd">
<svg version="1.1" id="Layer_1" xmlns:figma="http://www.figma.com/figma/ns"
	 xmlns="http://www.w3.org/2000/svg" xmlns:xlink="http://www.w3.org/1999/xlink" x="0px" y="0px" width="6227.687px"
	 height="1440px" viewBox="-785.187 0 6227.687 1440" enable-background="new -785.187 0 6227.687 1440" xml:space="preserve">
<title>Logo</title>
<g>
	<path fill="#D7003F" d="M5011.326,212.729c0-17.962,14.549-32.516,32.514-32.516s32.516,14.554,32.516,32.516
		s-14.551,32.515-32.516,32.515S5011.326,230.691,5011.326,212.729z"/>
	<path d="M5185.732,492.188c-1.605,9.285,2.391,44.6-1.605,65.31c-3.967,20.71-16.459,49.892-22.312,58.925
		c-5.826,9.032-11.144-9.541-12.746-4.783c-1.603,4.783,7.707,15.138,3.181,33.457c-4.504,18.319-19.388,53.887-30.276,76.453
		c-10.892,22.568-22.847,42.489-35.062,58.95c-12.211,16.436-27.881,29.716-38.237,39.818
		c-10.381,10.073-17.021,16.714-23.917,20.709c-6.919,3.971-12.468,3.738-17.531,3.18c-5.088-0.56-10.504-7.326-12.896-6.539
		c-2.393,0.813-2.8-9.945-1.448,11.322c1.347,21.246,5.569,77.497,9.565,116.271c3.967,38.75,13,80.169,14.349,116.272
		c1.324,36.102-2.138,75.666-6.388,100.343c-4.25,24.68-11.142,31.6-19.133,47.781c-7.963,16.207-17.527,34.779-28.672,49.384
		c-11.17,14.604-24.451,26.282-38.266,38.214c-13.816,11.958-32.67,25.494-44.626,33.457c-11.958,7.964-20.455,11.145-27.097,14.35
		c-6.64,3.181-12.746,4.758-12.746,4.758c-2.928,0.814-9.031-0.787-4.783,0c4.248,0.814,18.344,4.783,30.299,4.783
		c11.938,0,30.506-3.205,41.424-4.783c10.912-1.551,24.041-4.604,24.041-4.604c6.106-1.603,7.33-7.049,12.621-4.937
		c5.291,2.087,13.56,13.255,19.133,17.504c5.569,4.248,14.349,7.966,14.349,7.966c2.899,1.603,1.043,3.205,3.181,1.603
		c2.111-1.603,7.176-6.642,9.567-11.144c2.392-4.529-0.536-15.673,4.78-15.929c5.293-0.278,16.717,10.607,27.098,14.322
		c10.355,3.716,24.704,6.923,35.061,7.967c10.354,1.067,21.446-1.121,27.095-1.578c5.623-0.484,6.666-1.299,6.666-1.299
		c0.815-1.322,2.418-3.715-1.881-6.664c-4.301-2.979-17.021-5.319-23.916-11.171c-6.923-5.826-12.746-15.393-17.53-23.891
		c-4.78-8.497-9.819-11.143-11.17-27.071c-1.324-15.927,0.815-42.995,3.209-68.49c2.39-25.492,9.028-59.737,11.141-84.417
		c2.137-24.679,2.393-40.886,1.605-63.707c-0.815-22.847-3.717-49.128-6.387-73.273c-2.648-24.17-6.359-51.24-9.568-71.671
		c-3.18-20.456-15.67-31.346-9.541-50.986c6.107-19.641,29.998-43.785,46.205-66.889c16.207-23.102,37.983-48.85,51.012-71.67
		c13.002-22.849,19.643-48.316,27.098-65.312c7.429-16.994,12.465-26.561,17.528-36.636c5.038-10.1,9.287-19.106,12.745-23.89
		c3.462-4.784,7.966-4.784,7.966-4.784c2.138-1.603,6.386-3.46,4.783-4.783s-14.353-3.18-14.353-3.18
		c-3.18-1.323-7.172,5.317-4.781-4.783c2.393-10.075,15.139-39.817,19.133-55.744c3.992-15.927,4.783-29.997,4.783-39.816
		c0-9.82-4.783-19.107-4.783-19.107C5192.371,497.759,5187.309,482.901,5185.732,492.188z"/>
	<path d="M5035.063,330.068c-3.231,3.486-10.765,20.965-15.267,31.244c-4.504,10.303-8.319,21.779-11.781,30.556
		c-3.459,8.803-5.903,17.123-9.006,22.211c-3.129,5.115-5.901,6.844-9.719,8.346c-3.815,1.5-9.465,1.272-13.181,0.688
		c-3.688-0.585-6.69-3.359-9.007-4.173c-2.314-0.789-2.188-1.374-4.859-0.687c-2.644,0.687-10.965-0.916-11.092,4.86
		c-0.102,5.8,7.504,18.751,10.405,29.868c2.901,11.095,4.86,19.082,6.92,36.79c2.087,17.708,4.399,48.724,5.573,69.433
		c1.143,20.71,2.798,44.779,1.371,54.854c-1.421,10.051-6.537,4.986-9.895,5.571c-3.358,0.561-4.353-0.712-10.203-2.112
		c-5.877-1.398-14.683-0.457-24.959-6.259c-10.306-5.774-26.004-18.497-36.765-28.442c-10.735-9.974-19.642-21.652-27.729-31.244
		c-8.094-9.617-16.414-16.792-20.789-26.383c-4.399-9.617-3.485-21.524-5.545-31.243c-2.088-9.72-5.09-17.25-6.945-27.097
		c-1.857-9.819-2.648-25.214-4.148-31.931c-1.525-6.716-3.815-10.532-4.859-8.318c-1.043,2.188-1.398,14.223-1.398,21.524
		c0,7.275,1.504,17.225,1.398,22.211c-0.127,4.96-0.814,6.131-2.087,7.632s-2.644,1.501-5.546,1.399
		c-2.898-0.127-8.904-0.357-11.775-2.086c-2.902-1.756-3.816-6.718-5.549-8.347c-1.731-1.603-3.588-1.959-4.859-1.374
		c-1.271,0.561-3.355,2.544-2.773,4.859c0.584,2.316,1.502,4.732,6.234,9.007c4.73,4.3,16.994,12.034,22.186,16.664
		c5.215,4.632,8.092,7.761,9.031,11.119c0.916,3.356-1.17,6.589-3.482,9.031c-2.316,2.417-11.098,1.502-10.408,5.547
		c0.713,4.045,5.318,9.362,14.577,18.751c9.237,9.362,28.878,27.299,40.911,37.476c12.012,10.202,19.057,15.394,31.193,23.61
		s29.817,16.309,41.601,25.697c11.776,9.361,23.584,24.299,29.13,30.556c5.521,6.233,3.257,4.249,4.045,6.896
		c0.814,2.669-0.127-10.967,0.814,9.058c0.94,20.023,1.194,89.859,4.834,111.081c3.639,21.244,12.82,17.505,16.996,16.358
		c4.146-1.171,8.369,4.886,7.963-23.28c-0.381-28.19-8.648-110.062-10.381-145.81c-1.758-35.747-0.812-48.265,0-68.745
		c0.787-20.481,1.271-32.159,4.832-54.142c3.588-21.981,11.449-54.624,16.643-77.777c5.215-23.126,10.992-45.567,14.577-61.086
		c3.588-15.495,6.104-25.57,6.92-31.931C5040.022,334.139,5038.293,326.608,5035.063,330.068z"/>
	<path d="M4683.121,512.847c0-13.918,11.345-25.188,25.338-25.188c13.992,0,25.342,11.27,25.342,25.188
		c0,13.916-11.35,25.188-25.342,25.188C4694.466,538.035,4683.121,526.763,4683.121,512.847z"/>
	<circle cx="4690.75" cy="314.549" r="25.34"/>
	<path d="M5286.711,373.625c0-13.916,11.349-25.188,25.342-25.188c13.992,0,25.34,11.271,25.34,25.188s-11.348,25.188-25.34,25.188
		C5298.06,398.813,5286.711,387.543,5286.711,373.625z"/>
	<path d="M5105.357,416.674c0-13.916,11.271-25.188,25.189-25.188c13.916,0,25.188,11.271,25.188,25.188
		s-11.271,25.189-25.188,25.189S5105.357,430.591,5105.357,416.674z"/>
	<circle cx="5216.492" cy="359.429" r="25.34"/>
	<path d="M5220.459,474.377c0-17.962,14.479-32.515,32.362-32.515c17.888,0,32.364,14.552,32.364,32.515
		s-14.479,32.515-32.364,32.515C5234.938,506.892,5220.459,492.34,5220.459,474.377z"/>
	<path d="M5231.146,273.179c0-17.962,14.478-32.515,32.362-32.515c17.887,0,32.363,14.552,32.363,32.515
		c0,17.963-14.479,32.515-32.363,32.515S5231.146,291.142,5231.146,273.179z"/>
	<path d="M4758.226,212.729c0-17.962,14.552-32.516,32.513-32.516c17.965,0,32.52,14.554,32.52,32.516s-14.555,32.515-32.52,32.515
		C4772.776,245.244,4758.226,230.691,4758.226,212.729z"/>
	<path d="M4688.613,416.064c0-17.962,14.479-32.516,32.361-32.516c17.887,0,32.365,14.554,32.365,32.516
		c0,17.962-14.479,32.515-32.365,32.515C4703.092,448.579,4688.613,434.026,4688.613,416.064z"/>
	<circle cx="4893.783" cy="395.455" r="25.34"/>
	<path d="M4938.051,308.9c0-15.928,12.924-28.851,28.851-28.851s28.853,12.923,28.853,28.851c0,15.928-12.926,28.852-28.853,28.852
		C4950.976,337.752,4938.051,324.828,4938.051,308.9z"/>
	<path d="M5056.512,305.542c0-15.927,12.925-28.853,28.852-28.853c15.926,0,28.852,12.925,28.852,28.853
		c0,15.926-12.925,28.851-28.852,28.851C5069.437,334.394,5056.512,321.469,5056.512,305.542z"/>
	<path d="M4757.002,328.288c0-20.915,16.944-37.859,37.86-37.859c20.91,0,37.854,16.945,37.854,37.859
		c0,20.913-16.944,37.857-37.854,37.857C4773.946,366.146,4757.002,349.201,4757.002,328.288z"/>
	<path d="M4865.082,229.673c0-20.913,16.945-37.858,37.857-37.858c20.913,0,37.857,16.945,37.857,37.858
		c0,20.914-16.944,37.858-37.857,37.858C4882.027,267.531,4865.082,250.587,4865.082,229.673z"/>
	<path d="M5123.371,222.651c0-20.914,16.945-37.858,37.857-37.858c20.916,0,37.859,16.944,37.859,37.858
		c0,20.913-16.943,37.858-37.859,37.858C5140.316,260.509,5123.371,243.564,5123.371,222.651z"/>
	<path d="M5059.26,89.842c0-20.913,16.943-37.857,37.856-37.857s37.858,16.945,37.858,37.857c0,20.914-16.945,37.858-37.858,37.858
		S5059.26,110.756,5059.26,89.842z"/>
	<path d="M4924.619,117.93c0-20.913,16.943-37.858,37.854-37.858c20.915,0,37.86,16.945,37.86,37.858
		c0,20.915-16.945,37.858-37.86,37.858C4941.562,155.788,4924.619,138.845,4924.619,117.93z"/>
</g>
</svg>
