<?xml version="1.0" encoding="utf-8"?>
<!-- Generator: Adobe Illustrator 16.0.0, SVG Export Plug-In . SVG Version: 6.00 Build 0)  -->
<!DOCTYPE svg PUBLIC "-//W3C//DTD SVG 1.1//EN" "http://www.w3.org/Graphics/SVG/1.1/DTD/svg11.dtd">
<svg version="1.1" id="Layer_1" xmlns:figma="http://www.figma.com/figma/ns"
	 xmlns="http://www.w3.org/2000/svg" xmlns:xlink="http://www.w3.org/1999/xlink" x="0px" y="0px" width="5442.5px" height="1440px"
	 viewBox="-1020.5 -160 5442.5 1440" enable-background="new -1020.5 -160 5442.5 1440" xml:space="preserve">
<rect x="1738.6" y="125.4" fill="#FFFFFF" width="2640.2" height="869.3"/>
<title>Logo</title>
<g>
	<g>
		<path d="M2209.5,799.8c-32.9,0-48.1-23.5-48.1-48.8v-96.6h-20.1v-27h20.1V574h35.3v53.3h33.9v27h-33.9v94.9
			c0,12.8,6.2,20.4,19.4,20.4h14.5v30.1H2209.5L2209.5,799.8z"/>
		<path d="M2300.5,722.3c0,30.1,15.9,49.2,44.6,49.2c19.7,0,30.1-5.5,42.6-18l22.5,21.1c-18,18-34.9,27.3-65.7,27.3
			c-43.9,0-78.9-23.2-78.9-90c0-56.8,29.4-89.7,74.4-89.7c47.1,0,74.4,34.6,74.4,84.5v15.6H2300.5L2300.5,722.3z M2374.7,673.7
			c-5.5-13.2-18-22.2-34.6-22.2c-16.6,0-29.4,9-34.9,22.2c-3.5,8-4.2,13.2-4.5,23.9h78.9C2379.2,686.9,2378.1,681.7,2374.7,673.7z"
			/>
		<path d="M2568.2,799.8v-107c0-27.3-15.6-39.1-35.3-39.1c-19.7,0-36.3,12.1-36.3,39.1v107h-35.3V624.2h34.6v17.7
			c12.1-13.2,29.1-19.7,46.7-19.7c18,0,32.9,5.9,43.2,15.9c13.5,13.2,17.6,29.8,17.6,49.5v112.2H2568.2L2568.2,799.8z"/>
		<path d="M2683.7,722.3c0,30.1,15.9,49.2,44.6,49.2c19.7,0,30.1-5.5,42.6-18l22.5,21.1c-18,18-34.9,27.3-65.7,27.3
			c-43.9,0-78.9-23.2-78.9-90c0-56.8,29.4-89.7,74.4-89.7c47.1,0,74.4,34.6,74.4,84.5v15.6H2683.7L2683.7,722.3z M2757.9,673.7
			c-5.5-13.2-18-22.2-34.6-22.2s-29.4,9-34.9,22.2c-3.5,8-4.2,13.2-4.5,23.9h78.9C2762.4,686.9,2761.3,681.7,2757.9,673.7z"/>
		<path d="M3057.9,799.8v-107c0-27.3-15.6-39.1-35.3-39.1c-19,0-36.3,12.1-36.3,37.4v108.7H2951v-107c0-27.3-15.6-39.1-35.3-39.1
			s-36.3,12.1-36.3,39.1v107H2844V624.2h34.6v17.7c11.8-12.8,29.1-19.7,46.7-19.7c21.8,0,38.7,8.7,49.8,25.6
			c14.2-17.3,31.8-25.6,55-25.6c18,0,33.9,5.9,44.3,15.9c13.5,13.2,18.7,29.8,18.7,49.5v112.2H3057.9L3057.9,799.8z"/>
		<path d="M3264.9,781.1c-11.4,11.8-28.7,20.8-52.6,20.8c-23.9,0-40.8-9-52.2-20.8c-16.6-17.3-20.8-39.5-20.8-69.2
			c0-29.4,4.2-51.6,20.8-68.9c11.4-11.8,28.4-20.8,52.2-20.8c23.9,0,41.2,9,52.6,20.8c16.6,17.3,20.8,39.5,20.8,68.9
			C3285.7,741.6,3281.5,763.8,3264.9,781.1z M3238.3,663.7c-6.6-6.6-15.6-10-25.9-10c-10.4,0-19,3.5-25.6,10
			c-10.7,10.7-12.1,29.1-12.1,48.1c0,19,1.4,37.4,12.1,48.1c6.6,6.6,15.2,10.4,25.6,10.4s19.4-3.8,25.9-10.4
			c10.7-10.7,12.1-29.1,12.1-48.1C3250.4,692.8,3249,674.4,3238.3,663.7z"/>
		<path d="M3390.3,801.9c-28.7,0-52.9-4.8-73.7-25.3l23.2-23.2c14.2,14.5,33.2,18.3,50.5,18.3c21.5,0,38.4-7.6,38.4-24.2
			c0-11.8-6.6-19.4-23.5-20.8l-28-2.4c-32.9-2.8-51.9-17.7-51.9-48.5c0-34.3,29.4-53.7,66.1-53.7c26.3,0,48.8,5.5,65,19.7
			l-22.1,22.5c-11.1-9.3-26.6-12.8-43.2-12.8c-21.1,0-31.8,9.3-31.8,22.5c0,10.4,5.5,18.3,24.2,20.1l27.7,2.4
			c32.9,2.8,52.2,18.3,52.2,49.5C3463.3,782.8,3432.1,801.9,3390.3,801.9z"/>
	</g>
	<g>
		<path d="M2191.7,951.8c-18,0-31-12.3-31-30.1V862h9.5V921c0,13.5,8.5,22.4,21.5,22.4c13,0,21.6-8.8,21.6-22.4V862h9.5v59.6
			C2222.8,939.4,2209.7,951.8,2191.7,951.8z"/>
		<path d="M2420.8,951.1l-20.3-39.5h-21.3v39.5h-9.5v-89h34.1c15.5,0,26.4,9.4,26.4,24.8c0,13-7.8,21.5-19.4,23.9l21.1,40.4H2420.8
			L2420.8,951.1z M2402.9,870.6h-23.8v32.6h23.8c10.4,0,17.8-5.4,17.8-16.2S2413.3,870.6,2402.9,870.6z"/>
		<path d="M2603.9,951.8c-18,0-31-12.3-31-30.1V862h9.5V921c0,13.5,8.5,22.4,21.5,22.4c13,0,21.7-8.8,21.7-22.4V862h9.5v59.6
			C2635,939.4,2621.9,951.8,2603.9,951.8z"/>
		<path d="M2833.4,941.5c-6.2,6.8-14.6,10.2-23.8,10.2c-8.8,0-16.8-3.3-22.7-9.2c-8.4-8.4-8.4-17.2-8.4-36c0-18.9,0-27.6,8.4-36
			c6-6,13.9-9.2,22.7-9.2c17,0,28.5,11,31.1,26.6h-9.5c-2.5-11.3-10.5-18.2-21.6-18.2c-5.9,0-11.5,2.4-15.4,6.4
			c-5.6,5.7-6.2,11.7-6.2,30.3c0,18.6,0.6,24.8,6.2,30.5c3.9,4,9.5,6.3,15.4,6.3c6.5,0,12.7-2.6,16.8-7.6c3.6-4.3,5-9.2,5-16.1v-6.8
			h-21.9v-8.4h31.4v14.1C2841,928.8,2838.9,935.7,2833.4,941.5z"/>
		<path d="M3015.3,951.8c-18,0-31-12.3-31-30.1V862h9.5V921c0,13.5,8.5,22.4,21.5,22.4c13,0,21.7-8.8,21.7-22.4V862h9.5v59.6
			C3046.4,939.4,3033.3,951.8,3015.3,951.8z"/>
		<path d="M3245.2,951.1l-7.1-20.1h-38.9l-7.1,20.1H3182l32.8-89h8l32.6,89H3245.2z M3218.8,875.7l-16.8,47h33.2L3218.8,875.7z"/>
		<path d="M3416.3,914.3v36.8h-9.5v-36.8l-26.5-52.2h10.2l21,42.6l20.7-42.6h10.2L3416.3,914.3z"/>
	</g>
	<g>
		<path fill="#CC0033" d="M3522.9,951.7V602h223.5v47.7H3576v102.2h145.4V799H3576v105.2h170.4v47.7h-223.5V951.7z"/>
		<path fill="#CC0033" d="M3823.4,951.7V602h53v302.2h168.4v47.7L3823.4,951.7L3823.4,951.7z"/>
		<path fill="#CC0033" d="M4311,951.7l-24.1-70.2h-138l-24.1,70.2h-56.5l128.1-349.8h42.7l128.1,349.8H4311z M4219.1,681
			l-54.5,155.2h107.5L4219.1,681z"/>
	</g>
	<g>
		<path d="M1892.2,287.3c13.1,0,24.3-10.2,24.3-22.4c0-12.2-11.2-22.4-24.3-22.4c-13.6,0-24.3,10.2-24.3,22.4
			C1867.9,277.1,1878.6,287.3,1892.2,287.3L1892.2,287.3z"/>
		<path d="M1840.7,342.2c13.1,0,24.3-9.7,24.3-22.4c0-12.2-11.2-22.4-24.3-22.4c-13.6,0-24.3,10.2-24.3,22.4
			C1816.4,332.5,1827.1,342.2,1840.7,342.2L1840.7,342.2z"/>
		<path d="M2002.1,212.9c13.6,0,24.8-9.7,24.8-22.4c0-12.2-11.2-22.4-24.8-22.4c-13.1,0-24.3,10.2-24.3,22.4
			C1977.8,203.2,1989,212.9,2002.1,212.9L2002.1,212.9z"/>
		<path d="M2039.5,265.9c13.1,0,24.3-10.2,24.3-22.4c0-12.7-11.2-22.9-24.3-22.9c-13.6,0-24.3,10.2-24.3,22.9
			C2015.2,255.7,2025.9,265.9,2039.5,265.9L2039.5,265.9z"/>
		<path d="M2070.2,359.8c13.6,0,24.8-10.2,24.8-22.4c0-12.7-11.2-22.4-24.8-22.4c-13.1,0-24.3,9.7-24.3,22.4
			C2045.9,349.5,2057.1,359.8,2070.2,359.8L2070.2,359.8z"/>
		<path d="M2022.1,402.6c13.6,0,24.3-10.2,24.3-22.4c0-12.2-10.7-22.4-24.3-22.4s-24.3,10.2-24.3,22.4
			C1997.8,392.3,2008.4,402.6,2022.1,402.6L2022.1,402.6z"/>
		<path d="M1767.2,456.1c13.6,0,24.3-10.2,24.3-22.4c0-12.7-10.7-22.8-24.3-22.8c-13.1-0.1-24.3,10.1-24.3,22.7
			C1743,445.9,1754.1,456.1,1767.2,456.1L1767.2,456.1z"/>
		<path d="M1887.4,385.1c13.6,0,24.3-10.2,24.3-22.4c0-12.7-10.7-22.9-24.3-22.9c-13.1,0-24.3,10.2-24.3,22.9
			C1863,374.8,1874.2,385.1,1887.4,385.1L1887.4,385.1z"/>
		<path fill="#CC0033" d="M1968.6,273.2c13.1,0,24.3-10.2,24.3-22.8c0-12.2-11.2-22.4-24.3-22.4c-13.6,0-24.8,10.2-24.8,22.4
			C1943.7,263,1954.9,273.2,1968.6,273.2L1968.6,273.2z"/>
		<path d="M1793.6,401.1c13.1,0,24.3-10.2,24.3-22.4c0-12.2-11.2-22.4-24.3-22.4c-13.6,0-24.8,10.2-24.8,22.4
			C1768.7,390.9,1779.9,401.1,1793.6,401.1L1793.6,401.1z"/>
		<path d="M2096.4,434.7c13.1,0,24.3-10.2,24.3-22.9c0-12.2-11.2-22.4-24.3-22.4c-13.6,0-24.8,10.2-24.8,22.4
			C2071.7,424.4,2082.8,434.7,2096.4,434.7L2096.4,434.7z"/>
		<path d="M2006,331.1c13.6,0,24.3-10.2,24.3-22.4c0-12.7-10.7-22.4-24.3-22.4c-13.6,0-24.3,9.7-24.3,22.4
			C1981.7,320.8,1992.4,331.1,2006,331.1L2006,331.1z"/>
		<path d="M1928.7,336.9c13.6,0,24.3-9.7,24.3-22.4c0-12.2-10.7-22.4-24.3-22.4c-13.1,0-24.3,10.2-24.3,22.4
			C1904.4,327.2,1915.6,336.9,1928.7,336.9L1928.7,336.9z"/>
		<path d="M1926.3,225.5c13.6,0,24.3-9.7,24.3-22.4c0-12.2-10.7-22.4-24.3-22.4s-24.3,10.2-24.3,22.4
			C1901.9,215.8,1912.6,225.5,1926.3,225.5L1926.3,225.5z"/>
		<path d="M2102.2,306.2c13.6,0,24.3-10.2,24.3-22.8c0-12.2-10.7-22.4-24.3-22.4c-13.1,0-24.3,10.2-24.3,22.4
			C2077.9,296.1,2089.1,306.2,2102.2,306.2L2102.2,306.2z"/>
		<path d="M1766.8,334.5c13.6,0,24.8-10.2,24.8-22.4c0-12.7-11.2-22.9-24.8-22.9c-13.1,0-24.3,10.2-24.3,22.9
			C1742.5,324.2,1753.7,334.5,1766.8,334.5L1766.8,334.5z"/>
		<path d="M2134.8,373.4c13.6,0,24.3-9.7,24.3-22.4c0-12.2-10.7-22.4-24.3-22.4c-13.6,0-24.3,10.2-24.3,22.4
			C2110.5,363.7,2121.3,373.4,2134.8,373.4L2134.8,373.4z"/>
		<path d="M1824.1,272.2c13.6,0,24.3-10.2,24.3-22.4c0-12.7-10.7-22.4-24.3-22.4s-24.3,9.7-24.3,22.4
			C1799.8,262,1810.6,272.2,1824.1,272.2L1824.1,272.2z"/>
		<path d="M1838.3,946.9c30.1,1.9,40.4,0.5,66.1-6.8c23.4,22.8,21.9,5.8,25.8,1.5c19.5,4.3,23.4,11.6,53.5,8.2
			c-7.3-15.6-34.5-7.8-31.1-59.8c1.9-28.2,10.2-53.5,10.2-83.2c5.8-70.6-27.2-109,5.8-155.6c45.7-54,42.8-67.6,74.9-117.2
			c5.8-8.8-9.2,0-9.2-2.4c3.4-18.5,18.9-65.2,3.9-72c-8.3-3.4-2.9,47.7-11.6,62.8c-6.8,12.7-10.2,1.5-10.7,6.3
			c-3.9,39.4-51.1,117.2-85.5,127.9c-16.1,4.9,51.1,160-25.3,244.6c-11.2,12.7-29.6,25.8-46.2,34.1L1838.3,946.9z"/>
		<path d="M1921.9,517.9c5.8-26.8-12.7-85.6-13.6-106c-0.9-20.9,3.4,2.9,21.9-4.9c11.6-5.4,9.2-48.7,29.2-55
			c11.2-3.4-19.9,86.5-22.8,133.7c-0.9,19.9,4.9,151.3,4.3,152.3c-18,19.9-15.6-15.1-16.1-27.2l-1.9-52.1
			c-0.9-18.9-25.3-31.6-40.4-41.4c-19.9-12.2-28.2-22.4-42.3-35.5c-8.8-8.3-15.1-9.2-12.2-14.6c9.7-18-21.9-28.3-14.6-34.1
			c7.8-6.3,18,17,19.9-18.5c1.9-35.5,8.8,36.5,10.7,45.2C1851.8,489.6,1917.5,538.3,1921.9,517.9L1921.9,517.9z"/>
	</g>
</g>
</svg>
