<?xml version="1.0" encoding="utf-8"?>
<!-- Generator: Adobe Illustrator 16.0.0, SVG Export Plug-In . SVG Version: 6.00 Build 0)  -->
<!DOCTYPE svg PUBLIC "-//W3C//DTD SVG 1.1//EN" "http://www.w3.org/Graphics/SVG/1.1/DTD/svg11.dtd">
<svg version="1.1" id="Layer_1" xmlns:figma="http://www.figma.com/figma/ns"
	 xmlns="http://www.w3.org/2000/svg" xmlns:xlink="http://www.w3.org/1999/xlink" x="0px" y="0px" width="5442.5px" height="1440px"
	 viewBox="0 0 5442.5 1440" enable-background="new 0 0 5442.5 1440" xml:space="preserve">
<title>Logo</title>
<g>
	<path fill-rule="evenodd" clip-rule="evenodd" fill="#D7003F" d="M5011.326,212.729c0-17.962,14.55-32.516,32.514-32.516
		s32.516,14.554,32.516,32.516s-14.552,32.515-32.516,32.515S5011.326,230.691,5011.326,212.729z"/>
	<path fill-rule="evenodd" clip-rule="evenodd" d="M5185.733,492.187c-1.605,9.286,2.39,44.6-1.605,65.31
		c-3.968,20.71-16.46,49.892-22.312,58.925c-5.826,9.032-11.144-9.541-12.746-4.783c-1.603,4.783,7.707,15.137,3.181,33.457
		c-4.505,18.319-19.388,53.886-30.277,76.453c-10.891,22.568-22.847,42.489-35.061,58.95
		c-12.212,16.436-27.882,29.716-38.238,39.818c-10.381,10.074-17.021,16.714-23.917,20.709c-6.919,3.971-12.468,3.739-17.531,3.18
		c-5.088-0.559-10.505-7.326-12.897-6.539c-2.393,0.814-2.8-9.945-1.448,11.322c1.347,21.246,5.57,77.497,9.565,116.271
		c3.968,38.75,13,80.169,14.349,116.272c1.324,36.102-2.137,75.666-6.388,100.343c-4.249,24.68-11.141,31.6-19.132,47.781
		c-7.963,16.207-17.528,34.779-28.672,49.384c-11.171,14.604-24.451,26.282-38.266,38.214
		c-13.816,11.958-32.67,25.494-44.626,33.457c-11.958,7.964-20.455,11.144-27.097,14.349c-6.639,3.181-12.746,4.758-12.746,4.758
		c-2.927,0.815-9.031-0.787-4.783,0c4.249,0.815,18.344,4.783,30.3,4.783c11.937,0,30.506-3.205,41.424-4.783
		c10.912-1.55,24.041-4.604,24.041-4.604c6.106-1.603,7.329-7.049,12.621-4.937c5.29,2.087,13.559,13.255,19.132,17.504
		c5.57,4.248,14.349,7.966,14.349,7.966c2.899,1.603,1.043,3.205,3.18,1.603c2.112-1.603,7.176-6.642,9.568-11.144
		c2.391-4.529-0.536-15.673,4.78-15.929c5.293-0.278,16.717,10.608,27.098,14.323c10.355,3.715,24.704,6.922,35.06,7.966
		c10.354,1.068,21.447-1.121,27.095-1.578c5.623-0.484,6.666-1.299,6.666-1.299c0.815-1.322,2.418-3.715-1.881-6.664
		c-4.301-2.979-17.021-5.319-23.916-11.171c-6.923-5.826-12.746-15.392-17.531-23.89c-4.78-8.497-9.819-11.143-11.169-27.072
		c-1.324-15.926,0.815-42.995,3.208-68.49c2.39-25.492,9.029-59.737,11.141-84.417c2.137-24.679,2.393-40.886,1.605-63.707
		c-0.815-22.846-3.717-49.128-6.386-73.273c-2.648-24.17-6.36-51.24-9.568-71.671c-3.18-20.456-15.67-31.346-9.541-50.986
		c6.107-19.641,29.997-43.786,46.204-66.889c16.207-23.102,37.984-48.85,51.012-71.67c13.002-22.849,19.643-48.316,27.097-65.313
		c7.429-16.994,12.465-26.56,17.529-36.635c5.038-10.1,9.287-19.107,12.745-23.89c3.462-4.784,7.966-4.784,7.966-4.784
		c2.137-1.603,6.386-3.46,4.783-4.783c-1.603-1.323-14.352-3.18-14.352-3.18c-3.18-1.323-7.173,5.317-4.782-4.783
		c2.393-10.075,15.139-39.817,19.134-55.744c3.992-15.927,4.783-29.997,4.783-39.817s-4.783-19.107-4.783-19.107
		C5192.372,497.759,5187.309,482.901,5185.733,492.187z"/>
	<path fill-rule="evenodd" clip-rule="evenodd" d="M5035.064,330.068c-3.232,3.486-10.764,20.965-15.266,31.244
		c-4.505,10.303-8.32,21.779-11.782,30.556c-3.458,8.803-5.903,17.123-9.006,22.211c-3.129,5.115-5.901,6.844-9.718,8.346
		c-3.816,1.5-9.466,1.272-13.181,0.687c-3.689-0.585-6.691-3.359-9.007-4.173c-2.315-0.789-2.187-1.374-4.859-0.687
		c-2.644,0.687-10.965-0.916-11.092,4.86c-0.102,5.8,7.504,18.751,10.405,29.869c2.902,11.094,4.86,19.082,6.92,36.79
		c2.087,17.708,4.4,48.723,5.573,69.432c1.143,20.71,2.798,44.779,1.371,54.854c-1.421,10.05-6.537,4.986-9.894,5.571
		c-3.359,0.561-4.353-0.712-10.204-2.112c-5.876-1.399-14.682-0.457-24.958-6.259c-10.306-5.775-26.004-18.497-36.765-28.443
		c-10.736-9.973-19.641-21.652-27.73-31.244c-8.093-9.617-16.413-16.792-20.789-26.382c-4.399-9.618-3.485-21.525-5.545-31.244
		c-2.088-9.719-5.089-17.25-6.945-27.096c-1.858-9.82-2.648-25.214-4.148-31.931c-1.526-6.716-3.816-10.532-4.86-8.318
		c-1.043,2.188-1.398,14.222-1.398,21.524c0,7.276,1.503,17.225,1.398,22.211c-0.127,4.96-0.814,6.131-2.087,7.632
		c-1.272,1.501-2.644,1.501-5.546,1.399c-2.899-0.127-8.904-0.357-11.776-2.086c-2.902-1.755-3.816-6.717-5.549-8.346
		c-1.731-1.603-3.588-1.959-4.859-1.374c-1.272,0.56-3.356,2.544-2.773,4.859c0.584,2.316,1.501,4.732,6.234,9.007
		c4.73,4.3,16.994,12.034,22.185,16.664c5.216,4.632,8.093,7.761,9.032,11.119c0.916,3.357-1.171,6.589-3.483,9.031
		c-2.316,2.417-11.097,1.502-10.408,5.547c0.713,4.045,5.319,9.363,14.577,18.751c9.237,9.363,28.878,27.299,40.911,37.476
		c12.011,10.202,19.057,15.393,31.194,23.61s29.817,16.309,41.6,25.697c11.777,9.362,23.584,24.299,29.13,30.556
		c5.521,6.234,3.257,4.249,4.045,6.897c0.814,2.669-0.127-10.967,0.814,9.057s1.195,89.86,4.835,111.081
		c3.638,21.244,12.82,17.505,16.995,16.359c4.146-1.171,8.37,4.885,7.963-23.281c-0.38-28.19-8.648-110.062-10.381-145.809
		c-1.757-35.747-0.812-48.265,0-68.745c0.788-20.482,1.272-32.159,4.833-54.142c3.588-21.981,11.449-54.624,16.642-77.777
		c5.215-23.126,10.992-45.567,14.577-61.086c3.588-15.495,6.104-25.57,6.92-31.931
		C5040.023,334.139,5038.294,326.608,5035.064,330.068z"/>
	<path fill-rule="evenodd" clip-rule="evenodd" d="M4683.121,512.847c0-13.918,11.345-25.188,25.338-25.188
		s25.343,11.27,25.343,25.188c0,13.916-11.35,25.188-25.343,25.188S4683.121,526.763,4683.121,512.847z"/>
	<circle fill-rule="evenodd" clip-rule="evenodd" cx="4690.751" cy="314.549" r="25.34"/>
	<path fill-rule="evenodd" clip-rule="evenodd" d="M5286.712,373.625c0-13.916,11.348-25.188,25.341-25.188
		s25.34,11.271,25.34,25.188c0,13.917-11.347,25.188-25.34,25.188S5286.712,387.543,5286.712,373.625z"/>
	<path fill-rule="evenodd" clip-rule="evenodd" d="M5105.358,416.674c0-13.916,11.272-25.188,25.189-25.188
		c13.916,0,25.188,11.271,25.188,25.188c0,13.917-11.272,25.189-25.188,25.189C5116.631,441.863,5105.358,430.591,5105.358,416.674z
		"/>
	<circle fill-rule="evenodd" clip-rule="evenodd" cx="5216.493" cy="359.429" r="25.34"/>
	<path fill-rule="evenodd" clip-rule="evenodd" d="M5220.46,474.377c0-17.962,14.479-32.515,32.362-32.515
		c17.887,0,32.364,14.552,32.364,32.515s-14.478,32.515-32.364,32.515C5234.938,506.892,5220.46,492.34,5220.46,474.377z"/>
	<path fill-rule="evenodd" clip-rule="evenodd" d="M5231.146,273.179c0-17.962,14.478-32.515,32.362-32.515
		c17.887,0,32.364,14.552,32.364,32.515s-14.478,32.515-32.364,32.515C5245.624,305.694,5231.146,291.142,5231.146,273.179z"/>
	<path fill-rule="evenodd" clip-rule="evenodd" d="M4758.226,212.729c0-17.962,14.552-32.516,32.513-32.516
		c17.964,0,32.519,14.554,32.519,32.516s-14.555,32.515-32.519,32.515C4772.777,245.244,4758.226,230.691,4758.226,212.729z"/>
	<path fill-rule="evenodd" clip-rule="evenodd" d="M4688.614,416.064c0-17.962,14.478-32.516,32.361-32.516
		c17.887,0,32.365,14.554,32.365,32.516s-14.479,32.515-32.365,32.515C4703.092,448.579,4688.614,434.026,4688.614,416.064z"/>
	<circle fill-rule="evenodd" clip-rule="evenodd" cx="4893.783" cy="395.455" r="25.34"/>
	<path fill-rule="evenodd" clip-rule="evenodd" d="M4938.051,308.9c0-15.928,12.925-28.851,28.851-28.851
		c15.927,0,28.852,12.923,28.852,28.851s-12.925,28.852-28.852,28.852C4950.976,337.752,4938.051,324.828,4938.051,308.9z"/>
	<path fill-rule="evenodd" clip-rule="evenodd" d="M5056.512,305.542c0-15.927,12.925-28.853,28.851-28.853
		c15.927,0,28.852,12.925,28.852,28.853c0,15.926-12.925,28.851-28.852,28.851C5069.437,334.394,5056.512,321.469,5056.512,305.542z
		"/>
	<path fill-rule="evenodd" clip-rule="evenodd" d="M4757.003,328.288c0-20.915,16.944-37.859,37.86-37.859
		c20.91,0,37.855,16.945,37.855,37.859c0,20.913-16.945,37.857-37.855,37.857C4773.947,366.146,4757.003,349.201,4757.003,328.288z"
		/>
	<path fill-rule="evenodd" clip-rule="evenodd" d="M4865.083,229.673c0-20.913,16.945-37.858,37.857-37.858
		c20.913,0,37.858,16.945,37.858,37.858c0,20.914-16.945,37.858-37.858,37.858C4882.028,267.531,4865.083,250.587,4865.083,229.673z
		"/>
	<path fill-rule="evenodd" clip-rule="evenodd" d="M5123.372,222.651c0-20.914,16.945-37.858,37.857-37.858
		c20.916,0,37.86,16.944,37.86,37.858c0,20.913-16.944,37.858-37.86,37.858C5140.317,260.509,5123.372,243.564,5123.372,222.651z"/>
	<path fill-rule="evenodd" clip-rule="evenodd" d="M5059.26,89.842c0-20.913,16.944-37.857,37.857-37.857
		s37.858,16.945,37.858,37.857c0,20.914-16.945,37.858-37.858,37.858S5059.26,110.756,5059.26,89.842z"/>
	<path fill-rule="evenodd" clip-rule="evenodd" d="M4924.619,117.93c0-20.913,16.944-37.858,37.855-37.858
		c20.915,0,37.86,16.945,37.86,37.858c0,20.915-16.945,37.858-37.86,37.858C4941.563,155.788,4924.619,138.845,4924.619,117.93z"/>
</g>
</svg>
