<?xml version="1.0" encoding="utf-8"?>
<!-- Generator: Adobe Illustrator 16.0.0, SVG Export Plug-In . SVG Version: 6.00 Build 0)  -->
<!DOCTYPE svg PUBLIC "-//W3C//DTD SVG 1.1//EN" "http://www.w3.org/Graphics/SVG/1.1/DTD/svg11.dtd">
<svg version="1.1" id="Layer_1" xmlns:figma="http://www.figma.com/figma/ns"
	 xmlns="http://www.w3.org/2000/svg" xmlns:xlink="http://www.w3.org/1999/xlink" x="0px" y="0px" width="1120px" height="1120px"
	 viewBox="0 0 1120 1120" enable-background="new 0 0 1120 1120" xml:space="preserve">
<title>Logo</title>
<g>
	<circle fill="#CC0033" cx="560" cy="560" r="538.65"/>
	<g>
		<path fill="#FFFFFF" d="M565.402,197.817c0-9.778,7.923-17.7,17.7-17.7c9.776,0,17.701,7.922,17.701,17.7
			c0,9.779-7.925,17.7-17.701,17.7C573.324,215.518,565.402,207.597,565.402,197.817z"/>
		<path fill="#FFFFFF" d="M660.344,349.946c-0.873,5.057,1.302,24.278-0.873,35.554c-2.16,11.274-8.961,27.159-12.146,32.076
			c-3.172,4.917-6.066-5.193-6.938-2.604c-0.873,2.604,4.194,8.242,1.729,18.212c-2.452,9.973-10.553,29.333-16.481,41.62
			c-5.928,12.283-12.437,23.128-19.086,32.09c-6.647,8.946-15.18,16.177-20.815,21.677c-5.649,5.482-9.265,9.096-13.019,11.271
			c-3.767,2.162-6.786,2.038-9.543,1.731c-2.77-0.303-5.721-3.987-7.021-3.561c-1.301,0.445-1.522-5.413-0.791,6.166
			c0.735,11.564,3.035,42.187,5.208,63.293c2.161,21.096,7.079,43.643,7.812,63.297c0.72,19.652-1.164,41.188-3.477,54.623
			c-2.312,13.436-6.068,17.202-10.417,26.01c-4.335,8.823-9.542,18.934-15.606,26.883c-6.08,7.949-13.312,14.308-20.832,20.803
			c-7.52,6.511-17.782,13.88-24.291,18.213c-6.511,4.337-11.136,6.066-14.752,7.812c-3.614,1.73-6.938,2.589-6.938,2.589
			c-1.593,0.442-4.916-0.427-2.604,0c2.312,0.442,9.985,2.604,16.496,2.604c6.494,0,16.604-1.746,22.545-2.604
			c5.943-0.844,13.09-2.504,13.09-2.504c3.324-0.874,3.988-3.839,6.869-2.689c2.881,1.136,7.382,7.217,10.416,9.529
			c3.032,2.312,7.811,4.337,7.811,4.337c1.58,0.87,0.568,1.744,1.73,0.87c1.15-0.87,3.906-3.614,5.207-6.063
			c1.305-2.468-0.287-8.531,2.606-8.673c2.88-0.149,9.098,5.775,14.749,7.798c5.638,2.021,13.448,3.769,19.086,4.337
			c5.637,0.582,11.675-0.609,14.748-0.859c3.062-0.264,3.629-0.706,3.629-0.706c0.443-0.721,1.314-2.022-1.023-3.627
			c-2.343-1.624-9.267-2.897-13.02-6.082c-3.768-3.173-6.941-8.38-9.543-13.004c-2.605-4.627-5.347-6.066-6.081-14.739
			c-0.72-8.668,0.444-23.403,1.745-37.283c1.302-13.877,4.918-32.517,6.066-45.954c1.164-13.434,1.302-22.257,0.871-34.679
			c-0.441-12.438-2.02-26.745-3.477-39.889c-1.438-13.158-3.462-27.894-5.206-39.017c-1.731-11.134-8.532-17.063-5.194-27.754
			c3.325-10.693,16.329-23.837,25.152-36.414c8.822-12.576,20.677-26.589,27.77-39.015c7.076-12.438,10.691-26.302,14.75-35.554
			c4.043-9.251,6.785-14.458,9.543-19.943c2.741-5.497,5.056-10.401,6.938-13.003c1.884-2.605,4.336-2.605,4.336-2.605
			c1.163-0.873,3.477-1.883,2.604-2.604c-0.871-0.721-7.812-1.73-7.812-1.73c-1.731-0.72-3.905,2.896-2.604-2.604
			c1.304-5.484,8.241-21.676,10.416-30.347c2.175-8.669,2.604-16.328,2.604-21.676c0-5.344-2.604-10.4-2.604-10.4
			C663.957,352.979,661.201,344.891,660.344,349.946z"/>
		<path fill="#FFFFFF" d="M578.324,261.692c-1.759,1.899-5.857,11.413-8.311,17.01c-2.451,5.607-4.528,11.855-6.414,16.634
			c-1.884,4.791-3.211,9.32-4.902,12.091c-1.704,2.785-3.213,3.727-5.29,4.542c-2.078,0.817-5.152,0.693-7.175,0.375
			c-2.008-0.318-3.643-1.828-4.902-2.271c-1.26-0.43-1.192-0.748-2.645-0.375c-1.441,0.375-5.971-0.498-6.04,2.646
			c-0.056,3.158,4.086,10.209,5.665,16.26c1.577,6.04,2.646,10.389,3.768,20.028c1.135,9.64,2.396,26.521,3.033,37.796
			c0.623,11.274,1.522,24.376,0.748,29.861c-0.775,5.47-3.561,2.713-5.39,3.032c-1.827,0.307-2.366-0.387-5.553-1.149
			c-3.201-0.761-7.991-0.249-13.588-3.407c-5.606-3.144-14.153-10.069-20.012-15.482c-5.847-5.43-10.693-11.786-15.097-17.01
			c-4.404-5.232-8.934-9.141-11.315-14.359c-2.396-5.237-1.896-11.72-3.019-17.011c-1.138-5.29-2.771-9.39-3.781-14.749
			c-1.012-5.346-1.439-13.726-2.258-17.381c-0.832-3.656-2.078-5.734-2.646-4.528c-0.568,1.189-0.764,7.741-0.764,11.716
			c0,3.962,0.816,9.377,0.764,12.092c-0.071,2.699-0.443,3.337-1.136,4.155c-0.693,0.816-1.44,0.816-3.021,0.761
			c-1.579-0.068-4.848-0.193-6.414-1.134c-1.579-0.957-2.077-3.658-3.019-4.545c-0.941-0.871-1.953-1.066-2.646-0.746
			c-0.693,0.304-1.829,1.385-1.51,2.645c0.319,1.261,0.816,2.575,3.395,4.902c2.576,2.341,9.25,6.552,12.075,9.073
			c2.839,2.521,4.404,4.223,4.917,6.05c0.499,1.829-0.637,3.587-1.896,4.918c-1.26,1.313-6.037,0.815-5.664,3.019
			c0.388,2.202,2.894,5.097,7.937,10.208c5.026,5.098,15.72,14.86,22.271,20.4c6.536,5.554,10.374,8.38,16.979,12.853
			c6.606,4.474,16.231,8.878,22.645,13.99c6.415,5.097,12.841,13.227,15.858,16.634c3.006,3.392,1.773,2.312,2.202,3.753
			c0.443,1.454-0.069-5.97,0.443,4.93c0.513,10.9,0.649,48.919,2.631,60.469c1.981,11.564,6.981,9.529,9.253,8.905
			c2.257-0.635,4.556,2.659,4.335-12.674c-0.209-15.346-4.711-59.914-5.652-79.371c-0.954-19.46-0.441-26.275,0-37.425
			c0.431-11.147,0.693-17.506,2.634-29.473c1.952-11.966,6.232-29.736,9.057-42.34c2.84-12.589,5.982-24.805,7.936-33.253
			c1.954-8.436,3.324-13.919,3.77-17.382C581.025,263.91,580.082,259.811,578.324,261.692z"/>
		<path fill="#FFFFFF" d="M386.737,361.191c0-7.574,6.179-13.71,13.796-13.71c7.618,0,13.794,6.136,13.794,13.71
			c0,7.576-6.176,13.711-13.794,13.711C392.915,374.902,386.737,368.769,386.737,361.191z"/>
		<path fill="#FFFFFF" d="M377.099,253.246c0-7.618,6.176-13.793,13.792-13.793c7.617,0,13.797,6.176,13.797,13.793
			s-6.179,13.795-13.797,13.795C383.275,267.042,377.099,260.863,377.099,253.246z"/>
		<path fill="#FFFFFF" d="M715.314,285.406c0-7.577,6.178-13.713,13.795-13.713c7.618,0,13.795,6.136,13.795,13.713
			c0,7.575-6.179,13.71-13.795,13.71C721.492,299.117,715.314,292.98,715.314,285.406z"/>
		<path fill="#FFFFFF" d="M616.59,308.84c0-7.577,6.137-13.712,13.713-13.712c7.575,0,13.711,6.135,13.711,13.712
			c0,7.576-6.136,13.712-13.711,13.712C622.727,322.552,616.59,316.416,616.59,308.84z"/>
		<circle fill="#FFFFFF" cx="677.088" cy="277.678" r="13.795"/>
		<path fill="#FFFFFF" d="M679.248,340.251c0-9.779,7.881-17.699,17.618-17.699c9.736,0,17.617,7.92,17.617,17.699
			c0,9.778-7.882,17.699-17.617,17.699C687.128,357.951,679.248,350.029,679.248,340.251z"/>
		<path fill="#FFFFFF" d="M685.067,230.726c0-9.777,7.88-17.699,17.617-17.699c9.736,0,17.615,7.922,17.615,17.699
			c0,9.778-7.879,17.699-17.615,17.699C692.947,248.425,685.067,240.504,685.067,230.726z"/>
		<path fill="#FFFFFF" d="M427.623,197.817c0-9.778,7.921-17.7,17.7-17.7c9.778,0,17.699,7.922,17.699,17.7
			c0,9.779-7.921,17.7-17.699,17.7S427.623,207.597,427.623,197.817z"/>
		<path fill="#FFFFFF" d="M389.729,308.507c0-9.778,7.881-17.7,17.617-17.7c9.735,0,17.617,7.922,17.617,17.7
			c0,9.779-7.882,17.7-17.617,17.7C397.61,326.207,389.729,318.287,389.729,308.507z"/>
		<path fill="#FFFFFF" d="M487.62,297.29c0-7.618,6.179-13.796,13.796-13.796s13.793,6.178,13.793,13.796
			s-6.176,13.793-13.793,13.793S487.62,304.908,487.62,297.29z"/>
		<path fill="#FFFFFF" d="M525.514,250.171c0-8.672,7.035-15.705,15.707-15.705c8.67,0,15.703,7.034,15.703,15.705
			s-7.033,15.706-15.703,15.706C532.549,265.877,525.514,258.842,525.514,250.171z"/>
		<path fill="#FFFFFF" d="M589.998,248.344c0-8.671,7.036-15.706,15.707-15.706c8.67,0,15.705,7.035,15.705,15.706
			c0,8.67-7.035,15.706-15.705,15.706C597.034,264.05,589.998,257.014,589.998,248.344z"/>
		<path fill="#FFFFFF" d="M426.957,260.725c0-11.385,9.225-20.609,20.607-20.609c11.386,0,20.609,9.225,20.609,20.609
			c0,11.384-9.225,20.608-20.609,20.608C436.182,281.333,426.957,272.108,426.957,260.725z"/>
		<path fill="#FFFFFF" d="M485.792,207.043c0-11.385,9.224-20.61,20.608-20.61s20.608,9.226,20.608,20.61
			c0,11.384-9.225,20.606-20.608,20.606C495.016,227.649,485.792,218.428,485.792,207.043z"/>
		<path fill="#FFFFFF" d="M626.397,203.221c0-11.386,9.224-20.61,20.607-20.61c11.387,0,20.61,9.225,20.61,20.61
			c0,11.383-9.226,20.607-20.61,20.607C635.62,223.828,626.397,214.604,626.397,203.221z"/>
		<path fill="#FFFFFF" d="M591.494,130.923c0-11.384,9.226-20.609,20.61-20.609c11.384,0,20.608,9.226,20.608,20.609
			c0,11.385-9.226,20.609-20.608,20.609C600.719,151.532,591.494,142.308,591.494,130.923z"/>
		<path fill="#FFFFFF" d="M518.2,146.214c0-11.384,9.226-20.609,20.608-20.609c11.385,0,20.608,9.226,20.608,20.609
			s-9.224,20.608-20.608,20.608C527.424,166.82,518.2,157.599,518.2,146.214z"/>
	</g>
	<g enable-background="new    ">
		<path fill="#FFFFFF" d="M355.573,904.365v38.924h-12.251v-38.924H331.07v-10.922h36.754v10.922H355.573z"/>
		<path fill="#FFFFFF" d="M374.96,943.289v-49.846h33.883v10.922h-21.632v8.331h18.482v10.921h-18.482v8.751h21.632v10.921H374.96z"
			/>
		<path fill="#FFFFFF" d="M445.732,943.289l-15.961-25.062v25.062h-12.251v-49.846h10.711l15.962,25.063v-25.063h12.251v49.846
			H445.732z"/>
		<path fill="#FFFFFF" d="M466.519,943.289v-49.846h33.884v10.922H478.77v8.331h18.482v10.921H478.77v8.751h21.632v10.921H466.519z"
			/>
		<path fill="#FFFFFF" d="M543.311,943.289v-23.872l-7.071,12.321H528.4l-7.07-12.321v23.872h-12.251v-49.846h12.042l11.201,21.982
			l11.201-21.982h12.041v49.846H543.311z"/>
		<path fill="#FFFFFF" d="M596.931,938.108c-3.641,3.641-7.841,5.601-13.932,5.601s-10.291-1.96-13.932-5.601
			c-5.251-5.25-5.04-12.251-5.04-19.742c0-7.49-0.211-14.491,5.04-19.742c3.641-3.64,7.841-5.601,13.932-5.601
			s10.291,1.961,13.932,5.601c5.251,5.251,5.04,12.252,5.04,19.742C601.971,925.857,602.182,932.858,596.931,938.108z
			 M587.9,906.115c-0.91-1.19-2.66-2.17-4.9-2.17s-3.99,0.979-4.9,2.17c-1.12,1.47-1.82,3.15-1.82,12.251
			c0,9.102,0.7,10.711,1.82,12.182c0.91,1.19,2.66,2.24,4.9,2.24s3.99-1.05,4.9-2.24c1.12-1.471,1.82-3.08,1.82-12.182
			C589.72,909.266,589.02,907.585,587.9,906.115z"/>
		<path fill="#FFFFFF" d="M624.649,943.709c-7.631,0-13.861-1.4-18.901-6.58l7.841-7.842c2.59,2.591,7.141,3.501,11.131,3.501
			c4.831,0,7.141-1.61,7.141-4.48c0-1.19-0.279-2.17-0.979-2.94c-0.63-0.63-1.681-1.12-3.291-1.33l-6.021-0.84
			c-4.41-0.631-7.771-2.101-10.011-4.411c-2.31-2.38-3.431-5.74-3.431-10.011c0-9.101,6.861-15.752,18.202-15.752
			c7.141,0,12.531,1.681,16.802,5.951l-7.701,7.7c-3.149-3.149-7.28-2.939-9.451-2.939c-4.27,0-6.02,2.45-6.02,4.62
			c0,0.63,0.209,1.54,0.979,2.311c0.63,0.63,1.681,1.26,3.431,1.47l6.021,0.84c4.48,0.63,7.701,2.03,9.801,4.131
			c2.66,2.59,3.711,6.301,3.711,10.921C643.902,938.179,635.151,943.709,624.649,943.709z"/>
		<path fill="#FFFFFF" d="M667.486,943.289v-49.846h33.884v10.922h-21.632v8.331h18.481v10.921h-18.481v8.751h21.632v10.921H667.486
			z"/>
		<path fill="#FFFFFF" d="M710.044,943.289v-49.846h12.252v38.925h20.932v10.921H710.044z"/>
		<path fill="#FFFFFF" d="M778.227,943.289l-2.311-7.421h-15.331l-2.45,7.421h-12.812l18.132-49.846h9.451l18.132,49.846H778.227z
			 M768.496,912.346l-4.48,13.302h8.681L768.496,912.346z"/>
	</g>
	<g enable-background="new    ">
		<path fill="#FFFFFF" d="M424.24,1025.205c-10.361,0-18.832-7.001-18.832-17.922v-32.344h12.251v32.063
			c0,4.621,2.521,7.281,6.581,7.281c4.061,0,6.721-2.66,6.721-7.281v-32.063h12.251v32.344
			C443.213,1018.204,434.602,1025.205,424.24,1025.205z"/>
		<path fill="#FFFFFF" d="M477.651,1024.785l-8.821-18.552h-4.13v18.552h-12.251v-49.846h19.742
			c11.061,0,17.012,7.842,17.012,16.032c0,6.791-4.201,11.062-8.121,13.021l10.781,20.792H477.651z M471.63,985.931h-6.931v10.081
			h6.931c3.36,0,5.32-2.45,5.32-5.04C476.95,988.381,474.99,985.931,471.63,985.931z"/>
		<path fill="#FFFFFF" d="M516.079,1025.205c-10.361,0-18.832-7.001-18.832-17.922v-32.344h12.251v32.063
			c0,4.621,2.521,7.281,6.581,7.281c4.061,0,6.721-2.66,6.721-7.281v-32.063h12.251v32.344
			C535.052,1018.204,526.441,1025.205,516.079,1025.205z"/>
		<path fill="#FFFFFF" d="M576.071,1019.604c-4.271,4.41-9.031,5.601-14.492,5.601c-5.811,0-10.221-1.96-13.861-5.601
			c-5.25-5.25-5.041-12.251-5.041-19.742c0-7.49-0.21-14.491,5.041-19.742c3.641-3.64,7.841-5.601,13.861-5.601
			c12.812,0,18.272,8.331,19.463,16.522h-12.322c-0.979-3.78-2.939-5.601-7.141-5.601c-2.24,0-3.92,0.979-4.83,2.17
			c-1.12,1.47-1.82,3.15-1.82,12.251c0,9.102,0.7,10.852,1.82,12.321c0.91,1.19,2.59,2.101,4.83,2.101
			c2.591,0,4.341-0.771,5.461-1.96c1.4-1.4,1.891-3.431,1.891-5.321v-0.7h-7.352v-10.221h19.532v6.931
			C581.111,1011.063,579.851,1015.754,576.071,1019.604z"/>
		<path fill="#FFFFFF" d="M607.568,1025.205c-10.36,0-18.832-7.001-18.832-17.922v-32.344h12.251v32.063
			c0,4.621,2.521,7.281,6.581,7.281c4.061,0,6.721-2.66,6.721-7.281v-32.063h12.251v32.344
			C626.539,1018.204,617.929,1025.205,607.568,1025.205z"/>
		<path fill="#FFFFFF" d="M663.638,1024.785l-2.31-7.421h-15.332l-2.45,7.421h-12.812l18.132-49.846h9.451l18.132,49.846H663.638z
			 M653.906,993.842l-4.48,13.302h8.682L653.906,993.842z"/>
		<path fill="#FFFFFF" d="M701.298,1004.483v20.302h-12.251v-20.302l-15.052-29.544h13.372l7.84,17.922l7.771-17.922h13.371
			L701.298,1004.483z"/>
	</g>
</g>
</svg>
