<?xml version="1.0" encoding="utf-8"?>
<!-- Generator: Adobe Illustrator 16.0.0, SVG Export Plug-In . SVG Version: 6.00 Build 0)  -->
<!DOCTYPE svg PUBLIC "-//W3C//DTD SVG 1.1//EN" "http://www.w3.org/Graphics/SVG/1.1/DTD/svg11.dtd">
<svg version="1.1" id="Layer_1" xmlns:figma="http://www.figma.com/figma/ns"
	 xmlns="http://www.w3.org/2000/svg" xmlns:xlink="http://www.w3.org/1999/xlink" x="0px" y="0px" width="3401.57px"
	 height="1120px" viewBox="0 604.09 3401.57 1120" enable-background="new 0 604.09 3401.57 1120" xml:space="preserve">
<title>Logo</title>
<g>
	<g>
		<path d="M606.743,1455.982c-42.369,0-61.992-30.342-61.992-62.914V1268.58h-25.867v-34.804h25.867v-68.714h45.49v68.714h43.707
			v34.804h-43.707v122.258c0,16.509,8.028,26.325,24.975,26.325h18.731v38.819H606.743z"/>
		<path d="M724.034,1356.034c0,38.819,20.515,63.36,57.532,63.36c25.421,0,38.8-7.14,54.856-23.202l28.989,27.218
			c-23.191,23.202-45.044,35.249-84.737,35.249c-56.64,0-101.684-29.895-101.684-116.011c0-73.177,37.909-115.565,95.886-115.565
			c60.654,0,95.887,44.62,95.887,108.872v20.079H724.034z M819.475,1293.566c-7.136-16.955-23.191-28.557-44.599-28.557
			s-37.909,11.602-45.044,28.557c-4.459,10.263-5.352,16.956-5.797,30.788h101.684
			C825.272,1310.522,823.935,1303.829,819.475,1293.566z"/>
		<path d="M1068.772,1455.982v-137.875c0-35.25-20.069-50.42-45.49-50.42s-46.828,15.617-46.828,50.42v137.875h-45.491V1229.76
			h44.599v22.756c15.609-16.956,37.462-25.434,60.208-25.434c23.191,0,42.369,7.585,55.748,20.525
			c17.394,16.955,22.745,38.373,22.745,63.806v144.568H1068.772z"/>
		<path d="M1217.728,1356.034c0,38.819,20.515,63.36,57.532,63.36c25.421,0,38.8-7.14,54.856-23.202l28.989,27.218
			c-23.191,23.202-45.044,35.249-84.737,35.249c-56.64,0-101.684-29.895-101.684-116.011c0-73.177,37.909-115.565,95.886-115.565
			c60.654,0,95.887,44.62,95.887,108.872v20.079H1217.728z M1313.168,1293.566c-7.136-16.955-23.191-28.557-44.599-28.557
			s-37.909,11.602-45.044,28.557c-4.459,10.263-5.352,16.956-5.797,30.788h101.684
			C1318.966,1310.522,1317.628,1303.829,1313.168,1293.566z"/>
		<path d="M1699.829,1455.982v-137.875c0-35.25-20.069-50.42-45.49-50.42c-24.529,0-46.828,15.617-46.828,48.189v140.106h-45.491
			v-137.875c0-35.25-20.069-50.42-45.49-50.42s-46.828,15.617-46.828,50.42v137.875h-45.491V1229.76h44.599v22.756
			c15.164-16.51,37.462-25.434,60.208-25.434c28.097,0,49.95,11.155,64.222,33.019c18.285-22.31,41.03-33.019,70.911-33.019
			c23.191,0,43.707,7.585,57.086,20.525c17.394,16.955,24.083,38.373,24.083,63.806v144.568H1699.829z"/>
		<path d="M1966.526,1431.888c-14.718,15.171-37.017,26.771-67.79,26.771c-30.772,0-52.626-11.601-67.344-26.771
			c-21.407-22.31-26.759-50.866-26.759-89.239c0-37.927,5.352-66.483,26.759-88.793c14.718-15.171,36.571-26.772,67.344-26.772
			c30.773,0,53.072,11.601,67.79,26.772c21.407,22.31,26.759,50.867,26.759,88.793
			C1993.285,1381.021,1987.934,1409.578,1966.526,1431.888z M1932.186,1280.627c-8.474-8.478-20.069-12.94-33.449-12.94
			c-13.379,0-24.529,4.462-33.003,12.94c-13.825,13.832-15.609,37.48-15.609,62.021s1.784,48.189,15.609,62.021
			c8.474,8.478,19.624,13.386,33.003,13.386c13.38,0,24.976-4.908,33.449-13.386c13.825-13.832,15.609-37.48,15.609-62.021
			S1946.011,1294.459,1932.186,1280.627z"/>
		<path d="M2127.966,1458.659c-37.017,0-68.235-6.246-94.994-32.572l29.881-29.895c18.285,18.74,42.814,23.648,65.113,23.648
			c27.651,0,49.505-9.816,49.505-31.234c0-15.171-8.474-24.987-30.327-26.771l-36.125-3.124
			c-42.368-3.569-66.897-22.756-66.897-62.467c0-44.174,37.909-69.161,85.184-69.161c33.895,0,62.883,7.139,83.845,25.434
			l-28.543,29.003c-14.271-12.048-34.341-16.51-55.748-16.51c-27.205,0-41.03,12.048-41.03,29.003
			c0,13.386,7.136,23.648,31.219,25.88l35.679,3.123c42.368,3.569,67.343,23.648,67.343,63.807
			C2222.068,1434.119,2181.931,1458.659,2127.966,1458.659z"/>
	</g>
	<g>
		<path d="M583.703,1651.816c-23.181,0-39.923-15.945-39.923-38.815v-76.823h12.234v75.857c0,17.394,10.947,28.829,27.688,28.829
			c16.742,0,27.85-11.436,27.85-28.829v-75.857h12.235v76.823C623.787,1635.871,606.884,1651.816,583.703,1651.816z"/>
		<path d="M878.939,1650.85l-26.079-50.894h-27.528v50.894h-12.234v-114.672h43.947c19.962,0,33.967,12.079,33.967,31.889
			c0,16.75-10.142,27.702-24.952,30.762l27.206,52.021H878.939z M855.919,1547.129h-30.586v42.036h30.586
			c13.361,0,22.859-6.926,22.859-20.938S869.281,1547.129,855.919,1547.129z"/>
		<path d="M1114.773,1651.816c-23.181,0-39.923-15.945-39.923-38.815v-76.823h12.234v75.857c0,17.394,10.947,28.829,27.688,28.829
			c16.742,0,27.85-11.436,27.85-28.829v-75.857h12.235v76.823C1154.857,1635.871,1137.954,1651.816,1114.773,1651.816z"/>
		<path d="M1410.493,1638.609c-8.049,8.697-18.834,13.207-30.586,13.207c-11.269,0-21.571-4.188-29.298-11.919
			c-10.786-10.79-10.786-22.064-10.786-46.384s0-35.594,10.786-46.385c7.727-7.73,17.869-11.918,29.298-11.918
			c21.894,0,36.704,14.173,40.084,34.305h-12.235c-3.219-14.495-13.522-23.353-27.85-23.353c-7.566,0-14.81,3.06-19.8,8.214
			c-7.244,7.408-8.049,15.139-8.049,39.137c0,23.997,0.805,31.889,8.049,39.298c4.99,5.153,12.234,8.053,19.8,8.053
			c8.371,0,16.42-3.383,21.732-9.824c4.668-5.638,6.439-11.919,6.439-20.776v-8.697h-28.172v-10.791h40.406v18.199
			C1420.312,1622.182,1417.576,1631.04,1410.493,1638.609z"/>
		<path d="M1644.877,1651.816c-23.181,0-39.923-15.945-39.923-38.815v-76.823h12.234v75.857c0,17.394,10.947,28.829,27.688,28.829
			c16.742,0,27.85-11.436,27.85-28.829v-75.857h12.235v76.823C1684.962,1635.871,1668.059,1651.816,1644.877,1651.816z"/>
		<path d="M1941.08,1650.85l-9.176-25.93h-50.064l-9.177,25.93h-13.039l42.177-114.672h10.303l42.016,114.672H1941.08z
			 M1907.113,1553.732l-21.571,60.558h42.82L1907.113,1553.732z"/>
		<path d="M2161.461,1603.499v47.351h-12.234v-47.351l-34.128-67.321h13.2l27.045,54.92l26.723-54.92h13.2L2161.461,1603.499z"/>
	</g>
	<g>
		<path fill="#EE0029" d="M2298.854,1651.709v-450.66h287.854v61.396h-219.528v131.654h187.264v60.763h-187.264v135.451h219.528
			v61.396H2298.854z"/>
		<path fill="#EE0029" d="M2686.029,1651.709v-450.66h68.325v389.264h216.997v61.396H2686.029z"/>
		<path fill="#EE0029" d="M3314.239,1651.709l-31-90.512h-177.773l-30.999,90.512h-72.754l165.12-450.66h55.04l165.12,450.66
			H3314.239z M3195.935,1302.953l-70.224,200.013h138.549L3195.935,1302.953z"/>
	</g>
	<g>
		<path fill-rule="evenodd" clip-rule="evenodd" d="M197.925,795.673c16.912,0,31.308-13.163,31.308-28.822
			c0-15.666-14.396-28.834-31.308-28.834c-17.548,0-31.325,13.168-31.325,28.834C166.6,782.51,180.377,795.673,197.925,795.673
			L197.925,795.673z"/>
		<path fill-rule="evenodd" clip-rule="evenodd" d="M131.528,866.49c16.91,0,31.307-12.538,31.307-28.833
			c0-15.672-14.396-28.821-31.307-28.821c-17.543,0-31.325,13.149-31.325,28.821C100.203,853.952,113.985,866.49,131.528,866.49
			L131.528,866.49z"/>
		<path fill-rule="evenodd" clip-rule="evenodd" d="M339.476,699.78c17.542,0,31.952-12.52,31.952-28.816
			c0-15.671-14.41-28.823-31.952-28.823c-16.899,0-31.307,13.152-31.307,28.823C308.169,687.261,322.576,699.78,339.476,699.78
			L339.476,699.78z"/>
		<path fill-rule="evenodd" clip-rule="evenodd" d="M387.713,768.096c16.916,0,31.325-13.163,31.325-28.816
			c0-16.302-14.409-29.464-31.325-29.464c-17.542,0-31.325,13.163-31.325,29.464C356.388,754.933,370.17,768.096,387.713,768.096
			L387.713,768.096z"/>
		<path fill-rule="evenodd" clip-rule="evenodd" d="M427.165,889.045c17.543,0,31.957-13.15,31.957-28.822
			c0-16.298-14.414-28.835-31.957-28.835c-16.899,0-31.307,12.537-31.307,28.835C395.858,875.895,410.266,889.045,427.165,889.045
			L427.165,889.045z"/>
		<path fill-rule="evenodd" clip-rule="evenodd" d="M365.164,944.191c17.542,0,31.32-13.15,31.32-28.817
			c0-15.668-13.777-28.833-31.32-28.833c-17.548,0-31.325,13.165-31.325,28.833C333.839,931.042,347.616,944.191,365.164,944.191
			L365.164,944.191z"/>
		<path fill-rule="evenodd" clip-rule="evenodd" d="M36.939,1013.137c17.543,0,31.325-13.168,31.325-28.833
			c0-16.302-13.782-29.448-31.325-29.448c-16.912,0-31.325,13.146-31.325,29.448C5.614,999.969,20.027,1013.137,36.939,1013.137
			L36.939,1013.137z"/>
		<path fill-rule="evenodd" clip-rule="evenodd" d="M191.658,921.645c17.542,0,31.325-13.168,31.325-28.836
			c0-16.284-13.783-29.452-31.325-29.452c-16.917,0-31.325,13.168-31.325,29.452C160.333,908.477,174.74,921.645,191.658,921.645
			L191.658,921.645z"/>
		<path fill-rule="evenodd" clip-rule="evenodd" fill="#EE0029" d="M296.263,777.498c16.91,0,31.319-13.163,31.319-29.448
			c0-15.67-14.409-28.832-31.319-28.832c-17.548,0-31.944,13.162-31.944,28.832C264.319,764.335,278.715,777.498,296.263,777.498
			L296.263,777.498z"/>
		<path fill-rule="evenodd" clip-rule="evenodd" d="M70.765,942.318c16.918,0,31.327-13.168,31.327-28.821
			c0-15.664-14.409-28.832-31.327-28.832c-17.541,0-31.95,13.168-31.95,28.832C38.815,929.15,53.225,942.318,70.765,942.318
			L70.765,942.318z"/>
		<path fill-rule="evenodd" clip-rule="evenodd" d="M460.993,985.562c16.916,0,31.325-13.161,31.325-29.466
			c0-15.664-14.409-28.814-31.325-28.814c-17.532,0-31.939,13.15-31.939,28.814C429.054,972.401,443.461,985.562,460.993,985.562
			L460.993,985.562z"/>
		<path fill-rule="evenodd" clip-rule="evenodd" d="M344.499,852.083c17.532,0,31.309-13.168,31.309-28.833
			c0-16.304-13.777-28.834-31.309-28.834c-17.542,0-31.325,12.53-31.325,28.834C313.173,838.915,326.956,852.083,344.499,852.083
			L344.499,852.083z"/>
		<path fill-rule="evenodd" clip-rule="evenodd" d="M244.905,859.596c17.524,0,31.307-12.538,31.307-28.833
			c0-15.661-13.782-28.822-31.307-28.822c-16.918,0-31.325,13.161-31.325,28.822C213.58,847.059,227.987,859.596,244.905,859.596
			L244.905,859.596z"/>
		<path fill-rule="evenodd" clip-rule="evenodd" d="M241.77,716.082c17.526,0,31.308-12.536,31.308-28.821
			c0-15.666-13.782-28.834-31.308-28.834c-17.548,0-31.325,13.168-31.325,28.834C210.445,703.546,224.222,716.082,241.77,716.082
			L241.77,716.082z"/>
		<path fill-rule="evenodd" clip-rule="evenodd" d="M468.519,820.114c17.53,0,31.312-13.168,31.312-29.448
			c0-15.67-13.783-28.839-31.312-28.839c-16.912,0-31.319,13.169-31.319,28.839C437.2,806.946,451.607,820.114,468.519,820.114
			L468.519,820.114z"/>
		<path fill-rule="evenodd" clip-rule="evenodd" d="M36.307,856.463c17.548,0,31.957-13.168,31.957-28.822
			c0-16.297-14.409-29.465-31.957-29.465C19.396,798.176,5,811.344,5,827.641C5,843.295,19.396,856.463,36.307,856.463
			L36.307,856.463z"/>
		<path fill-rule="evenodd" clip-rule="evenodd" d="M510.475,906.604c17.548,0,31.324-12.535,31.324-28.833
			c0-15.671-13.776-28.821-31.324-28.821c-17.525,0-31.307,13.15-31.307,28.821C479.168,894.069,492.95,906.604,510.475,906.604
			L510.475,906.604z"/>
		<path fill-rule="evenodd" clip-rule="evenodd" d="M110.23,776.254c17.532,0,31.314-13.163,31.314-28.834
			c0-16.297-13.782-28.834-31.314-28.834c-17.542,0-31.317,12.538-31.317,28.834C78.913,763.091,92.688,776.254,110.23,776.254
			L110.23,776.254z"/>
		<path fill-rule="evenodd" clip-rule="evenodd" d="M128.395,1645.456c38.833,2.504,51.982,0.634,85.186-8.771
			c30.061,29.448,28.19,7.528,33.196,1.892c25.057,5.637,30.068,15.02,68.901,10.646c-9.402-20.051-44.477-10.034-40.079-77.086
			c2.503-36.349,13.152-68.931,13.152-107.167c7.513-90.869-35.075-140.38,7.513-200.537c58.884-69.562,55.118-87.106,96.46-151.031
			c7.515-11.273-11.906,0-11.906-3.133c4.392-23.812,24.425-83.98,5.024-92.754c-10.661-4.379-3.765,61.418-15.041,80.85
			c-8.771,16.284-13.15,1.877-13.783,8.144c-5.004,50.757-65.767,151.023-110.242,164.818
			c-20.678,6.267,65.768,206.174-32.565,315.217c-14.413,16.299-38.208,33.224-59.515,43.874L128.395,1645.456z"/>
		<path fill-rule="evenodd" clip-rule="evenodd" d="M236.133,1092.729c7.508-34.473-16.285-110.301-17.548-136.634
			c-1.247-26.945,4.398,3.768,28.191-6.26c15.029-6.891,11.906-62.668,37.576-70.808c14.414-4.391-25.67,111.543-29.431,172.331
			c-1.246,25.702,6.269,194.9,5.637,196.157c-23.185,25.688-20.051-19.432-20.676-35.104l-2.509-67.051
			c-1.241-24.441-32.565-40.729-51.985-53.267c-25.67-15.665-36.331-28.833-54.493-45.743
			c-11.273-10.661-19.419-11.907-15.653-18.805c12.52-23.181-28.191-36.349-18.805-43.874c10.035-8.14,23.185,21.938,25.688-23.811
			c2.503-45.75,11.273,47.007,13.783,58.28C145.935,1056.37,230.491,1119.048,236.133,1092.729L236.133,1092.729z"/>
	</g>
</g>
</svg>
