<?xml version="1.0" encoding="utf-8"?>
<!-- Generator: Adobe Illustrator 16.0.0, SVG Export Plug-In . SVG Version: 6.00 Build 0)  -->
<!DOCTYPE svg PUBLIC "-//W3C//DTD SVG 1.1//EN" "http://www.w3.org/Graphics/SVG/1.1/DTD/svg11.dtd">
<svg version="1.1" id="Layer_1" xmlns:figma="http://www.figma.com/figma/ns"
	 xmlns="http://www.w3.org/2000/svg" xmlns:xlink="http://www.w3.org/1999/xlink" x="0px" y="0px" width="3401.57px"
	 height="1120px" viewBox="0 604.09 3401.57 1120" enable-background="new 0 604.09 3401.57 1120" xml:space="preserve">
<title>Logo</title>
<g>
	<text transform="matrix(0.9995 0 0 1 503.2744 1455.9824)"><tspan x="0" y="0" font-family="'DINPro-Medium'" font-size="446.2013" letter-spacing="-1">t</tspan><tspan x="151.26" y="0" font-family="'DINPro-Medium'" font-size="446.2013">en</tspan><tspan x="645.196" y="0" font-family="'DINPro-Medium'" font-size="446.2013">e</tspan><tspan x="885.246" y="0" font-family="'DINPro-Medium'" font-size="446.2013">mos</tspan></text>
	
		<text transform="matrix(0.9995 0 0 1 528.8086 1650.8496)" font-family="'DINPro-Regular'" font-size="161.0586" letter-spacing="157.077">URUGUAY</text>
	<text transform="matrix(0.9995 0 0 1 2240.0176 1651.709)"><tspan x="0" y="0" fill="#EE0029" font-family="'DINPro-Medium'" font-size="632.954" letter-spacing="5.002">E</tspan><tspan x="387.365" y="0" fill="#EE0029" font-family="'DINPro-Medium'" font-size="632.954" letter-spacing="6.003">L</tspan><tspan x="757.005" y="0" fill="#EE0029" font-family="'DINPro-Medium'" font-size="632.954">A</tspan></text>
	<g>
		<path fill-rule="evenodd" clip-rule="evenodd" d="M197.925,795.673c16.912,0,31.308-13.163,31.308-28.822
			c0-15.666-14.396-28.834-31.308-28.834c-17.548,0-31.325,13.168-31.325,28.834C166.6,782.51,180.377,795.673,197.925,795.673
			L197.925,795.673z"/>
		<path fill-rule="evenodd" clip-rule="evenodd" d="M131.528,866.49c16.91,0,31.307-12.538,31.307-28.833
			c0-15.672-14.396-28.821-31.307-28.821c-17.543,0-31.325,13.149-31.325,28.821C100.203,853.952,113.985,866.49,131.528,866.49
			L131.528,866.49z"/>
		<path fill-rule="evenodd" clip-rule="evenodd" d="M339.476,699.78c17.542,0,31.952-12.52,31.952-28.816
			c0-15.671-14.41-28.823-31.952-28.823c-16.899,0-31.307,13.152-31.307,28.823C308.169,687.261,322.576,699.78,339.476,699.78
			L339.476,699.78z"/>
		<path fill-rule="evenodd" clip-rule="evenodd" d="M387.713,768.096c16.916,0,31.325-13.163,31.325-28.816
			c0-16.302-14.409-29.464-31.325-29.464c-17.542,0-31.325,13.163-31.325,29.464C356.388,754.933,370.17,768.096,387.713,768.096
			L387.713,768.096z"/>
		<path fill-rule="evenodd" clip-rule="evenodd" d="M427.165,889.045c17.543,0,31.957-13.15,31.957-28.822
			c0-16.298-14.414-28.835-31.957-28.835c-16.899,0-31.307,12.537-31.307,28.835C395.858,875.895,410.266,889.045,427.165,889.045
			L427.165,889.045z"/>
		<path fill-rule="evenodd" clip-rule="evenodd" d="M365.164,944.191c17.542,0,31.32-13.15,31.32-28.817
			c0-15.668-13.777-28.833-31.32-28.833c-17.548,0-31.325,13.165-31.325,28.833C333.839,931.042,347.616,944.191,365.164,944.191
			L365.164,944.191z"/>
		<path fill-rule="evenodd" clip-rule="evenodd" d="M36.939,1013.137c17.543,0,31.325-13.168,31.325-28.833
			c0-16.302-13.782-29.448-31.325-29.448c-16.912,0-31.325,13.146-31.325,29.448C5.614,999.969,20.027,1013.137,36.939,1013.137
			L36.939,1013.137z"/>
		<path fill-rule="evenodd" clip-rule="evenodd" d="M191.658,921.645c17.542,0,31.325-13.168,31.325-28.836
			c0-16.284-13.783-29.452-31.325-29.452c-16.917,0-31.325,13.168-31.325,29.452C160.333,908.477,174.74,921.645,191.658,921.645
			L191.658,921.645z"/>
		<path fill-rule="evenodd" clip-rule="evenodd" fill="#EE0029" d="M296.263,777.498c16.91,0,31.319-13.163,31.319-29.448
			c0-15.67-14.409-28.832-31.319-28.832c-17.548,0-31.944,13.162-31.944,28.832C264.319,764.335,278.715,777.498,296.263,777.498
			L296.263,777.498z"/>
		<path fill-rule="evenodd" clip-rule="evenodd" d="M70.765,942.318c16.918,0,31.327-13.168,31.327-28.821
			c0-15.664-14.409-28.832-31.327-28.832c-17.541,0-31.95,13.168-31.95,28.832C38.815,929.15,53.225,942.318,70.765,942.318
			L70.765,942.318z"/>
		<path fill-rule="evenodd" clip-rule="evenodd" d="M460.993,985.562c16.916,0,31.325-13.161,31.325-29.466
			c0-15.664-14.409-28.814-31.325-28.814c-17.532,0-31.939,13.15-31.939,28.814C429.054,972.401,443.461,985.562,460.993,985.562
			L460.993,985.562z"/>
		<path fill-rule="evenodd" clip-rule="evenodd" d="M344.499,852.083c17.532,0,31.309-13.168,31.309-28.833
			c0-16.304-13.777-28.834-31.309-28.834c-17.542,0-31.325,12.53-31.325,28.834C313.173,838.915,326.956,852.083,344.499,852.083
			L344.499,852.083z"/>
		<path fill-rule="evenodd" clip-rule="evenodd" d="M244.905,859.596c17.524,0,31.307-12.538,31.307-28.833
			c0-15.661-13.782-28.822-31.307-28.822c-16.918,0-31.325,13.161-31.325,28.822C213.58,847.059,227.987,859.596,244.905,859.596
			L244.905,859.596z"/>
		<path fill-rule="evenodd" clip-rule="evenodd" d="M241.77,716.082c17.526,0,31.308-12.536,31.308-28.821
			c0-15.666-13.782-28.834-31.308-28.834c-17.548,0-31.325,13.168-31.325,28.834C210.445,703.546,224.222,716.082,241.77,716.082
			L241.77,716.082z"/>
		<path fill-rule="evenodd" clip-rule="evenodd" d="M468.519,820.114c17.53,0,31.312-13.168,31.312-29.448
			c0-15.67-13.783-28.839-31.312-28.839c-16.912,0-31.319,13.169-31.319,28.839C437.2,806.946,451.607,820.114,468.519,820.114
			L468.519,820.114z"/>
		<path fill-rule="evenodd" clip-rule="evenodd" d="M36.307,856.463c17.548,0,31.957-13.168,31.957-28.822
			c0-16.297-14.409-29.465-31.957-29.465C19.396,798.176,5,811.344,5,827.641C5,843.295,19.396,856.463,36.307,856.463
			L36.307,856.463z"/>
		<path fill-rule="evenodd" clip-rule="evenodd" d="M510.475,906.604c17.548,0,31.324-12.535,31.324-28.833
			c0-15.671-13.776-28.821-31.324-28.821c-17.525,0-31.307,13.15-31.307,28.821C479.168,894.069,492.95,906.604,510.475,906.604
			L510.475,906.604z"/>
		<path fill-rule="evenodd" clip-rule="evenodd" d="M110.23,776.254c17.532,0,31.314-13.163,31.314-28.834
			c0-16.297-13.782-28.834-31.314-28.834c-17.542,0-31.317,12.538-31.317,28.834C78.913,763.091,92.688,776.254,110.23,776.254
			L110.23,776.254z"/>
		<path fill-rule="evenodd" clip-rule="evenodd" d="M128.395,1645.456c38.833,2.504,51.982,0.634,85.186-8.771
			c30.061,29.448,28.19,7.528,33.196,1.892c25.057,5.637,30.068,15.02,68.901,10.646c-9.402-20.051-44.477-10.034-40.079-77.086
			c2.503-36.349,13.152-68.931,13.152-107.167c7.513-90.869-35.075-140.38,7.513-200.537c58.884-69.562,55.118-87.106,96.46-151.031
			c7.515-11.273-11.906,0-11.906-3.133c4.392-23.812,24.425-83.98,5.024-92.754c-10.661-4.379-3.765,61.418-15.041,80.85
			c-8.771,16.284-13.15,1.877-13.783,8.144c-5.004,50.757-65.767,151.023-110.242,164.818
			c-20.678,6.267,65.768,206.174-32.565,315.217c-14.413,16.299-38.208,33.224-59.515,43.874L128.395,1645.456z"/>
		<path fill-rule="evenodd" clip-rule="evenodd" d="M236.133,1092.729c7.508-34.473-16.285-110.301-17.548-136.634
			c-1.247-26.945,4.398,3.768,28.191-6.26c15.029-6.891,11.906-62.668,37.576-70.808c14.414-4.391-25.67,111.543-29.431,172.331
			c-1.246,25.702,6.269,194.9,5.637,196.157c-23.185,25.688-20.051-19.432-20.676-35.104l-2.509-67.051
			c-1.241-24.441-32.565-40.729-51.985-53.267c-25.67-15.665-36.331-28.833-54.493-45.743
			c-11.273-10.661-19.419-11.907-15.653-18.805c12.52-23.181-28.191-36.349-18.805-43.874c10.035-8.14,23.185,21.938,25.688-23.811
			c2.503-45.75,11.273,47.007,13.783,58.28C145.935,1056.37,230.491,1119.048,236.133,1092.729L236.133,1092.729z"/>
	</g>
</g>
</svg>
