<?xml version="1.0" encoding="utf-8"?>
<!-- Generator: Adobe Illustrator 16.0.0, SVG Export Plug-In . SVG Version: 6.00 Build 0)  -->
<!DOCTYPE svg PUBLIC "-//W3C//DTD SVG 1.1//EN" "http://www.w3.org/Graphics/SVG/1.1/DTD/svg11.dtd">
<svg version="1.1" id="Layer_1" xmlns="http://www.w3.org/2000/svg" xmlns:xlink="http://www.w3.org/1999/xlink" x="0px" y="0px"
	 width="32px" height="32px" viewBox="0 0 32 32" enable-background="new 0 0 32 32" xml:space="preserve">
<g>
	<g>
		<defs>
			<rect id="SVGID_1_" width="32" height="32"/>
		</defs>
		<clipPath id="SVGID_2_">
			<use xlink:href="#SVGID_1_"  overflow="visible"/>
		</clipPath>
		<path clip-path="url(#SVGID_2_)" fill="#282828" d="M30.053,8.894c-0.337-1.271-1.331-2.271-2.593-2.611
			C25.173,5.667,16,5.667,16,5.667s-9.173,0-11.46,0.616c-1.263,0.34-2.257,1.34-2.594,2.611C1.333,11.195,1.333,16,1.333,16
			s0,4.803,0.612,7.105c0.337,1.271,1.332,2.271,2.594,2.611C6.827,26.332,16,26.332,16,26.332s9.173,0,11.46-0.615
			c1.262-0.34,2.256-1.34,2.594-2.611C30.666,20.803,30.666,16,30.666,16S30.666,11.195,30.053,8.894"/>
	</g>
	<g>
		<defs>
			<rect id="SVGID_3_" width="32" height="32"/>
		</defs>
		<clipPath id="SVGID_4_">
			<use xlink:href="#SVGID_3_"  overflow="visible"/>
		</clipPath>
		<polygon clip-path="url(#SVGID_4_)" fill="#FFFFFF" points="13,20.361 20.666,16 13,11.638 		"/>
	</g>
</g>
</svg>
